{"glyphs":{"0":{"ha":833,"x_min":106,"x_max":776,"o":"m 401 -11 q 181 79 256 -11 q 106 340 106 169 q 151 689 106 543 q 282 913 197 835 q 482 990 367 990 q 644 950 579 990 q 743 831 710 910 q 776 639 776 753 q 731 290 776 436 q 601 67 685 144 q 401 -11 517 -11 m 406 46 q 632 206 550 46 q 714 664 714 367 q 656 866 714 799 q 478 933 597 933 q 251 774 333 933 q 168 315 168 614 q 227 113 168 181 q 406 46 286 46 z "},"1":{"ha":833,"x_min":139,"x_max":642,"o":"m 139 0 l 147 54 l 372 54 l 511 928 l 551 924 l 310 778 l 286 826 l 536 979 l 578 979 l 431 54 l 642 54 l 633 0 l 139 0 z "},"2":{"ha":833,"x_min":92,"x_max":764,"o":"m 92 0 l 99 44 l 500 421 q 603 531 557 475 q 676 645 649 586 q 703 768 703 704 q 651 890 703 846 q 504 933 600 933 q 353 901 425 933 q 215 810 282 868 l 189 860 q 282 929 232 900 q 388 974 332 958 q 506 990 444 990 q 642 963 585 990 q 732 885 700 935 q 764 771 764 836 q 733 626 764 694 q 649 497 701 558 q 531 375 596 435 l 161 32 l 158 54 l 693 54 l 685 0 l 92 0 z "},"3":{"ha":833,"x_min":58,"x_max":751,"o":"m 388 -11 q 272 0 331 -11 q 158 38 213 11 q 58 111 104 65 l 90 158 q 234 68 164 90 q 388 46 304 46 q 516 74 458 46 q 607 156 574 103 q 640 283 640 210 q 583 419 640 367 q 422 471 526 471 l 293 471 l 301 525 l 428 525 q 560 553 500 525 q 655 635 619 582 q 690 758 690 688 q 637 885 690 836 q 494 933 583 933 q 344 904 418 933 q 208 813 271 875 l 182 861 q 325 958 242 925 q 496 990 408 990 q 631 960 574 990 q 719 878 688 931 q 751 760 751 826 q 722 635 751 692 q 640 541 692 579 q 519 490 588 503 l 521 504 q 620 458 581 490 q 681 382 660 426 q 701 283 701 338 q 658 128 701 194 q 544 25 615 61 q 388 -11 472 -11 z "},"4":{"ha":833,"x_min":67,"x_max":763,"o":"m 504 0 l 542 231 l 67 231 l 74 276 l 669 979 l 718 979 l 608 285 l 763 285 l 754 231 l 600 231 l 563 0 l 504 0 m 550 285 l 649 908 l 681 908 l 136 269 l 138 285 l 550 285 z "},"5":{"ha":833,"x_min":99,"x_max":793,"o":"m 406 -11 q 297 0 351 -11 q 192 38 243 11 q 99 111 142 65 l 129 158 q 264 68 200 90 q 406 46 328 46 q 546 83 483 46 q 645 183 608 119 q 682 325 682 246 q 627 485 682 422 q 475 547 572 547 q 332 510 394 547 q 217 408 269 474 l 165 408 l 256 979 l 793 979 l 785 925 l 306 925 l 233 467 l 211 467 q 329 568 256 532 q 481 604 403 604 q 608 575 549 604 q 706 485 668 546 q 743 328 743 425 q 697 151 743 228 q 574 32 651 75 q 406 -11 497 -11 z "},"6":{"ha":833,"x_min":118,"x_max":819,"o":"m 421 -11 q 261 32 329 -11 q 156 155 193 75 q 118 343 118 235 q 144 587 118 471 q 225 794 171 703 q 360 938 279 885 q 551 990 442 990 q 651 975 601 990 q 744 931 700 960 q 819 861 788 901 l 788 814 q 675 904 736 875 q 544 933 614 933 q 398 894 464 933 q 283 781 332 854 q 206 603 235 707 q 174 371 178 499 l 172 335 l 161 335 q 221 478 175 418 q 332 569 267 538 q 469 601 397 601 q 612 566 550 601 q 709 469 674 531 q 744 329 744 407 q 702 156 744 233 q 586 34 660 79 q 421 -11 513 -11 m 417 46 q 557 84 497 46 q 650 187 617 122 q 683 328 683 251 q 655 440 683 392 q 576 517 626 489 q 464 544 526 544 q 324 506 385 544 q 231 404 264 468 q 197 263 197 340 q 226 150 197 199 q 305 74 256 101 q 417 46 354 46 z "},"7":{"ha":833,"x_min":133,"x_max":825,"o":"m 133 0 l 771 965 l 769 925 l 201 925 l 210 979 l 825 979 l 818 936 l 203 0 l 133 0 z "},"8":{"ha":833,"x_min":64,"x_max":796,"o":"m 371 -11 q 214 16 283 -11 q 104 94 144 43 q 64 215 64 146 q 99 358 64 293 q 193 462 133 422 q 328 506 253 501 l 325 499 q 235 540 272 511 q 180 610 199 568 q 161 704 161 653 q 206 860 161 796 q 330 957 251 924 q 510 990 408 990 q 658 962 593 990 q 759 883 722 933 q 796 763 796 832 q 764 632 796 690 q 677 536 732 574 q 553 489 622 499 l 556 499 q 655 464 613 492 q 721 392 697 436 q 744 290 744 349 q 697 126 744 193 q 565 24 649 58 q 371 -11 481 -11 m 374 44 q 601 107 518 44 q 683 294 683 169 q 616 425 683 382 q 439 468 549 468 q 210 406 296 468 q 125 221 125 344 q 194 88 125 132 q 374 44 263 44 m 446 524 q 595 552 531 524 q 697 634 660 581 q 735 761 735 688 q 673 890 735 844 q 508 935 611 935 q 299 876 375 935 q 222 701 222 818 q 283 570 222 617 q 446 524 344 524 z "},"9":{"ha":833,"x_min":63,"x_max":764,"o":"m 331 -11 q 231 4 281 -11 q 138 49 182 19 q 63 118 94 78 l 94 165 q 208 75 146 104 q 338 46 269 46 q 484 85 418 46 q 599 199 550 125 q 676 377 647 274 q 708 608 704 481 l 710 644 l 721 644 q 661 502 707 563 q 550 410 615 442 q 413 378 485 378 q 271 413 333 378 q 173 510 208 449 q 138 650 138 572 q 181 824 138 747 q 297 945 224 900 q 461 990 369 990 q 621 947 553 990 q 726 825 689 904 q 764 636 764 746 q 738 392 764 508 q 657 185 711 276 q 522 42 603 94 q 331 -11 440 -11 m 418 435 q 558 473 499 435 q 651 576 618 511 q 685 717 685 640 q 656 829 685 781 q 578 906 628 878 q 465 933 528 933 q 326 895 386 933 q 232 793 265 857 q 199 651 199 729 q 228 539 199 588 q 306 463 257 490 q 418 435 356 435 z "},"A":{"ha":994,"x_min":-4,"x_max":893,"o":"m -4 0 l 572 979 l 628 979 l 893 0 l 835 0 l 758 283 l 792 271 l 186 271 l 231 283 l 64 0 l -4 0 m 590 900 l 250 317 l 218 325 l 776 325 l 749 317 l 593 900 l 590 900 z "},"Á":{"ha":994,"x_min":-4,"x_max":893,"o":"m -4 0 l 572 979 l 628 979 l 893 0 l 835 0 l 758 283 l 792 271 l 186 271 l 231 283 l 64 0 l -4 0 m 590 900 l 250 317 l 218 325 l 776 325 l 749 317 l 593 900 l 590 900 m 590 1063 l 772 1299 l 851 1299 l 643 1063 l 590 1063 z "},"Ă":{"ha":994,"x_min":-4,"x_max":893,"o":"m -4 0 l 572 979 l 628 979 l 893 0 l 835 0 l 758 283 l 792 271 l 186 271 l 231 283 l 64 0 l -4 0 m 590 900 l 250 317 l 218 325 l 776 325 l 749 317 l 593 900 l 590 900 m 621 1056 q 517 1083 563 1056 q 446 1163 471 1111 q 422 1288 421 1215 l 468 1293 q 508 1155 464 1204 q 625 1106 551 1106 q 749 1155 699 1106 q 813 1293 799 1204 l 858 1288 q 775 1117 840 1179 q 621 1056 710 1056 z "},"Ắ":{"ha":994,"x_min":-4,"x_max":893,"o":"m -4 0 l 572 979 l 628 979 l 893 0 l 835 0 l 758 283 l 792 271 l 186 271 l 231 283 l 64 0 l -4 0 m 590 900 l 250 317 l 218 325 l 776 325 l 749 317 l 593 900 l 590 900 m 613 1067 q 475 1121 526 1067 q 428 1271 424 1175 l 474 1276 q 508 1158 469 1200 q 614 1117 546 1117 q 727 1158 683 1117 q 782 1276 771 1200 l 828 1271 q 756 1121 814 1175 q 613 1067 699 1067 m 583 1210 l 736 1418 l 813 1418 l 633 1210 l 583 1210 z "},"Ặ":{"ha":994,"x_min":-4,"x_max":893,"o":"m -4 0 l 572 979 l 628 979 l 893 0 l 835 0 l 758 283 l 792 271 l 186 271 l 231 283 l 64 0 l -4 0 m 590 900 l 250 317 l 218 325 l 776 325 l 749 317 l 593 900 l 590 900 m 386 -239 l 400 -151 l 489 -151 l 475 -239 l 386 -239 m 621 1056 q 517 1083 563 1056 q 446 1163 471 1111 q 422 1288 421 1215 l 468 1293 q 508 1155 464 1204 q 625 1106 551 1106 q 749 1155 699 1106 q 813 1293 799 1204 l 858 1288 q 775 1117 840 1179 q 621 1056 710 1056 z "},"Ằ":{"ha":994,"x_min":-4,"x_max":893,"o":"m -4 0 l 572 979 l 628 979 l 893 0 l 835 0 l 758 283 l 792 271 l 186 271 l 231 283 l 64 0 l -4 0 m 590 900 l 250 317 l 218 325 l 776 325 l 749 317 l 593 900 l 590 900 m 613 1056 q 475 1110 526 1056 q 428 1260 424 1164 l 474 1265 q 508 1147 469 1189 q 614 1106 546 1106 q 727 1147 683 1106 q 782 1265 771 1189 l 828 1260 q 756 1110 814 1164 q 613 1056 699 1056 m 606 1199 l 463 1407 l 536 1407 l 656 1199 l 606 1199 z "},"Ẳ":{"ha":994,"x_min":-4,"x_max":893,"o":"m -4 0 l 572 979 l 628 979 l 893 0 l 835 0 l 758 283 l 792 271 l 186 271 l 231 283 l 64 0 l -4 0 m 590 900 l 250 317 l 218 325 l 776 325 l 749 317 l 593 900 l 590 900 m 613 1056 q 475 1110 526 1056 q 428 1260 424 1164 l 474 1265 q 508 1147 469 1189 q 614 1106 546 1106 q 727 1147 683 1106 q 782 1265 771 1189 l 828 1260 q 756 1110 814 1164 q 613 1056 699 1056 m 599 1199 q 617 1253 601 1233 q 653 1284 633 1272 q 689 1308 674 1296 q 704 1338 704 1319 q 687 1360 704 1354 q 644 1367 669 1367 q 594 1362 621 1367 q 544 1350 567 1357 l 536 1390 q 587 1407 560 1401 q 643 1413 614 1413 q 728 1395 699 1413 q 758 1346 758 1378 q 742 1298 758 1315 q 704 1268 726 1281 q 665 1241 682 1256 q 646 1199 649 1226 l 599 1199 z "},"Ẵ":{"ha":994,"x_min":-4,"x_max":893,"o":"m -4 0 l 572 979 l 628 979 l 893 0 l 835 0 l 758 283 l 792 271 l 186 271 l 231 283 l 64 0 l -4 0 m 590 900 l 250 317 l 218 325 l 776 325 l 749 317 l 593 900 l 590 900 m 611 1056 q 483 1095 535 1056 q 419 1204 431 1135 l 465 1210 q 515 1133 476 1160 q 611 1106 553 1106 q 712 1133 669 1106 q 774 1210 754 1160 l 819 1204 q 774 1125 804 1158 q 703 1074 744 1092 q 611 1056 663 1056 m 471 1275 l 425 1278 q 449 1352 433 1322 q 490 1397 465 1382 q 546 1411 514 1411 q 602 1397 576 1411 q 651 1365 628 1382 q 690 1340 671 1351 q 731 1328 710 1328 q 779 1348 763 1328 q 807 1414 796 1368 l 853 1411 q 811 1311 842 1344 q 733 1278 781 1278 q 676 1292 703 1278 q 626 1324 650 1307 q 587 1350 607 1339 q 547 1361 567 1361 q 499 1341 517 1361 q 471 1275 482 1321 z "},"Ǎ":{"ha":994,"x_min":-4,"x_max":893,"o":"m -4 0 l 572 979 l 628 979 l 893 0 l 835 0 l 758 283 l 792 271 l 186 271 l 231 283 l 64 0 l -4 0 m 590 900 l 250 317 l 218 325 l 776 325 l 749 317 l 593 900 l 590 900 m 583 1063 l 440 1299 l 490 1299 l 617 1115 l 790 1299 l 843 1299 l 650 1063 l 583 1063 z "},"Â":{"ha":994,"x_min":-4,"x_max":893,"o":"m -4 0 l 572 979 l 628 979 l 893 0 l 835 0 l 758 283 l 792 271 l 186 271 l 231 283 l 64 0 l -4 0 m 590 900 l 250 317 l 218 325 l 776 325 l 749 317 l 593 900 l 590 900 m 403 1063 l 596 1299 l 663 1299 l 806 1063 l 754 1063 l 626 1246 l 454 1063 l 403 1063 z "},"Ấ":{"ha":994,"x_min":-4,"x_max":950,"o":"m -4 0 l 572 979 l 628 979 l 893 0 l 835 0 l 758 283 l 792 271 l 186 271 l 231 283 l 64 0 l -4 0 m 590 900 l 250 317 l 218 325 l 776 325 l 749 317 l 593 900 l 590 900 m 425 1063 l 596 1285 l 663 1285 l 794 1063 l 747 1063 l 626 1233 l 472 1063 l 425 1063 m 735 1203 l 874 1411 l 950 1411 l 785 1203 l 735 1203 z "},"Ậ":{"ha":994,"x_min":-4,"x_max":893,"o":"m -4 0 l 572 979 l 628 979 l 893 0 l 835 0 l 758 283 l 792 271 l 186 271 l 231 283 l 64 0 l -4 0 m 590 900 l 250 317 l 218 325 l 776 325 l 749 317 l 593 900 l 590 900 m 386 -239 l 400 -151 l 489 -151 l 475 -239 l 386 -239 m 403 1063 l 596 1299 l 663 1299 l 806 1063 l 754 1063 l 626 1246 l 454 1063 l 403 1063 z "},"Ầ":{"ha":994,"x_min":-4,"x_max":893,"o":"m -4 0 l 572 979 l 628 979 l 893 0 l 835 0 l 758 283 l 792 271 l 186 271 l 231 283 l 64 0 l -4 0 m 590 900 l 250 317 l 218 325 l 776 325 l 749 317 l 593 900 l 590 900 m 425 1063 l 596 1285 l 663 1285 l 794 1063 l 747 1063 l 626 1233 l 472 1063 l 425 1063 m 792 1203 l 663 1411 l 736 1411 l 842 1203 l 792 1203 z "},"Ẩ":{"ha":994,"x_min":-4,"x_max":911,"o":"m -4 0 l 572 979 l 628 979 l 893 0 l 835 0 l 758 283 l 792 271 l 186 271 l 231 283 l 64 0 l -4 0 m 590 900 l 250 317 l 218 325 l 776 325 l 749 317 l 593 900 l 590 900 m 425 1063 l 596 1285 l 663 1285 l 794 1063 l 747 1063 l 626 1233 l 472 1063 l 425 1063 m 751 1203 q 770 1257 754 1238 q 806 1288 786 1276 q 842 1312 826 1300 q 857 1343 857 1324 q 840 1365 857 1358 q 797 1371 822 1371 q 747 1366 774 1371 q 697 1354 719 1361 l 689 1394 q 740 1411 713 1406 q 796 1417 767 1417 q 881 1399 851 1417 q 911 1350 911 1382 q 895 1302 911 1319 q 857 1272 879 1285 q 818 1245 835 1260 q 799 1203 801 1231 l 751 1203 z "},"Ẫ":{"ha":994,"x_min":-4,"x_max":893,"o":"m -4 0 l 572 979 l 628 979 l 893 0 l 835 0 l 758 283 l 792 271 l 186 271 l 231 283 l 64 0 l -4 0 m 590 900 l 250 317 l 218 325 l 776 325 l 749 317 l 593 900 l 590 900 m 425 1063 l 592 1243 l 658 1243 l 794 1063 l 747 1063 l 622 1196 l 472 1063 l 425 1063 m 468 1279 l 424 1282 q 466 1382 435 1349 q 544 1415 497 1415 q 599 1401 575 1415 q 643 1369 622 1386 q 680 1344 663 1356 q 718 1332 697 1332 q 767 1352 750 1332 q 794 1418 783 1372 l 840 1415 q 798 1315 828 1349 q 721 1282 768 1282 q 666 1297 690 1282 q 621 1328 642 1311 q 584 1354 603 1343 q 546 1365 565 1365 q 497 1345 515 1365 q 468 1279 479 1325 z "},"Ȁ":{"ha":994,"x_min":-4,"x_max":893,"o":"m -4 0 l 572 979 l 628 979 l 893 0 l 835 0 l 758 283 l 792 271 l 186 271 l 231 283 l 64 0 l -4 0 m 590 900 l 250 317 l 218 325 l 776 325 l 749 317 l 593 900 l 590 900 m 674 1063 l 539 1299 l 610 1299 l 711 1063 l 674 1063 m 522 1063 l 389 1299 l 460 1299 l 560 1063 l 522 1063 z "},"Ä":{"ha":994,"x_min":-4,"x_max":893,"o":"m -4 0 l 572 979 l 628 979 l 893 0 l 835 0 l 758 283 l 792 271 l 186 271 l 231 283 l 64 0 l -4 0 m 590 900 l 250 317 l 218 325 l 776 325 l 749 317 l 593 900 l 590 900 m 697 1139 l 711 1222 l 796 1222 l 782 1139 l 697 1139 m 474 1139 l 488 1222 l 572 1222 l 558 1139 l 474 1139 z "},"Ȧ":{"ha":994,"x_min":-4,"x_max":893,"o":"m -4 0 l 572 979 l 628 979 l 893 0 l 835 0 l 758 283 l 792 271 l 186 271 l 231 283 l 64 0 l -4 0 m 590 900 l 250 317 l 218 325 l 776 325 l 749 317 l 593 900 l 590 900 m 585 1136 l 599 1224 l 685 1224 l 671 1136 l 585 1136 z "},"Ạ":{"ha":994,"x_min":-4,"x_max":893,"o":"m -4 0 l 572 979 l 628 979 l 893 0 l 835 0 l 758 283 l 792 271 l 186 271 l 231 283 l 64 0 l -4 0 m 590 900 l 250 317 l 218 325 l 776 325 l 749 317 l 593 900 l 590 900 m 386 -239 l 400 -151 l 489 -151 l 475 -239 l 386 -239 z "},"À":{"ha":994,"x_min":-4,"x_max":893,"o":"m -4 0 l 572 979 l 628 979 l 893 0 l 835 0 l 758 283 l 792 271 l 186 271 l 231 283 l 64 0 l -4 0 m 590 900 l 250 317 l 218 325 l 776 325 l 749 317 l 593 900 l 590 900 m 590 1063 l 421 1299 l 497 1299 l 643 1063 l 590 1063 z "},"Ả":{"ha":994,"x_min":-4,"x_max":893,"o":"m -4 0 l 572 979 l 628 979 l 893 0 l 835 0 l 758 283 l 792 271 l 186 271 l 231 283 l 64 0 l -4 0 m 590 900 l 250 317 l 218 325 l 776 325 l 749 317 l 593 900 l 590 900 m 590 1063 l 593 1082 q 615 1133 597 1114 q 651 1165 632 1153 q 685 1191 671 1178 q 700 1224 700 1204 q 684 1247 700 1239 q 632 1256 668 1256 q 589 1251 611 1256 q 539 1233 567 1246 l 531 1279 q 583 1299 554 1292 q 642 1306 611 1306 q 727 1285 697 1306 q 757 1229 757 1264 q 741 1179 757 1197 q 703 1149 725 1161 q 665 1120 682 1136 q 644 1076 647 1104 l 643 1063 l 590 1063 z "},"Ȃ":{"ha":994,"x_min":-4,"x_max":893,"o":"m -4 0 l 572 979 l 628 979 l 893 0 l 835 0 l 758 283 l 792 271 l 186 271 l 231 283 l 64 0 l -4 0 m 590 900 l 250 317 l 218 325 l 776 325 l 749 317 l 593 900 l 590 900 m 435 1056 l 389 1061 q 472 1231 407 1169 q 626 1293 538 1293 q 731 1265 686 1293 q 802 1185 776 1238 q 825 1061 828 1133 l 779 1056 q 740 1194 783 1146 q 622 1243 696 1243 q 499 1194 549 1243 q 435 1056 449 1146 z "},"Ā":{"ha":994,"x_min":-4,"x_max":893,"o":"m -4 0 l 572 979 l 628 979 l 893 0 l 835 0 l 758 283 l 792 271 l 186 271 l 231 283 l 64 0 l -4 0 m 590 900 l 250 317 l 218 325 l 776 325 l 749 317 l 593 900 l 590 900 m 414 1142 l 422 1194 l 853 1194 l 844 1142 l 414 1142 z "},"Ą":{"ha":994,"x_min":-4,"x_max":946,"o":"m -4 0 l 572 979 l 628 979 l 893 0 l 835 0 l 758 283 l 792 271 l 186 271 l 231 283 l 64 0 l -4 0 m 590 900 l 250 317 l 218 325 l 776 325 l 749 317 l 593 900 l 590 900 m 851 -264 q 760 -230 792 -264 q 728 -143 728 -196 q 767 -33 728 -82 q 868 43 807 17 l 893 0 q 831 -37 856 -15 q 794 -84 807 -58 q 782 -137 782 -110 q 801 -193 782 -172 q 858 -214 819 -214 q 894 -210 875 -214 q 933 -196 913 -206 l 946 -243 q 906 -257 932 -250 q 851 -264 879 -264 z "},"Å":{"ha":994,"x_min":-4,"x_max":893,"o":"m -4 0 l 572 979 l 628 979 l 893 0 l 835 0 l 758 283 l 792 271 l 186 271 l 231 283 l 64 0 l -4 0 m 590 900 l 250 317 l 218 325 l 776 325 l 749 317 l 593 900 l 590 900 m 640 1056 q 562 1076 597 1056 q 506 1132 526 1097 q 485 1208 485 1167 q 506 1285 485 1251 q 562 1340 526 1319 q 640 1361 597 1361 q 719 1340 685 1361 q 775 1285 754 1319 q 796 1208 796 1251 q 775 1132 796 1167 q 719 1076 754 1097 q 640 1056 685 1056 m 640 1100 q 719 1131 689 1100 q 749 1208 749 1163 q 719 1285 749 1254 q 640 1317 689 1317 q 563 1285 593 1317 q 532 1208 532 1254 q 563 1131 532 1163 q 640 1100 593 1100 z "},"Ǻ":{"ha":994,"x_min":-4,"x_max":900,"o":"m -4 0 l 572 979 l 628 979 l 893 0 l 835 0 l 758 283 l 792 271 l 186 271 l 231 283 l 64 0 l -4 0 m 590 900 l 250 317 l 218 325 l 776 325 l 749 317 l 593 900 l 590 900 m 615 1056 q 537 1076 572 1056 q 481 1132 501 1097 q 460 1208 460 1167 q 481 1285 460 1251 q 537 1340 501 1319 q 615 1361 572 1361 q 667 1353 643 1361 q 710 1331 690 1346 l 815 1429 l 900 1429 l 743 1297 q 764 1256 757 1279 q 771 1208 771 1233 q 750 1132 771 1167 q 694 1076 729 1097 q 615 1056 660 1056 m 615 1100 q 694 1131 664 1100 q 724 1208 724 1163 q 694 1285 724 1254 q 615 1317 664 1317 q 538 1285 568 1317 q 507 1208 507 1254 q 538 1131 507 1163 q 615 1100 568 1100 z "},"Ã":{"ha":994,"x_min":-4,"x_max":901,"o":"m -4 0 l 572 979 l 628 979 l 893 0 l 835 0 l 758 283 l 792 271 l 186 271 l 231 283 l 64 0 l -4 0 m 590 900 l 250 317 l 218 325 l 776 325 l 749 317 l 593 900 l 590 900 m 388 1100 l 343 1103 q 376 1194 354 1157 q 429 1251 397 1232 q 501 1271 461 1271 q 576 1250 542 1271 q 643 1206 611 1229 q 696 1169 671 1185 q 747 1153 721 1153 q 816 1184 789 1153 q 857 1274 843 1215 l 901 1271 q 846 1147 886 1190 q 744 1103 806 1103 q 669 1124 704 1103 q 601 1168 633 1146 q 549 1205 575 1189 q 497 1221 522 1221 q 428 1190 456 1221 q 388 1100 401 1158 z "},"Æ":{"ha":1349,"x_min":-51,"x_max":1382,"o":"m -51 0 l 688 979 l 1382 979 l 1374 925 l 731 925 l 747 958 l 771 508 l 747 524 l 1282 524 l 1274 469 l 750 469 l 772 483 l 794 28 l 769 54 l 1236 54 l 1226 0 l 742 0 l 728 288 l 753 271 l 204 271 l 233 288 l 17 0 l -51 0 m 693 900 l 251 311 l 240 325 l 736 325 l 726 313 l 696 900 l 693 900 z "},"Ǽ":{"ha":1349,"x_min":-51,"x_max":1382,"o":"m -51 0 l 688 979 l 1382 979 l 1374 925 l 731 925 l 747 958 l 771 508 l 747 524 l 1282 524 l 1274 469 l 750 469 l 772 483 l 794 28 l 769 54 l 1236 54 l 1226 0 l 742 0 l 728 288 l 753 271 l 204 271 l 233 288 l 17 0 l -51 0 m 693 900 l 251 311 l 240 325 l 736 325 l 726 313 l 696 900 l 693 900 m 743 1063 l 925 1299 l 1004 1299 l 796 1063 l 743 1063 z "},"B":{"ha":925,"x_min":81,"x_max":868,"o":"m 81 0 l 236 979 l 579 979 q 740 952 675 979 q 836 874 804 925 q 868 751 868 822 q 799 570 868 640 q 615 485 731 500 l 615 504 q 723 465 678 494 q 792 391 768 436 q 817 288 817 346 q 778 128 817 193 q 665 32 739 64 q 481 0 590 0 l 81 0 m 149 54 l 486 54 q 583 64 540 54 q 658 92 626 74 q 712 139 690 111 q 744 203 733 167 q 756 286 756 240 q 740 365 756 331 q 696 422 725 399 q 624 456 667 444 q 526 468 582 468 l 214 468 l 149 54 m 222 522 l 538 522 q 734 581 661 522 q 807 750 807 640 q 750 881 807 836 q 575 925 693 925 l 286 925 l 222 522 z "},"Ɓ":{"ha":1065,"x_min":58,"x_max":1008,"o":"m 221 0 l 368 925 l 314 925 q 183 889 229 925 q 122 761 138 853 l 113 703 l 58 703 l 68 765 q 142 926 85 872 q 324 979 199 979 l 719 979 q 879 952 815 979 q 976 874 943 925 q 1008 751 1008 822 q 940 570 1008 640 q 756 485 871 500 l 756 504 q 863 465 818 494 q 933 391 908 436 q 957 288 957 346 q 918 128 957 193 q 805 32 879 64 q 621 0 731 0 l 221 0 m 289 54 l 626 54 q 828 113 761 54 q 896 286 896 172 q 881 365 896 331 q 836 422 865 399 q 765 456 807 444 q 667 468 722 468 l 354 468 l 289 54 m 363 522 l 678 522 q 874 581 801 522 q 947 750 947 640 q 890 881 947 836 q 715 925 833 925 l 426 925 l 363 522 z "},"C":{"ha":926,"x_min":115,"x_max":921,"o":"m 515 -11 q 306 35 396 -11 q 165 178 215 82 q 115 424 115 274 q 149 648 115 544 q 247 828 183 751 q 401 947 311 904 q 603 990 490 990 q 786 956 706 990 q 921 858 867 921 l 886 810 q 760 903 829 874 q 599 933 692 933 q 375 867 469 933 q 229 686 281 801 q 178 422 178 571 q 219 204 178 288 q 338 83 261 121 q 517 46 414 46 q 670 75 603 46 q 806 168 738 104 l 839 121 q 744 48 794 78 q 636 3 693 18 q 515 -11 579 -11 z "},"Ć":{"ha":926,"x_min":115,"x_max":921,"o":"m 515 -11 q 306 35 396 -11 q 165 178 215 82 q 115 424 115 274 q 149 648 115 544 q 247 828 183 751 q 401 947 311 904 q 603 990 490 990 q 786 956 706 990 q 921 858 867 921 l 886 810 q 760 903 829 874 q 599 933 692 933 q 375 867 469 933 q 229 686 281 801 q 178 422 178 571 q 219 204 178 288 q 338 83 261 121 q 517 46 414 46 q 670 75 603 46 q 806 168 738 104 l 839 121 q 744 48 794 78 q 636 3 693 18 q 515 -11 579 -11 m 589 1063 l 771 1299 l 850 1299 l 642 1063 l 589 1063 z "},"Č":{"ha":926,"x_min":115,"x_max":921,"o":"m 515 -11 q 306 35 396 -11 q 165 178 215 82 q 115 424 115 274 q 149 648 115 544 q 247 828 183 751 q 401 947 311 904 q 603 990 490 990 q 786 956 706 990 q 921 858 867 921 l 886 810 q 760 903 829 874 q 599 933 692 933 q 375 867 469 933 q 229 686 281 801 q 178 422 178 571 q 219 204 178 288 q 338 83 261 121 q 517 46 414 46 q 670 75 603 46 q 806 168 738 104 l 839 121 q 744 48 794 78 q 636 3 693 18 q 515 -11 579 -11 m 582 1063 l 439 1299 l 489 1299 l 615 1115 l 789 1299 l 842 1299 l 649 1063 l 582 1063 z "},"Ç":{"ha":926,"x_min":115,"x_max":921,"o":"m 515 -11 q 306 35 396 -11 q 165 178 215 82 q 115 424 115 274 q 149 648 115 544 q 247 828 183 751 q 401 947 311 904 q 603 990 490 990 q 786 956 706 990 q 921 858 867 921 l 886 810 q 760 903 829 874 q 599 933 692 933 q 375 867 469 933 q 229 686 281 801 q 178 422 178 571 q 219 204 178 288 q 338 83 261 121 q 517 46 414 46 q 670 75 603 46 q 806 168 738 104 l 839 121 q 744 48 794 78 q 636 3 693 18 q 515 -11 579 -11 m 481 -264 q 420 -257 449 -264 q 374 -239 392 -250 l 390 -192 q 436 -209 415 -204 q 490 -214 457 -214 q 556 -198 529 -214 q 582 -151 582 -182 q 569 -121 582 -132 q 533 -110 557 -110 q 501 -112 518 -110 q 460 -124 485 -115 l 442 -106 l 485 28 l 538 28 l 503 -76 l 478 -74 q 512 -67 496 -69 q 542 -64 528 -64 q 591 -74 569 -64 q 625 -102 613 -83 q 638 -147 638 -121 q 593 -231 638 -199 q 481 -264 549 -264 z "},"Ḉ":{"ha":926,"x_min":115,"x_max":921,"o":"m 515 -11 q 306 35 396 -11 q 165 178 215 82 q 115 424 115 274 q 149 648 115 544 q 247 828 183 751 q 401 947 311 904 q 603 990 490 990 q 786 956 706 990 q 921 858 867 921 l 886 810 q 760 903 829 874 q 599 933 692 933 q 375 867 469 933 q 229 686 281 801 q 178 422 178 571 q 219 204 178 288 q 338 83 261 121 q 517 46 414 46 q 670 75 603 46 q 806 168 738 104 l 839 121 q 744 48 794 78 q 636 3 693 18 q 515 -11 579 -11 m 481 -264 q 420 -257 449 -264 q 374 -239 392 -250 l 390 -192 q 436 -209 415 -204 q 490 -214 457 -214 q 556 -198 529 -214 q 582 -151 582 -182 q 569 -121 582 -132 q 533 -110 557 -110 q 501 -112 518 -110 q 460 -124 485 -115 l 442 -106 l 485 28 l 538 28 l 503 -76 l 478 -74 q 512 -67 496 -69 q 542 -64 528 -64 q 591 -74 569 -64 q 625 -102 613 -83 q 638 -147 638 -121 q 593 -231 638 -199 q 481 -264 549 -264 m 589 1063 l 771 1299 l 850 1299 l 642 1063 l 589 1063 z "},"Ĉ":{"ha":926,"x_min":115,"x_max":921,"o":"m 515 -11 q 306 35 396 -11 q 165 178 215 82 q 115 424 115 274 q 149 648 115 544 q 247 828 183 751 q 401 947 311 904 q 603 990 490 990 q 786 956 706 990 q 921 858 867 921 l 886 810 q 760 903 829 874 q 599 933 692 933 q 375 867 469 933 q 229 686 281 801 q 178 422 178 571 q 219 204 178 288 q 338 83 261 121 q 517 46 414 46 q 670 75 603 46 q 806 168 738 104 l 839 121 q 744 48 794 78 q 636 3 693 18 q 515 -11 579 -11 m 401 1063 l 594 1299 l 661 1299 l 804 1063 l 753 1063 l 625 1246 l 453 1063 l 401 1063 z "},"Ċ":{"ha":926,"x_min":115,"x_max":921,"o":"m 515 -11 q 306 35 396 -11 q 165 178 215 82 q 115 424 115 274 q 149 648 115 544 q 247 828 183 751 q 401 947 311 904 q 603 990 490 990 q 786 956 706 990 q 921 858 867 921 l 886 810 q 760 903 829 874 q 599 933 692 933 q 375 867 469 933 q 229 686 281 801 q 178 422 178 571 q 219 204 178 288 q 338 83 261 121 q 517 46 414 46 q 670 75 603 46 q 806 168 738 104 l 839 121 q 744 48 794 78 q 636 3 693 18 q 515 -11 579 -11 m 583 1136 l 597 1224 l 683 1224 l 669 1136 l 583 1136 z "},"D":{"ha":1007,"x_min":81,"x_max":943,"o":"m 81 0 l 236 979 l 500 979 q 828 874 713 979 q 943 578 943 769 q 912 356 943 460 q 814 172 881 251 q 644 46 747 92 q 394 0 540 0 l 81 0 m 147 54 l 397 54 q 623 96 531 54 q 772 211 715 138 q 855 379 829 285 q 881 578 881 474 q 785 836 881 747 q 499 925 689 925 l 286 925 l 147 54 z "},"Ǆ":{"ha":1785,"x_min":81,"x_max":1836,"o":"m 81 0 l 236 979 l 500 979 q 828 874 713 979 q 943 578 943 769 q 912 356 943 460 q 814 172 881 251 q 644 46 747 92 q 394 0 540 0 l 81 0 m 147 54 l 397 54 q 623 96 531 54 q 772 211 715 138 q 855 379 829 285 q 881 578 881 474 q 785 836 881 747 q 499 925 689 925 l 286 925 l 147 54 m 1001 0 l 1008 43 l 1772 957 l 1772 925 l 1147 925 l 1157 979 l 1836 979 l 1829 936 l 1064 22 l 1064 54 l 1708 54 l 1700 0 l 1001 0 m 1472 1063 l 1329 1299 l 1379 1299 l 1506 1115 l 1679 1299 l 1732 1299 l 1539 1063 l 1472 1063 z "},"Ð":{"ha":1007,"x_min":31,"x_max":943,"o":"m 81 0 l 236 979 l 500 979 q 828 874 713 979 q 943 578 943 769 q 912 356 943 460 q 814 172 881 251 q 644 46 747 92 q 394 0 540 0 l 81 0 m 147 54 l 397 54 q 623 96 531 54 q 772 211 715 138 q 855 379 829 285 q 881 578 881 474 q 785 836 881 747 q 499 925 689 925 l 286 925 l 147 54 m 31 472 l 39 524 l 503 524 l 494 472 l 31 472 z "},"Ď":{"ha":1007,"x_min":81,"x_max":943,"o":"m 81 0 l 236 979 l 500 979 q 828 874 713 979 q 943 578 943 769 q 912 356 943 460 q 814 172 881 251 q 644 46 747 92 q 394 0 540 0 l 81 0 m 147 54 l 397 54 q 623 96 531 54 q 772 211 715 138 q 855 379 829 285 q 881 578 881 474 q 785 836 881 747 q 499 925 689 925 l 286 925 l 147 54 m 572 1063 l 429 1299 l 479 1299 l 606 1115 l 779 1299 l 832 1299 l 639 1063 l 572 1063 z "},"Đ":{"ha":1007,"x_min":31,"x_max":943,"o":"m 81 0 l 236 979 l 500 979 q 828 874 713 979 q 943 578 943 769 q 912 356 943 460 q 814 172 881 251 q 644 46 747 92 q 394 0 540 0 l 81 0 m 147 54 l 397 54 q 623 96 531 54 q 772 211 715 138 q 855 379 829 285 q 881 578 881 474 q 785 836 881 747 q 499 925 689 925 l 286 925 l 147 54 m 31 472 l 39 524 l 503 524 l 494 472 l 31 472 z "},"Ḍ":{"ha":1007,"x_min":81,"x_max":943,"o":"m 81 0 l 236 979 l 500 979 q 828 874 713 979 q 943 578 943 769 q 912 356 943 460 q 814 172 881 251 q 644 46 747 92 q 394 0 540 0 l 81 0 m 147 54 l 397 54 q 623 96 531 54 q 772 211 715 138 q 855 379 829 285 q 881 578 881 474 q 785 836 881 747 q 499 925 689 925 l 286 925 l 147 54 m 369 -239 l 383 -151 l 472 -151 l 458 -239 l 369 -239 z "},"Ɗ":{"ha":1147,"x_min":58,"x_max":1083,"o":"m 221 0 l 368 925 l 314 925 q 183 889 229 925 q 122 761 138 853 l 113 703 l 58 703 l 68 765 q 142 926 85 872 q 324 979 199 979 l 640 979 q 968 874 853 979 q 1083 578 1083 769 q 1052 356 1083 460 q 954 172 1021 251 q 784 46 888 92 q 535 0 681 0 l 221 0 m 288 54 l 538 54 q 763 96 671 54 q 913 211 856 138 q 995 379 969 285 q 1021 578 1021 474 q 925 836 1021 747 q 639 925 829 925 l 425 925 l 288 54 z "},"Ḏ":{"ha":1007,"x_min":81,"x_max":943,"o":"m 81 0 l 236 979 l 500 979 q 828 874 713 979 q 943 578 943 769 q 912 356 943 460 q 814 172 881 251 q 644 46 747 92 q 394 0 540 0 l 81 0 m 147 54 l 397 54 q 623 96 531 54 q 772 211 715 138 q 855 379 829 285 q 881 578 881 474 q 785 836 881 747 q 499 925 689 925 l 286 925 l 147 54 m 225 -206 l 233 -153 l 622 -153 l 614 -206 l 225 -206 z "},"ǅ":{"ha":1638,"x_min":81,"x_max":1629,"o":"m 81 0 l 236 979 l 500 979 q 828 874 713 979 q 943 578 943 769 q 912 356 943 460 q 814 172 881 251 q 644 46 747 92 q 394 0 540 0 l 81 0 m 147 54 l 397 54 q 623 96 531 54 q 772 211 715 138 q 855 379 829 285 q 881 578 881 474 q 785 836 881 747 q 499 925 689 925 l 286 925 l 147 54 m 1038 0 l 1044 40 l 1561 640 l 1565 624 l 1136 624 l 1144 672 l 1629 672 l 1622 632 l 1104 31 l 1100 49 l 1546 49 l 1538 0 l 1038 0 m 1361 763 l 1240 1040 l 1288 1040 l 1397 817 l 1560 1040 l 1610 1040 l 1428 763 l 1361 763 z "},"E":{"ha":792,"x_min":81,"x_max":825,"o":"m 81 0 l 236 979 l 825 979 l 817 925 l 286 925 l 222 524 l 725 524 l 717 469 l 213 469 l 147 54 l 678 54 l 669 0 l 81 0 z "},"É":{"ha":792,"x_min":81,"x_max":825,"o":"m 81 0 l 236 979 l 825 979 l 817 925 l 286 925 l 222 524 l 725 524 l 717 469 l 213 469 l 147 54 l 678 54 l 669 0 l 81 0 m 538 1063 l 719 1299 l 799 1299 l 590 1063 l 538 1063 z "},"Ĕ":{"ha":792,"x_min":81,"x_max":825,"o":"m 81 0 l 236 979 l 825 979 l 817 925 l 286 925 l 222 524 l 725 524 l 717 469 l 213 469 l 147 54 l 678 54 l 669 0 l 81 0 m 568 1056 q 464 1083 510 1056 q 393 1163 418 1111 q 369 1288 368 1215 l 415 1293 q 455 1155 411 1204 q 572 1106 499 1106 q 696 1155 646 1106 q 760 1293 746 1204 l 806 1288 q 722 1117 788 1179 q 568 1056 657 1056 z "},"Ě":{"ha":792,"x_min":81,"x_max":825,"o":"m 81 0 l 236 979 l 825 979 l 817 925 l 286 925 l 222 524 l 725 524 l 717 469 l 213 469 l 147 54 l 678 54 l 669 0 l 81 0 m 531 1063 l 388 1299 l 438 1299 l 564 1115 l 738 1299 l 790 1299 l 597 1063 l 531 1063 z "},"Ȩ":{"ha":792,"x_min":81,"x_max":825,"o":"m 81 0 l 236 979 l 825 979 l 817 925 l 286 925 l 222 524 l 725 524 l 717 469 l 213 469 l 147 54 l 678 54 l 669 0 l 81 0 m 376 -264 q 316 -257 344 -264 q 269 -239 288 -250 l 286 -192 q 332 -209 311 -204 q 386 -214 353 -214 q 451 -198 425 -214 q 478 -151 478 -182 q 465 -121 478 -132 q 429 -110 453 -110 q 397 -112 414 -110 q 356 -124 381 -115 l 338 -106 l 381 28 l 433 28 l 399 -76 l 374 -74 q 408 -67 392 -69 q 438 -64 424 -64 q 487 -74 465 -64 q 521 -102 508 -83 q 533 -147 533 -121 q 489 -231 533 -199 q 376 -264 444 -264 z "},"Ḝ":{"ha":792,"x_min":81,"x_max":825,"o":"m 81 0 l 236 979 l 825 979 l 817 925 l 286 925 l 222 524 l 725 524 l 717 469 l 213 469 l 147 54 l 678 54 l 669 0 l 81 0 m 376 -264 q 316 -257 344 -264 q 269 -239 288 -250 l 286 -192 q 332 -209 311 -204 q 386 -214 353 -214 q 451 -198 425 -214 q 478 -151 478 -182 q 465 -121 478 -132 q 429 -110 453 -110 q 397 -112 414 -110 q 356 -124 381 -115 l 338 -106 l 381 28 l 433 28 l 399 -76 l 374 -74 q 408 -67 392 -69 q 438 -64 424 -64 q 487 -74 465 -64 q 521 -102 508 -83 q 533 -147 533 -121 q 489 -231 533 -199 q 376 -264 444 -264 m 568 1056 q 464 1083 510 1056 q 393 1163 418 1111 q 369 1288 368 1215 l 415 1293 q 455 1155 411 1204 q 572 1106 499 1106 q 696 1155 646 1106 q 760 1293 746 1204 l 806 1288 q 722 1117 788 1179 q 568 1056 657 1056 z "},"Ê":{"ha":792,"x_min":81,"x_max":825,"o":"m 81 0 l 236 979 l 825 979 l 817 925 l 286 925 l 222 524 l 725 524 l 717 469 l 213 469 l 147 54 l 678 54 l 669 0 l 81 0 m 350 1063 l 543 1299 l 610 1299 l 753 1063 l 701 1063 l 574 1246 l 401 1063 l 350 1063 z "},"Ế":{"ha":792,"x_min":81,"x_max":897,"o":"m 81 0 l 236 979 l 825 979 l 817 925 l 286 925 l 222 524 l 725 524 l 717 469 l 213 469 l 147 54 l 678 54 l 669 0 l 81 0 m 372 1063 l 543 1285 l 610 1285 l 742 1063 l 694 1063 l 574 1233 l 419 1063 l 372 1063 m 682 1203 l 821 1411 l 897 1411 l 732 1203 l 682 1203 z "},"Ệ":{"ha":792,"x_min":81,"x_max":825,"o":"m 81 0 l 236 979 l 825 979 l 817 925 l 286 925 l 222 524 l 725 524 l 717 469 l 213 469 l 147 54 l 678 54 l 669 0 l 81 0 m 319 -239 l 333 -151 l 422 -151 l 408 -239 l 319 -239 m 350 1063 l 543 1299 l 610 1299 l 753 1063 l 701 1063 l 574 1246 l 401 1063 l 350 1063 z "},"Ề":{"ha":792,"x_min":81,"x_max":825,"o":"m 81 0 l 236 979 l 825 979 l 817 925 l 286 925 l 222 524 l 725 524 l 717 469 l 213 469 l 147 54 l 678 54 l 669 0 l 81 0 m 372 1063 l 543 1285 l 610 1285 l 742 1063 l 694 1063 l 574 1233 l 419 1063 l 372 1063 m 739 1203 l 610 1411 l 683 1411 l 789 1203 l 739 1203 z "},"Ể":{"ha":792,"x_min":81,"x_max":858,"o":"m 81 0 l 236 979 l 825 979 l 817 925 l 286 925 l 222 524 l 725 524 l 717 469 l 213 469 l 147 54 l 678 54 l 669 0 l 81 0 m 372 1063 l 543 1285 l 610 1285 l 742 1063 l 694 1063 l 574 1233 l 419 1063 l 372 1063 m 699 1203 q 717 1257 701 1238 q 753 1288 733 1276 q 789 1312 774 1300 q 804 1343 804 1324 q 787 1365 804 1358 q 744 1371 769 1371 q 694 1366 721 1371 q 644 1354 667 1361 l 636 1394 q 687 1411 660 1406 q 743 1417 714 1417 q 828 1399 799 1417 q 858 1350 858 1382 q 842 1302 858 1319 q 804 1272 826 1285 q 765 1245 782 1260 q 746 1203 749 1231 l 699 1203 z "},"Ễ":{"ha":792,"x_min":81,"x_max":825,"o":"m 81 0 l 236 979 l 825 979 l 817 925 l 286 925 l 222 524 l 725 524 l 717 469 l 213 469 l 147 54 l 678 54 l 669 0 l 81 0 m 372 1063 l 539 1243 l 606 1243 l 742 1063 l 694 1063 l 569 1196 l 419 1063 l 372 1063 m 415 1279 l 371 1282 q 413 1382 382 1349 q 492 1415 444 1415 q 546 1401 522 1415 q 590 1369 569 1386 q 627 1344 610 1356 q 665 1332 644 1332 q 714 1352 697 1332 q 742 1418 731 1372 l 788 1415 q 745 1315 775 1349 q 668 1282 715 1282 q 613 1297 638 1282 q 568 1328 589 1311 q 531 1354 550 1343 q 493 1365 513 1365 q 444 1345 463 1365 q 415 1279 426 1325 z "},"Ȅ":{"ha":792,"x_min":81,"x_max":825,"o":"m 81 0 l 236 979 l 825 979 l 817 925 l 286 925 l 222 524 l 725 524 l 717 469 l 213 469 l 147 54 l 678 54 l 669 0 l 81 0 m 621 1063 l 486 1299 l 557 1299 l 658 1063 l 621 1063 m 469 1063 l 336 1299 l 407 1299 l 507 1063 l 469 1063 z "},"Ë":{"ha":792,"x_min":81,"x_max":825,"o":"m 81 0 l 236 979 l 825 979 l 817 925 l 286 925 l 222 524 l 725 524 l 717 469 l 213 469 l 147 54 l 678 54 l 669 0 l 81 0 m 644 1139 l 658 1222 l 743 1222 l 729 1139 l 644 1139 m 421 1139 l 435 1222 l 519 1222 l 506 1139 l 421 1139 z "},"Ė":{"ha":792,"x_min":81,"x_max":825,"o":"m 81 0 l 236 979 l 825 979 l 817 925 l 286 925 l 222 524 l 725 524 l 717 469 l 213 469 l 147 54 l 678 54 l 669 0 l 81 0 m 532 1136 l 546 1224 l 632 1224 l 618 1136 l 532 1136 z "},"Ẹ":{"ha":792,"x_min":81,"x_max":825,"o":"m 81 0 l 236 979 l 825 979 l 817 925 l 286 925 l 222 524 l 725 524 l 717 469 l 213 469 l 147 54 l 678 54 l 669 0 l 81 0 m 319 -239 l 333 -151 l 422 -151 l 408 -239 l 319 -239 z "},"È":{"ha":792,"x_min":81,"x_max":825,"o":"m 81 0 l 236 979 l 825 979 l 817 925 l 286 925 l 222 524 l 725 524 l 717 469 l 213 469 l 147 54 l 678 54 l 669 0 l 81 0 m 538 1063 l 368 1299 l 444 1299 l 590 1063 l 538 1063 z "},"Ẻ":{"ha":792,"x_min":81,"x_max":825,"o":"m 81 0 l 236 979 l 825 979 l 817 925 l 286 925 l 222 524 l 725 524 l 717 469 l 213 469 l 147 54 l 678 54 l 669 0 l 81 0 m 538 1063 l 540 1082 q 562 1133 544 1114 q 599 1165 579 1153 q 633 1191 618 1178 q 647 1224 647 1204 q 631 1247 647 1239 q 579 1256 615 1256 q 536 1251 558 1256 q 486 1233 514 1246 l 478 1279 q 530 1299 501 1292 q 589 1306 558 1306 q 674 1285 644 1306 q 704 1229 704 1264 q 688 1179 704 1197 q 651 1149 672 1161 q 612 1120 629 1136 q 592 1076 594 1104 l 590 1063 l 538 1063 z "},"Ȇ":{"ha":792,"x_min":81,"x_max":825,"o":"m 81 0 l 236 979 l 825 979 l 817 925 l 286 925 l 222 524 l 725 524 l 717 469 l 213 469 l 147 54 l 678 54 l 669 0 l 81 0 m 382 1056 l 336 1061 q 419 1231 354 1169 q 574 1293 485 1293 q 678 1265 633 1293 q 749 1185 724 1238 q 772 1061 775 1133 l 726 1056 q 687 1194 731 1146 q 569 1243 643 1243 q 446 1194 496 1243 q 382 1056 396 1146 z "},"Ē":{"ha":792,"x_min":81,"x_max":825,"o":"m 81 0 l 236 979 l 825 979 l 817 925 l 286 925 l 222 524 l 725 524 l 717 469 l 213 469 l 147 54 l 678 54 l 669 0 l 81 0 m 361 1142 l 369 1194 l 800 1194 l 792 1142 l 361 1142 z "},"Ḗ":{"ha":792,"x_min":81,"x_max":825,"o":"m 81 0 l 236 979 l 825 979 l 817 925 l 286 925 l 222 524 l 725 524 l 717 469 l 213 469 l 147 54 l 678 54 l 669 0 l 81 0 m 375 1106 l 383 1158 l 772 1158 l 764 1106 l 375 1106 m 561 1210 l 715 1418 l 792 1418 l 611 1210 l 561 1210 z "},"Ḕ":{"ha":792,"x_min":81,"x_max":825,"o":"m 81 0 l 236 979 l 825 979 l 817 925 l 286 925 l 222 524 l 725 524 l 717 469 l 213 469 l 147 54 l 678 54 l 669 0 l 81 0 m 561 1210 l 419 1418 l 493 1418 l 611 1210 l 561 1210 m 375 1106 l 383 1158 l 772 1158 l 764 1106 l 375 1106 z "},"Ę":{"ha":792,"x_min":81,"x_max":825,"o":"m 81 0 l 236 979 l 825 979 l 817 925 l 286 925 l 222 524 l 725 524 l 717 469 l 213 469 l 147 54 l 678 54 l 669 0 l 81 0 m 582 -264 q 490 -230 522 -264 q 458 -143 458 -196 q 498 -33 458 -82 q 599 43 538 17 l 624 0 q 562 -37 586 -15 q 525 -84 538 -58 q 513 -137 513 -110 q 531 -193 513 -172 q 589 -214 550 -214 q 624 -210 606 -214 q 664 -196 643 -206 l 676 -243 q 636 -257 663 -250 q 582 -264 610 -264 z "},"Ẽ":{"ha":792,"x_min":81,"x_max":849,"o":"m 81 0 l 236 979 l 825 979 l 817 925 l 286 925 l 222 524 l 725 524 l 717 469 l 213 469 l 147 54 l 678 54 l 669 0 l 81 0 m 335 1100 l 290 1103 q 323 1194 301 1157 q 376 1251 344 1232 q 449 1271 408 1271 q 524 1250 489 1271 q 590 1206 558 1229 q 643 1169 618 1185 q 694 1153 668 1153 q 763 1184 736 1153 q 804 1274 790 1215 l 849 1271 q 793 1147 833 1190 q 692 1103 753 1103 q 616 1124 651 1103 q 549 1168 581 1146 q 496 1205 522 1189 q 444 1221 469 1221 q 376 1190 403 1221 q 335 1100 349 1158 z "},"Ə":{"ha":1043,"x_min":101,"x_max":978,"o":"m 489 -11 q 298 31 376 -11 q 175 143 219 72 q 116 303 131 214 q 115 485 101 392 l 121 522 l 919 522 l 911 468 l 157 468 l 176 490 q 185 268 160 369 q 286 106 210 167 q 497 46 363 46 q 726 116 633 46 q 867 307 819 186 q 915 578 915 428 q 872 765 915 685 q 750 889 829 844 q 563 933 671 933 q 424 921 485 933 q 313 881 364 908 q 213 810 263 854 l 186 860 q 292 934 233 906 q 420 976 350 963 q 572 990 490 990 q 784 937 693 990 q 926 790 875 883 q 978 578 978 697 q 944 338 978 446 q 848 151 911 229 q 694 31 785 74 q 489 -11 604 -11 z "},"F":{"ha":744,"x_min":81,"x_max":811,"o":"m 81 0 l 236 979 l 811 979 l 803 925 l 286 925 l 222 524 l 711 524 l 703 469 l 214 469 l 139 0 l 81 0 z "},"G":{"ha":997,"x_min":114,"x_max":926,"o":"m 533 -11 q 305 36 399 -11 q 163 176 211 83 q 114 401 114 268 q 148 643 114 535 q 246 829 182 751 q 399 949 310 907 q 601 990 489 990 q 731 975 671 990 q 840 930 790 960 q 926 858 889 900 l 892 810 q 762 903 832 874 q 597 933 692 933 q 374 869 468 933 q 228 685 279 804 q 176 401 176 565 q 267 133 176 221 q 536 46 358 46 q 678 60 615 46 q 796 94 740 74 l 771 49 l 833 439 l 564 439 l 572 493 l 897 493 l 826 44 q 745 17 793 29 q 643 -3 697 4 q 533 -11 589 -11 z "},"Ğ":{"ha":997,"x_min":114,"x_max":926,"o":"m 533 -11 q 305 36 399 -11 q 163 176 211 83 q 114 401 114 268 q 148 643 114 535 q 246 829 182 751 q 399 949 310 907 q 601 990 489 990 q 731 975 671 990 q 840 930 790 960 q 926 858 889 900 l 892 810 q 762 903 832 874 q 597 933 692 933 q 374 869 468 933 q 228 685 279 804 q 176 401 176 565 q 267 133 176 221 q 536 46 358 46 q 678 60 615 46 q 796 94 740 74 l 771 49 l 833 439 l 564 439 l 572 493 l 897 493 l 826 44 q 745 17 793 29 q 643 -3 697 4 q 533 -11 589 -11 m 621 1056 q 517 1083 563 1056 q 446 1163 471 1111 q 422 1288 421 1215 l 468 1293 q 508 1155 464 1204 q 625 1106 551 1106 q 749 1155 699 1106 q 813 1293 799 1204 l 858 1288 q 775 1117 840 1179 q 621 1056 710 1056 z "},"Ǧ":{"ha":997,"x_min":114,"x_max":926,"o":"m 533 -11 q 305 36 399 -11 q 163 176 211 83 q 114 401 114 268 q 148 643 114 535 q 246 829 182 751 q 399 949 310 907 q 601 990 489 990 q 731 975 671 990 q 840 930 790 960 q 926 858 889 900 l 892 810 q 762 903 832 874 q 597 933 692 933 q 374 869 468 933 q 228 685 279 804 q 176 401 176 565 q 267 133 176 221 q 536 46 358 46 q 678 60 615 46 q 796 94 740 74 l 771 49 l 833 439 l 564 439 l 572 493 l 897 493 l 826 44 q 745 17 793 29 q 643 -3 697 4 q 533 -11 589 -11 m 583 1063 l 440 1299 l 490 1299 l 617 1115 l 790 1299 l 843 1299 l 650 1063 l 583 1063 z "},"Ĝ":{"ha":997,"x_min":114,"x_max":926,"o":"m 533 -11 q 305 36 399 -11 q 163 176 211 83 q 114 401 114 268 q 148 643 114 535 q 246 829 182 751 q 399 949 310 907 q 601 990 489 990 q 731 975 671 990 q 840 930 790 960 q 926 858 889 900 l 892 810 q 762 903 832 874 q 597 933 692 933 q 374 869 468 933 q 228 685 279 804 q 176 401 176 565 q 267 133 176 221 q 536 46 358 46 q 678 60 615 46 q 796 94 740 74 l 771 49 l 833 439 l 564 439 l 572 493 l 897 493 l 826 44 q 745 17 793 29 q 643 -3 697 4 q 533 -11 589 -11 m 403 1063 l 596 1299 l 663 1299 l 806 1063 l 754 1063 l 626 1246 l 454 1063 l 403 1063 z "},"Ģ":{"ha":997,"x_min":114,"x_max":926,"o":"m 533 -11 q 305 36 399 -11 q 163 176 211 83 q 114 401 114 268 q 148 643 114 535 q 246 829 182 751 q 399 949 310 907 q 601 990 489 990 q 731 975 671 990 q 840 930 790 960 q 926 858 889 900 l 892 810 q 762 903 832 874 q 597 933 692 933 q 374 869 468 933 q 228 685 279 804 q 176 401 176 565 q 267 133 176 221 q 536 46 358 46 q 678 60 615 46 q 796 94 740 74 l 771 49 l 833 439 l 564 439 l 572 493 l 897 493 l 826 44 q 745 17 793 29 q 643 -3 697 4 q 533 -11 589 -11 m 447 -360 l 419 -329 q 468 -268 457 -297 q 486 -200 479 -239 l 504 -210 l 435 -210 l 450 -119 l 547 -119 l 533 -204 q 505 -293 525 -254 q 447 -360 485 -332 z "},"Ġ":{"ha":997,"x_min":114,"x_max":926,"o":"m 533 -11 q 305 36 399 -11 q 163 176 211 83 q 114 401 114 268 q 148 643 114 535 q 246 829 182 751 q 399 949 310 907 q 601 990 489 990 q 731 975 671 990 q 840 930 790 960 q 926 858 889 900 l 892 810 q 762 903 832 874 q 597 933 692 933 q 374 869 468 933 q 228 685 279 804 q 176 401 176 565 q 267 133 176 221 q 536 46 358 46 q 678 60 615 46 q 796 94 740 74 l 771 49 l 833 439 l 564 439 l 572 493 l 897 493 l 826 44 q 745 17 793 29 q 643 -3 697 4 q 533 -11 589 -11 m 585 1136 l 599 1224 l 685 1224 l 671 1136 l 585 1136 z "},"Ḡ":{"ha":997,"x_min":114,"x_max":926,"o":"m 533 -11 q 305 36 399 -11 q 163 176 211 83 q 114 401 114 268 q 148 643 114 535 q 246 829 182 751 q 399 949 310 907 q 601 990 489 990 q 731 975 671 990 q 840 930 790 960 q 926 858 889 900 l 892 810 q 762 903 832 874 q 597 933 692 933 q 374 869 468 933 q 228 685 279 804 q 176 401 176 565 q 267 133 176 221 q 536 46 358 46 q 678 60 615 46 q 796 94 740 74 l 771 49 l 833 439 l 564 439 l 572 493 l 897 493 l 826 44 q 745 17 793 29 q 643 -3 697 4 q 533 -11 589 -11 m 414 1142 l 422 1194 l 853 1194 l 844 1142 l 414 1142 z "},"H":{"ha":1043,"x_min":81,"x_max":1011,"o":"m 81 0 l 236 979 l 294 979 l 222 524 l 881 524 l 953 979 l 1011 979 l 856 0 l 797 0 l 872 469 l 214 469 l 139 0 l 81 0 z "},"Ħ":{"ha":1085,"x_min":83,"x_max":1135,"o":"m 100 0 l 217 732 l 83 732 l 92 785 l 225 785 l 256 979 l 314 979 l 283 785 l 942 785 l 972 979 l 1031 979 l 1000 785 l 1135 785 l 1126 732 l 992 732 l 875 0 l 817 0 l 892 469 l 233 469 l 158 0 l 100 0 m 242 524 l 900 524 l 933 732 l 275 732 l 242 524 z "},"Ḫ":{"ha":1043,"x_min":81,"x_max":1011,"o":"m 81 0 l 236 979 l 294 979 l 222 524 l 881 524 l 953 979 l 1011 979 l 856 0 l 797 0 l 872 469 l 214 469 l 139 0 l 81 0 m 446 -299 q 308 -244 360 -299 q 261 -94 257 -190 l 307 -89 q 340 -207 301 -165 q 447 -249 379 -249 q 560 -207 517 -249 q 615 -89 603 -165 l 661 -94 q 590 -244 647 -190 q 446 -299 532 -299 z "},"Ĥ":{"ha":1043,"x_min":81,"x_max":1011,"o":"m 81 0 l 236 979 l 294 979 l 222 524 l 881 524 l 953 979 l 1011 979 l 856 0 l 797 0 l 872 469 l 214 469 l 139 0 l 81 0 m 422 1063 l 615 1299 l 682 1299 l 825 1063 l 774 1063 l 646 1246 l 474 1063 l 422 1063 z "},"Ḥ":{"ha":1043,"x_min":81,"x_max":1011,"o":"m 81 0 l 236 979 l 294 979 l 222 524 l 881 524 l 953 979 l 1011 979 l 856 0 l 797 0 l 872 469 l 214 469 l 139 0 l 81 0 m 393 -239 l 407 -151 l 496 -151 l 482 -239 l 393 -239 z "},"I":{"ha":325,"x_min":81,"x_max":294,"o":"m 81 0 l 236 979 l 294 979 l 139 0 l 81 0 z "},"Ĳ":{"ha":738,"x_min":81,"x_max":706,"o":"m 81 0 l 236 979 l 294 979 l 139 0 l 81 0 m 265 -8 l 264 44 l 333 50 q 430 78 389 54 q 497 149 471 103 q 533 260 524 194 l 647 979 l 706 979 l 589 246 q 545 116 578 169 q 460 32 513 63 q 332 -4 407 1 l 265 -8 z "},"Í":{"ha":325,"x_min":81,"x_max":514,"o":"m 81 0 l 236 979 l 294 979 l 139 0 l 81 0 m 253 1063 l 435 1299 l 514 1299 l 306 1063 l 253 1063 z "},"Ĭ":{"ha":325,"x_min":81,"x_max":521,"o":"m 81 0 l 236 979 l 294 979 l 139 0 l 81 0 m 283 1056 q 179 1083 225 1056 q 108 1163 133 1111 q 85 1288 83 1215 l 131 1293 q 170 1155 126 1204 q 288 1106 214 1106 q 411 1155 361 1106 q 475 1293 461 1204 l 521 1288 q 438 1117 503 1179 q 283 1056 372 1056 z "},"Î":{"ha":325,"x_min":65,"x_max":468,"o":"m 81 0 l 236 979 l 294 979 l 139 0 l 81 0 m 65 1063 l 258 1299 l 325 1299 l 468 1063 l 417 1063 l 289 1246 l 117 1063 l 65 1063 z "},"Ȉ":{"ha":325,"x_min":51,"x_max":374,"o":"m 81 0 l 236 979 l 294 979 l 139 0 l 81 0 m 336 1063 l 201 1299 l 272 1299 l 374 1063 l 336 1063 m 185 1063 l 51 1299 l 122 1299 l 222 1063 l 185 1063 z "},"Ï":{"ha":325,"x_min":81,"x_max":458,"o":"m 81 0 l 236 979 l 294 979 l 139 0 l 81 0 m 360 1139 l 374 1222 l 458 1222 l 444 1139 l 360 1139 m 136 1139 l 150 1222 l 235 1222 l 221 1139 l 136 1139 z "},"Ḯ":{"ha":325,"x_min":81,"x_max":507,"o":"m 81 0 l 236 979 l 294 979 l 139 0 l 81 0 m 276 1210 l 431 1418 l 507 1418 l 326 1210 l 276 1210 m 125 1071 l 139 1154 l 224 1154 l 210 1071 l 125 1071 m 349 1071 l 363 1154 l 447 1154 l 433 1071 l 349 1071 z "},"İ":{"ha":325,"x_min":81,"x_max":347,"o":"m 81 0 l 236 979 l 294 979 l 139 0 l 81 0 m 247 1136 l 261 1224 l 347 1224 l 333 1136 l 247 1136 z "},"Ị":{"ha":325,"x_min":28,"x_max":294,"o":"m 81 0 l 236 979 l 294 979 l 139 0 l 81 0 m 28 -239 l 42 -151 l 131 -151 l 117 -239 l 28 -239 z "},"Ì":{"ha":325,"x_min":81,"x_max":306,"o":"m 81 0 l 236 979 l 294 979 l 139 0 l 81 0 m 253 1063 l 83 1299 l 160 1299 l 306 1063 l 253 1063 z "},"Ỉ":{"ha":325,"x_min":81,"x_max":419,"o":"m 81 0 l 236 979 l 294 979 l 139 0 l 81 0 m 253 1063 l 256 1082 q 277 1133 260 1114 q 314 1165 294 1153 q 348 1191 333 1178 q 363 1224 363 1204 q 347 1247 363 1239 q 294 1256 331 1256 q 251 1251 274 1256 q 201 1233 229 1246 l 193 1279 q 245 1299 217 1292 q 304 1306 274 1306 q 390 1285 360 1306 q 419 1229 419 1264 q 403 1179 419 1197 q 366 1149 388 1161 q 327 1120 344 1136 q 307 1076 310 1104 l 306 1063 l 253 1063 z "},"Ȋ":{"ha":325,"x_min":51,"x_max":490,"o":"m 81 0 l 236 979 l 294 979 l 139 0 l 81 0 m 97 1056 l 51 1061 q 135 1231 69 1169 q 289 1293 200 1293 q 394 1265 349 1293 q 465 1185 439 1238 q 488 1061 490 1133 l 442 1056 q 402 1194 446 1146 q 285 1243 358 1243 q 161 1194 211 1243 q 97 1056 111 1146 z "},"Ī":{"ha":325,"x_min":76,"x_max":515,"o":"m 81 0 l 236 979 l 294 979 l 139 0 l 81 0 m 76 1142 l 85 1194 l 515 1194 l 507 1142 l 76 1142 z "},"Į":{"ha":325,"x_min":-26,"x_max":294,"o":"m 81 0 l 236 979 l 294 979 l 139 0 l 81 0 m 97 -264 q 6 -230 38 -264 q -26 -143 -26 -196 q 13 -33 -26 -82 q 114 43 53 17 l 139 0 q 77 -37 101 -15 q 40 -84 53 -58 q 28 -137 28 -110 q 47 -193 28 -172 q 104 -214 65 -214 q 140 -210 121 -214 q 179 -196 158 -206 l 192 -243 q 151 -257 178 -250 q 97 -264 125 -264 z "},"Ĩ":{"ha":325,"x_min":6,"x_max":564,"o":"m 81 0 l 236 979 l 294 979 l 139 0 l 81 0 m 50 1100 l 6 1103 q 38 1194 17 1157 q 92 1251 60 1232 q 164 1271 124 1271 q 239 1250 204 1271 q 306 1206 274 1229 q 358 1169 333 1185 q 410 1153 383 1153 q 478 1184 451 1153 q 519 1274 506 1215 l 564 1271 q 508 1147 549 1190 q 407 1103 468 1103 q 331 1124 367 1103 q 264 1168 296 1146 q 211 1205 238 1189 q 160 1221 185 1221 q 91 1190 118 1221 q 50 1100 64 1158 z "},"J":{"ha":413,"x_min":-61,"x_max":381,"o":"m -60 -8 l -61 44 l 8 50 q 105 78 64 54 q 172 149 146 103 q 208 260 199 194 l 322 979 l 381 979 l 264 246 q 220 116 253 169 q 135 32 188 63 q 7 -4 82 1 l -60 -8 z "},"Ĵ":{"ha":413,"x_min":-61,"x_max":556,"o":"m -60 -8 l -61 44 l 8 50 q 105 78 64 54 q 172 149 146 103 q 208 260 199 194 l 322 979 l 381 979 l 264 246 q 220 116 253 169 q 135 32 188 63 q 7 -4 82 1 l -60 -8 m 153 1063 l 346 1299 l 413 1299 l 556 1063 l 504 1063 l 376 1246 l 204 1063 l 153 1063 z "},"K":{"ha":819,"x_min":81,"x_max":896,"o":"m 81 0 l 236 979 l 294 979 l 222 524 l 225 524 l 810 979 l 896 979 l 247 471 l 254 513 l 772 0 l 693 0 l 217 469 l 214 469 l 139 0 l 81 0 z "},"Ķ":{"ha":819,"x_min":81,"x_max":896,"o":"m 81 0 l 236 979 l 294 979 l 222 524 l 225 524 l 810 979 l 896 979 l 247 471 l 254 513 l 772 0 l 693 0 l 217 469 l 214 469 l 139 0 l 81 0 m 315 -360 l 288 -329 q 336 -268 325 -297 q 354 -200 347 -239 l 372 -210 l 303 -210 l 318 -119 l 415 -119 l 401 -204 q 373 -293 393 -254 q 315 -360 353 -332 z "},"L":{"ha":732,"x_min":81,"x_max":669,"o":"m 81 0 l 236 979 l 294 979 l 147 54 l 669 54 l 661 0 l 81 0 z "},"Ǉ":{"ha":1200,"x_min":81,"x_max":1168,"o":"m 81 0 l 236 979 l 294 979 l 147 54 l 669 54 l 661 0 l 81 0 m 728 -8 l 726 44 l 796 50 q 892 78 851 54 q 960 149 933 103 q 996 260 986 194 l 1110 979 l 1168 979 l 1051 246 q 1008 116 1040 169 q 922 32 975 63 q 794 -4 869 1 l 728 -8 z "},"Ĺ":{"ha":732,"x_min":81,"x_max":669,"o":"m 81 0 l 236 979 l 294 979 l 147 54 l 669 54 l 661 0 l 81 0 m 253 1063 l 435 1299 l 514 1299 l 306 1063 l 253 1063 z "},"Ľ":{"ha":732,"x_min":81,"x_max":669,"o":"m 81 0 l 236 979 l 294 979 l 147 54 l 669 54 l 661 0 l 81 0 m 417 679 l 464 979 l 532 979 l 458 679 l 417 679 z "},"Ļ":{"ha":732,"x_min":81,"x_max":669,"o":"m 81 0 l 236 979 l 294 979 l 147 54 l 669 54 l 661 0 l 81 0 m 301 -360 l 274 -329 q 322 -268 311 -297 q 340 -200 333 -239 l 358 -210 l 289 -210 l 304 -119 l 401 -119 l 388 -204 q 359 -293 379 -254 q 301 -360 339 -332 z "},"Ŀ":{"ha":732,"x_min":81,"x_max":669,"o":"m 81 0 l 236 979 l 294 979 l 147 54 l 669 54 l 661 0 l 81 0 m 511 489 l 526 583 l 621 583 l 606 489 l 511 489 z "},"Ḷ":{"ha":732,"x_min":81,"x_max":669,"o":"m 81 0 l 236 979 l 294 979 l 147 54 l 669 54 l 661 0 l 81 0 m 289 -239 l 303 -151 l 392 -151 l 378 -239 l 289 -239 z "},"ǈ":{"ha":1031,"x_min":81,"x_max":1025,"o":"m 81 0 l 236 979 l 294 979 l 147 54 l 669 54 l 661 0 l 81 0 m 922 860 l 936 947 l 1025 947 l 1011 860 l 922 860 m 567 -268 l 564 -215 l 621 -211 q 738 -160 694 -206 q 796 -31 782 -114 l 907 672 l 965 672 l 853 -36 q 825 -131 844 -90 q 776 -201 806 -172 q 710 -245 747 -229 q 626 -264 672 -261 l 567 -268 z "},"Ḻ":{"ha":732,"x_min":81,"x_max":669,"o":"m 81 0 l 236 979 l 294 979 l 147 54 l 669 54 l 661 0 l 81 0 m 144 -206 l 153 -153 l 542 -153 l 533 -206 l 144 -206 z "},"Ł":{"ha":732,"x_min":1,"x_max":669,"o":"m 81 0 l 236 979 l 294 979 l 147 54 l 669 54 l 661 0 l 81 0 m 25 408 l 1 456 l 472 674 l 496 626 l 25 408 z "},"M":{"ha":1172,"x_min":83,"x_max":1139,"o":"m 83 0 l 239 979 l 289 979 l 578 176 l 540 176 l 1089 979 l 1139 979 l 983 0 l 929 0 l 1075 924 l 1110 924 l 583 153 l 535 153 l 256 925 l 283 925 l 138 0 l 83 0 z "},"Ṃ":{"ha":1172,"x_min":83,"x_max":1139,"o":"m 83 0 l 239 979 l 289 979 l 578 176 l 540 176 l 1089 979 l 1139 979 l 983 0 l 929 0 l 1075 924 l 1110 924 l 583 153 l 535 153 l 256 925 l 283 925 l 138 0 l 83 0 m 458 -239 l 472 -151 l 561 -151 l 547 -239 l 458 -239 z "},"N":{"ha":1017,"x_min":81,"x_max":985,"o":"m 81 0 l 236 979 l 285 979 l 810 58 l 785 58 l 931 979 l 985 979 l 829 0 l 782 0 l 257 921 l 281 921 l 135 0 l 81 0 z "},"Ǌ":{"ha":1429,"x_min":81,"x_max":1397,"o":"m 81 0 l 236 979 l 285 979 l 810 58 l 785 58 l 931 979 l 985 979 l 829 0 l 782 0 l 257 921 l 281 921 l 135 0 l 81 0 m 957 -8 l 956 44 l 1025 50 q 1122 78 1081 54 q 1189 149 1163 103 q 1225 260 1215 194 l 1339 979 l 1397 979 l 1281 246 q 1237 116 1269 169 q 1151 32 1204 63 q 1024 -4 1099 1 l 957 -8 z "},"Ń":{"ha":1017,"x_min":81,"x_max":985,"o":"m 81 0 l 236 979 l 285 979 l 810 58 l 785 58 l 931 979 l 985 979 l 829 0 l 782 0 l 257 921 l 281 921 l 135 0 l 81 0 m 599 1063 l 781 1299 l 860 1299 l 651 1063 l 599 1063 z "},"Ň":{"ha":1017,"x_min":81,"x_max":985,"o":"m 81 0 l 236 979 l 285 979 l 810 58 l 785 58 l 931 979 l 985 979 l 829 0 l 782 0 l 257 921 l 281 921 l 135 0 l 81 0 m 592 1063 l 449 1299 l 499 1299 l 625 1115 l 799 1299 l 851 1299 l 658 1063 l 592 1063 z "},"Ņ":{"ha":1017,"x_min":81,"x_max":985,"o":"m 81 0 l 236 979 l 285 979 l 810 58 l 785 58 l 931 979 l 985 979 l 829 0 l 782 0 l 257 921 l 281 921 l 135 0 l 81 0 m 400 -360 l 372 -329 q 421 -268 410 -297 q 439 -200 432 -239 l 457 -210 l 388 -210 l 403 -119 l 500 -119 l 486 -204 q 458 -293 478 -254 q 400 -360 438 -332 z "},"Ṅ":{"ha":1017,"x_min":81,"x_max":985,"o":"m 81 0 l 236 979 l 285 979 l 810 58 l 785 58 l 931 979 l 985 979 l 829 0 l 782 0 l 257 921 l 281 921 l 135 0 l 81 0 m 593 1136 l 607 1224 l 693 1224 l 679 1136 l 593 1136 z "},"Ṇ":{"ha":1017,"x_min":81,"x_max":985,"o":"m 81 0 l 236 979 l 285 979 l 810 58 l 785 58 l 931 979 l 985 979 l 829 0 l 782 0 l 257 921 l 281 921 l 135 0 l 81 0 m 388 -239 l 401 -151 l 490 -151 l 476 -239 l 388 -239 z "},"ǋ":{"ha":1315,"x_min":81,"x_max":1310,"o":"m 81 0 l 236 979 l 285 979 l 810 58 l 785 58 l 931 979 l 985 979 l 829 0 l 782 0 l 257 921 l 281 921 l 135 0 l 81 0 m 1207 860 l 1221 947 l 1310 947 l 1296 860 l 1207 860 m 851 -268 l 849 -215 l 906 -211 q 1023 -160 979 -206 q 1081 -31 1067 -114 l 1192 672 l 1250 672 l 1138 -36 q 1110 -131 1129 -90 q 1061 -201 1090 -172 q 994 -245 1032 -229 q 911 -264 957 -261 l 851 -268 z "},"Ṉ":{"ha":1017,"x_min":81,"x_max":985,"o":"m 81 0 l 236 979 l 285 979 l 810 58 l 785 58 l 931 979 l 985 979 l 829 0 l 782 0 l 257 921 l 281 921 l 135 0 l 81 0 m 243 -206 l 251 -153 l 640 -153 l 632 -206 l 243 -206 z "},"Ñ":{"ha":1017,"x_min":81,"x_max":985,"o":"m 81 0 l 236 979 l 285 979 l 810 58 l 785 58 l 931 979 l 985 979 l 829 0 l 782 0 l 257 921 l 281 921 l 135 0 l 81 0 m 396 1100 l 351 1103 q 384 1194 363 1157 q 438 1251 406 1232 q 510 1271 469 1271 q 585 1250 550 1271 q 651 1206 619 1229 q 704 1169 679 1185 q 756 1153 729 1153 q 824 1184 797 1153 q 865 1274 851 1215 l 910 1271 q 854 1147 894 1190 q 753 1103 814 1103 q 677 1124 713 1103 q 610 1168 642 1146 q 557 1205 583 1189 q 506 1221 531 1221 q 437 1190 464 1221 q 396 1100 410 1158 z "},"Ŋ":{"ha":1017,"x_min":81,"x_max":985,"o":"m 538 -268 l 535 -215 l 592 -211 q 713 -160 668 -206 q 771 -31 757 -114 l 781 31 l 782 0 l 257 921 l 281 921 l 135 0 l 81 0 l 236 979 l 285 979 l 808 58 l 785 58 l 931 979 l 985 979 l 824 -36 q 796 -131 815 -90 q 747 -201 776 -172 q 681 -245 718 -229 q 597 -264 643 -261 l 538 -268 z "},"O":{"ha":1043,"x_min":114,"x_max":978,"o":"m 496 -11 q 294 36 379 -11 q 161 176 208 83 q 114 401 114 268 q 144 632 114 525 q 236 819 175 739 q 388 945 297 900 q 596 990 478 990 q 799 943 713 990 q 931 804 885 896 q 978 578 978 713 q 947 347 978 454 q 856 160 917 240 q 705 34 794 79 q 496 -11 615 -11 m 499 46 q 727 116 635 46 q 867 307 819 186 q 915 578 915 428 q 830 846 915 758 q 592 933 744 933 q 365 863 457 933 q 224 673 272 793 q 176 401 176 553 q 262 133 176 221 q 499 46 347 46 z "},"Ó":{"ha":1043,"x_min":114,"x_max":978,"o":"m 496 -11 q 294 36 379 -11 q 161 176 208 83 q 114 401 114 268 q 144 632 114 525 q 236 819 175 739 q 388 945 297 900 q 596 990 478 990 q 799 943 713 990 q 931 804 885 896 q 978 578 978 713 q 947 347 978 454 q 856 160 917 240 q 705 34 794 79 q 496 -11 615 -11 m 499 46 q 727 116 635 46 q 867 307 819 186 q 915 578 915 428 q 830 846 915 758 q 592 933 744 933 q 365 863 457 933 q 224 673 272 793 q 176 401 176 553 q 262 133 176 221 q 499 46 347 46 m 599 1063 l 781 1299 l 860 1299 l 651 1063 l 599 1063 z "},"Ŏ":{"ha":1043,"x_min":114,"x_max":978,"o":"m 496 -11 q 294 36 379 -11 q 161 176 208 83 q 114 401 114 268 q 144 632 114 525 q 236 819 175 739 q 388 945 297 900 q 596 990 478 990 q 799 943 713 990 q 931 804 885 896 q 978 578 978 713 q 947 347 978 454 q 856 160 917 240 q 705 34 794 79 q 496 -11 615 -11 m 499 46 q 727 116 635 46 q 867 307 819 186 q 915 578 915 428 q 830 846 915 758 q 592 933 744 933 q 365 863 457 933 q 224 673 272 793 q 176 401 176 553 q 262 133 176 221 q 499 46 347 46 m 629 1056 q 525 1083 571 1056 q 454 1163 479 1111 q 431 1288 429 1215 l 476 1293 q 516 1155 472 1204 q 633 1106 560 1106 q 757 1155 707 1106 q 821 1293 807 1204 l 867 1288 q 783 1117 849 1179 q 629 1056 718 1056 z "},"Ô":{"ha":1043,"x_min":114,"x_max":978,"o":"m 496 -11 q 294 36 379 -11 q 161 176 208 83 q 114 401 114 268 q 144 632 114 525 q 236 819 175 739 q 388 945 297 900 q 596 990 478 990 q 799 943 713 990 q 931 804 885 896 q 978 578 978 713 q 947 347 978 454 q 856 160 917 240 q 705 34 794 79 q 496 -11 615 -11 m 499 46 q 727 116 635 46 q 867 307 819 186 q 915 578 915 428 q 830 846 915 758 q 592 933 744 933 q 365 863 457 933 q 224 673 272 793 q 176 401 176 553 q 262 133 176 221 q 499 46 347 46 m 411 1063 l 604 1299 l 671 1299 l 814 1063 l 763 1063 l 635 1246 l 463 1063 l 411 1063 z "},"Ố":{"ha":1043,"x_min":114,"x_max":978,"o":"m 496 -11 q 294 36 379 -11 q 161 176 208 83 q 114 401 114 268 q 144 632 114 525 q 236 819 175 739 q 388 945 297 900 q 596 990 478 990 q 799 943 713 990 q 931 804 885 896 q 978 578 978 713 q 947 347 978 454 q 856 160 917 240 q 705 34 794 79 q 496 -11 615 -11 m 499 46 q 727 116 635 46 q 867 307 819 186 q 915 578 915 428 q 830 846 915 758 q 592 933 744 933 q 365 863 457 933 q 224 673 272 793 q 176 401 176 553 q 262 133 176 221 q 499 46 347 46 m 433 1063 l 604 1285 l 671 1285 l 803 1063 l 756 1063 l 635 1233 l 481 1063 l 433 1063 m 743 1203 l 882 1411 l 958 1411 l 793 1203 l 743 1203 z "},"Ộ":{"ha":1043,"x_min":114,"x_max":978,"o":"m 496 -11 q 294 36 379 -11 q 161 176 208 83 q 114 401 114 268 q 144 632 114 525 q 236 819 175 739 q 388 945 297 900 q 596 990 478 990 q 799 943 713 990 q 931 804 885 896 q 978 578 978 713 q 947 347 978 454 q 856 160 917 240 q 705 34 794 79 q 496 -11 615 -11 m 499 46 q 727 116 635 46 q 867 307 819 186 q 915 578 915 428 q 830 846 915 758 q 592 933 744 933 q 365 863 457 933 q 224 673 272 793 q 176 401 176 553 q 262 133 176 221 q 499 46 347 46 m 404 -239 l 418 -151 l 507 -151 l 493 -239 l 404 -239 m 411 1063 l 604 1299 l 671 1299 l 814 1063 l 763 1063 l 635 1246 l 463 1063 l 411 1063 z "},"Ồ":{"ha":1043,"x_min":114,"x_max":978,"o":"m 496 -11 q 294 36 379 -11 q 161 176 208 83 q 114 401 114 268 q 144 632 114 525 q 236 819 175 739 q 388 945 297 900 q 596 990 478 990 q 799 943 713 990 q 931 804 885 896 q 978 578 978 713 q 947 347 978 454 q 856 160 917 240 q 705 34 794 79 q 496 -11 615 -11 m 499 46 q 727 116 635 46 q 867 307 819 186 q 915 578 915 428 q 830 846 915 758 q 592 933 744 933 q 365 863 457 933 q 224 673 272 793 q 176 401 176 553 q 262 133 176 221 q 499 46 347 46 m 433 1063 l 604 1285 l 671 1285 l 803 1063 l 756 1063 l 635 1233 l 481 1063 l 433 1063 m 800 1203 l 671 1411 l 744 1411 l 850 1203 l 800 1203 z "},"Ổ":{"ha":1043,"x_min":114,"x_max":978,"o":"m 496 -11 q 294 36 379 -11 q 161 176 208 83 q 114 401 114 268 q 144 632 114 525 q 236 819 175 739 q 388 945 297 900 q 596 990 478 990 q 799 943 713 990 q 931 804 885 896 q 978 578 978 713 q 947 347 978 454 q 856 160 917 240 q 705 34 794 79 q 496 -11 615 -11 m 499 46 q 727 116 635 46 q 867 307 819 186 q 915 578 915 428 q 830 846 915 758 q 592 933 744 933 q 365 863 457 933 q 224 673 272 793 q 176 401 176 553 q 262 133 176 221 q 499 46 347 46 m 433 1063 l 604 1285 l 671 1285 l 803 1063 l 756 1063 l 635 1233 l 481 1063 l 433 1063 m 760 1203 q 778 1257 763 1238 q 815 1288 794 1276 q 850 1312 835 1300 q 865 1343 865 1324 q 848 1365 865 1358 q 806 1371 831 1371 q 755 1366 782 1371 q 706 1354 728 1361 l 697 1394 q 748 1411 721 1406 q 804 1417 775 1417 q 890 1399 860 1417 q 919 1350 919 1382 q 903 1302 919 1319 q 865 1272 888 1285 q 826 1245 843 1260 q 807 1203 810 1231 l 760 1203 z "},"Ỗ":{"ha":1043,"x_min":114,"x_max":978,"o":"m 496 -11 q 294 36 379 -11 q 161 176 208 83 q 114 401 114 268 q 144 632 114 525 q 236 819 175 739 q 388 945 297 900 q 596 990 478 990 q 799 943 713 990 q 931 804 885 896 q 978 578 978 713 q 947 347 978 454 q 856 160 917 240 q 705 34 794 79 q 496 -11 615 -11 m 499 46 q 727 116 635 46 q 867 307 819 186 q 915 578 915 428 q 830 846 915 758 q 592 933 744 933 q 365 863 457 933 q 224 673 272 793 q 176 401 176 553 q 262 133 176 221 q 499 46 347 46 m 433 1063 l 600 1243 l 667 1243 l 803 1063 l 756 1063 l 631 1196 l 481 1063 l 433 1063 m 476 1279 l 432 1282 q 474 1382 443 1349 q 553 1415 506 1415 q 607 1401 583 1415 q 651 1369 631 1386 q 688 1344 671 1356 q 726 1332 706 1332 q 775 1352 758 1332 q 803 1418 792 1372 l 849 1415 q 806 1315 836 1349 q 729 1282 776 1282 q 674 1297 699 1282 q 629 1328 650 1311 q 592 1354 611 1343 q 554 1365 574 1365 q 506 1345 524 1365 q 476 1279 488 1325 z "},"Ȍ":{"ha":1043,"x_min":114,"x_max":978,"o":"m 496 -11 q 294 36 379 -11 q 161 176 208 83 q 114 401 114 268 q 144 632 114 525 q 236 819 175 739 q 388 945 297 900 q 596 990 478 990 q 799 943 713 990 q 931 804 885 896 q 978 578 978 713 q 947 347 978 454 q 856 160 917 240 q 705 34 794 79 q 496 -11 615 -11 m 499 46 q 727 116 635 46 q 867 307 819 186 q 915 578 915 428 q 830 846 915 758 q 592 933 744 933 q 365 863 457 933 q 224 673 272 793 q 176 401 176 553 q 262 133 176 221 q 499 46 347 46 m 682 1063 l 547 1299 l 618 1299 l 719 1063 l 682 1063 m 531 1063 l 397 1299 l 468 1299 l 568 1063 l 531 1063 z "},"Ö":{"ha":1043,"x_min":114,"x_max":978,"o":"m 496 -11 q 294 36 379 -11 q 161 176 208 83 q 114 401 114 268 q 144 632 114 525 q 236 819 175 739 q 388 945 297 900 q 596 990 478 990 q 799 943 713 990 q 931 804 885 896 q 978 578 978 713 q 947 347 978 454 q 856 160 917 240 q 705 34 794 79 q 496 -11 615 -11 m 499 46 q 727 116 635 46 q 867 307 819 186 q 915 578 915 428 q 830 846 915 758 q 592 933 744 933 q 365 863 457 933 q 224 673 272 793 q 176 401 176 553 q 262 133 176 221 q 499 46 347 46 m 706 1139 l 719 1222 l 804 1222 l 790 1139 l 706 1139 m 482 1139 l 496 1222 l 581 1222 l 567 1139 l 482 1139 z "},"Ȫ":{"ha":1043,"x_min":114,"x_max":978,"o":"m 496 -11 q 294 36 379 -11 q 161 176 208 83 q 114 401 114 268 q 144 632 114 525 q 236 819 175 739 q 388 945 297 900 q 596 990 478 990 q 799 943 713 990 q 931 804 885 896 q 978 578 978 713 q 947 347 978 454 q 856 160 917 240 q 705 34 794 79 q 496 -11 615 -11 m 499 46 q 727 116 635 46 q 867 307 819 186 q 915 578 915 428 q 830 846 915 758 q 592 933 744 933 q 365 863 457 933 q 224 673 272 793 q 176 401 176 553 q 262 133 176 221 q 499 46 347 46 m 465 1288 l 474 1340 l 863 1340 l 854 1288 l 465 1288 m 479 1119 l 493 1203 l 578 1203 l 564 1119 l 479 1119 m 703 1119 l 717 1203 l 801 1203 l 788 1119 l 703 1119 z "},"Ȱ":{"ha":1043,"x_min":114,"x_max":978,"o":"m 496 -11 q 294 36 379 -11 q 161 176 208 83 q 114 401 114 268 q 144 632 114 525 q 236 819 175 739 q 388 945 297 900 q 596 990 478 990 q 799 943 713 990 q 931 804 885 896 q 978 578 978 713 q 947 347 978 454 q 856 160 917 240 q 705 34 794 79 q 496 -11 615 -11 m 499 46 q 727 116 635 46 q 867 307 819 186 q 915 578 915 428 q 830 846 915 758 q 592 933 744 933 q 365 863 457 933 q 224 673 272 793 q 176 401 176 553 q 262 133 176 221 q 499 46 347 46 m 465 1288 l 474 1340 l 863 1340 l 854 1288 l 465 1288 m 592 1119 l 606 1203 l 690 1203 l 676 1119 l 592 1119 z "},"Ọ":{"ha":1043,"x_min":114,"x_max":978,"o":"m 496 -11 q 294 36 379 -11 q 161 176 208 83 q 114 401 114 268 q 144 632 114 525 q 236 819 175 739 q 388 945 297 900 q 596 990 478 990 q 799 943 713 990 q 931 804 885 896 q 978 578 978 713 q 947 347 978 454 q 856 160 917 240 q 705 34 794 79 q 496 -11 615 -11 m 499 46 q 727 116 635 46 q 867 307 819 186 q 915 578 915 428 q 830 846 915 758 q 592 933 744 933 q 365 863 457 933 q 224 673 272 793 q 176 401 176 553 q 262 133 176 221 q 499 46 347 46 m 404 -239 l 418 -151 l 507 -151 l 493 -239 l 404 -239 z "},"Ò":{"ha":1043,"x_min":114,"x_max":978,"o":"m 496 -11 q 294 36 379 -11 q 161 176 208 83 q 114 401 114 268 q 144 632 114 525 q 236 819 175 739 q 388 945 297 900 q 596 990 478 990 q 799 943 713 990 q 931 804 885 896 q 978 578 978 713 q 947 347 978 454 q 856 160 917 240 q 705 34 794 79 q 496 -11 615 -11 m 499 46 q 727 116 635 46 q 867 307 819 186 q 915 578 915 428 q 830 846 915 758 q 592 933 744 933 q 365 863 457 933 q 224 673 272 793 q 176 401 176 553 q 262 133 176 221 q 499 46 347 46 m 599 1063 l 429 1299 l 506 1299 l 651 1063 l 599 1063 z "},"Ỏ":{"ha":1043,"x_min":114,"x_max":978,"o":"m 496 -11 q 294 36 379 -11 q 161 176 208 83 q 114 401 114 268 q 144 632 114 525 q 236 819 175 739 q 388 945 297 900 q 596 990 478 990 q 799 943 713 990 q 931 804 885 896 q 978 578 978 713 q 947 347 978 454 q 856 160 917 240 q 705 34 794 79 q 496 -11 615 -11 m 499 46 q 727 116 635 46 q 867 307 819 186 q 915 578 915 428 q 830 846 915 758 q 592 933 744 933 q 365 863 457 933 q 224 673 272 793 q 176 401 176 553 q 262 133 176 221 q 499 46 347 46 m 599 1063 l 601 1082 q 623 1133 606 1114 q 660 1165 640 1153 q 694 1191 679 1178 q 708 1224 708 1204 q 692 1247 708 1239 q 640 1256 676 1256 q 597 1251 619 1256 q 547 1233 575 1246 l 539 1279 q 591 1299 563 1292 q 650 1306 619 1306 q 735 1285 706 1306 q 765 1229 765 1264 q 749 1179 765 1197 q 712 1149 733 1161 q 673 1120 690 1136 q 653 1076 656 1104 l 651 1063 l 599 1063 z "},"Ơ":{"ha":1043,"x_min":114,"x_max":1032,"o":"m 496 -11 q 294 36 379 -11 q 161 176 208 83 q 114 401 114 268 q 144 632 114 525 q 236 819 175 739 q 388 945 297 900 q 596 990 478 990 q 799 943 713 990 q 931 804 885 896 q 978 578 978 713 q 947 347 978 454 q 856 160 917 240 q 705 34 794 79 q 496 -11 615 -11 m 499 46 q 727 116 635 46 q 867 307 819 186 q 915 578 915 428 q 830 846 915 758 q 592 933 744 933 q 365 863 457 933 q 224 673 272 793 q 176 401 176 553 q 262 133 176 221 q 499 46 347 46 m 717 926 l 651 985 q 721 981 692 982 q 781 979 750 979 q 888 998 849 979 q 946 1054 926 1017 q 974 1146 965 1092 l 976 1163 l 1032 1163 l 1028 1135 q 990 1020 1018 1067 q 913 950 961 974 q 794 926 865 926 l 717 926 z "},"Ớ":{"ha":1043,"x_min":114,"x_max":1032,"o":"m 496 -11 q 294 36 379 -11 q 161 176 208 83 q 114 401 114 268 q 144 632 114 525 q 236 819 175 739 q 388 945 297 900 q 596 990 478 990 q 799 943 713 990 q 931 804 885 896 q 978 578 978 713 q 947 347 978 454 q 856 160 917 240 q 705 34 794 79 q 496 -11 615 -11 m 499 46 q 727 116 635 46 q 867 307 819 186 q 915 578 915 428 q 830 846 915 758 q 592 933 744 933 q 365 863 457 933 q 224 673 272 793 q 176 401 176 553 q 262 133 176 221 q 499 46 347 46 m 717 926 l 651 985 q 721 981 692 982 q 781 979 750 979 q 888 998 849 979 q 946 1054 926 1017 q 974 1146 965 1092 l 976 1163 l 1032 1163 l 1028 1135 q 990 1020 1018 1067 q 913 950 961 974 q 794 926 865 926 l 717 926 m 599 1063 l 781 1299 l 860 1299 l 651 1063 l 599 1063 z "},"Ợ":{"ha":1043,"x_min":114,"x_max":1032,"o":"m 496 -11 q 294 36 379 -11 q 161 176 208 83 q 114 401 114 268 q 144 632 114 525 q 236 819 175 739 q 388 945 297 900 q 596 990 478 990 q 799 943 713 990 q 931 804 885 896 q 978 578 978 713 q 947 347 978 454 q 856 160 917 240 q 705 34 794 79 q 496 -11 615 -11 m 499 46 q 727 116 635 46 q 867 307 819 186 q 915 578 915 428 q 830 846 915 758 q 592 933 744 933 q 365 863 457 933 q 224 673 272 793 q 176 401 176 553 q 262 133 176 221 q 499 46 347 46 m 717 926 l 651 985 q 721 981 692 982 q 781 979 750 979 q 888 998 849 979 q 946 1054 926 1017 q 974 1146 965 1092 l 976 1163 l 1032 1163 l 1028 1135 q 990 1020 1018 1067 q 913 950 961 974 q 794 926 865 926 l 717 926 m 404 -239 l 418 -151 l 507 -151 l 493 -239 l 404 -239 z "},"Ờ":{"ha":1043,"x_min":114,"x_max":1032,"o":"m 496 -11 q 294 36 379 -11 q 161 176 208 83 q 114 401 114 268 q 144 632 114 525 q 236 819 175 739 q 388 945 297 900 q 596 990 478 990 q 799 943 713 990 q 931 804 885 896 q 978 578 978 713 q 947 347 978 454 q 856 160 917 240 q 705 34 794 79 q 496 -11 615 -11 m 499 46 q 727 116 635 46 q 867 307 819 186 q 915 578 915 428 q 830 846 915 758 q 592 933 744 933 q 365 863 457 933 q 224 673 272 793 q 176 401 176 553 q 262 133 176 221 q 499 46 347 46 m 717 926 l 651 985 q 721 981 692 982 q 781 979 750 979 q 888 998 849 979 q 946 1054 926 1017 q 974 1146 965 1092 l 976 1163 l 1032 1163 l 1028 1135 q 990 1020 1018 1067 q 913 950 961 974 q 794 926 865 926 l 717 926 m 599 1063 l 429 1299 l 506 1299 l 651 1063 l 599 1063 z "},"Ở":{"ha":1043,"x_min":114,"x_max":1032,"o":"m 496 -11 q 294 36 379 -11 q 161 176 208 83 q 114 401 114 268 q 144 632 114 525 q 236 819 175 739 q 388 945 297 900 q 596 990 478 990 q 799 943 713 990 q 931 804 885 896 q 978 578 978 713 q 947 347 978 454 q 856 160 917 240 q 705 34 794 79 q 496 -11 615 -11 m 499 46 q 727 116 635 46 q 867 307 819 186 q 915 578 915 428 q 830 846 915 758 q 592 933 744 933 q 365 863 457 933 q 224 673 272 793 q 176 401 176 553 q 262 133 176 221 q 499 46 347 46 m 717 926 l 651 985 q 721 981 692 982 q 781 979 750 979 q 888 998 849 979 q 946 1054 926 1017 q 974 1146 965 1092 l 976 1163 l 1032 1163 l 1028 1135 q 990 1020 1018 1067 q 913 950 961 974 q 794 926 865 926 l 717 926 m 599 1063 l 601 1082 q 623 1133 606 1114 q 660 1165 640 1153 q 694 1191 679 1178 q 708 1224 708 1204 q 692 1247 708 1239 q 640 1256 676 1256 q 597 1251 619 1256 q 547 1233 575 1246 l 539 1279 q 591 1299 563 1292 q 650 1306 619 1306 q 735 1285 706 1306 q 765 1229 765 1264 q 749 1179 765 1197 q 712 1149 733 1161 q 673 1120 690 1136 q 653 1076 656 1104 l 651 1063 l 599 1063 z "},"Ỡ":{"ha":1043,"x_min":114,"x_max":1032,"o":"m 496 -11 q 294 36 379 -11 q 161 176 208 83 q 114 401 114 268 q 144 632 114 525 q 236 819 175 739 q 388 945 297 900 q 596 990 478 990 q 799 943 713 990 q 931 804 885 896 q 978 578 978 713 q 947 347 978 454 q 856 160 917 240 q 705 34 794 79 q 496 -11 615 -11 m 499 46 q 727 116 635 46 q 867 307 819 186 q 915 578 915 428 q 830 846 915 758 q 592 933 744 933 q 365 863 457 933 q 224 673 272 793 q 176 401 176 553 q 262 133 176 221 q 499 46 347 46 m 717 926 l 651 985 q 721 981 692 982 q 781 979 750 979 q 888 998 849 979 q 946 1054 926 1017 q 974 1146 965 1092 l 976 1163 l 1032 1163 l 1028 1135 q 990 1020 1018 1067 q 913 950 961 974 q 794 926 865 926 l 717 926 m 429 1100 l 385 1103 q 417 1194 396 1157 q 471 1251 439 1232 q 543 1271 503 1271 q 611 1250 583 1271 q 663 1206 639 1229 q 703 1169 683 1185 q 750 1153 724 1153 q 819 1184 792 1153 q 860 1274 846 1215 l 904 1271 q 872 1180 894 1218 q 819 1122 850 1142 q 747 1103 788 1103 q 678 1124 707 1103 q 626 1168 650 1146 q 585 1205 606 1189 q 539 1221 564 1221 q 470 1190 497 1221 q 429 1100 443 1158 z "},"Ő":{"ha":1043,"x_min":114,"x_max":978,"o":"m 496 -11 q 294 36 379 -11 q 161 176 208 83 q 114 401 114 268 q 144 632 114 525 q 236 819 175 739 q 388 945 297 900 q 596 990 478 990 q 799 943 713 990 q 931 804 885 896 q 978 578 978 713 q 947 347 978 454 q 856 160 917 240 q 705 34 794 79 q 496 -11 615 -11 m 499 46 q 727 116 635 46 q 867 307 819 186 q 915 578 915 428 q 830 846 915 758 q 592 933 744 933 q 365 863 457 933 q 224 673 272 793 q 176 401 176 553 q 262 133 176 221 q 499 46 347 46 m 531 1063 l 669 1299 l 742 1299 l 568 1063 l 531 1063 m 682 1063 l 819 1299 l 892 1299 l 719 1063 l 682 1063 z "},"Ȏ":{"ha":1043,"x_min":114,"x_max":978,"o":"m 496 -11 q 294 36 379 -11 q 161 176 208 83 q 114 401 114 268 q 144 632 114 525 q 236 819 175 739 q 388 945 297 900 q 596 990 478 990 q 799 943 713 990 q 931 804 885 896 q 978 578 978 713 q 947 347 978 454 q 856 160 917 240 q 705 34 794 79 q 496 -11 615 -11 m 499 46 q 727 116 635 46 q 867 307 819 186 q 915 578 915 428 q 830 846 915 758 q 592 933 744 933 q 365 863 457 933 q 224 673 272 793 q 176 401 176 553 q 262 133 176 221 q 499 46 347 46 m 443 1056 l 397 1061 q 481 1231 415 1169 q 635 1293 546 1293 q 740 1265 694 1293 q 810 1185 785 1238 q 833 1061 836 1133 l 788 1056 q 748 1194 792 1146 q 631 1243 704 1243 q 507 1194 557 1243 q 443 1056 457 1146 z "},"Ō":{"ha":1043,"x_min":114,"x_max":978,"o":"m 496 -11 q 294 36 379 -11 q 161 176 208 83 q 114 401 114 268 q 144 632 114 525 q 236 819 175 739 q 388 945 297 900 q 596 990 478 990 q 799 943 713 990 q 931 804 885 896 q 978 578 978 713 q 947 347 978 454 q 856 160 917 240 q 705 34 794 79 q 496 -11 615 -11 m 499 46 q 727 116 635 46 q 867 307 819 186 q 915 578 915 428 q 830 846 915 758 q 592 933 744 933 q 365 863 457 933 q 224 673 272 793 q 176 401 176 553 q 262 133 176 221 q 499 46 347 46 m 422 1142 l 431 1194 l 861 1194 l 853 1142 l 422 1142 z "},"Ṓ":{"ha":1043,"x_min":114,"x_max":978,"o":"m 496 -11 q 294 36 379 -11 q 161 176 208 83 q 114 401 114 268 q 144 632 114 525 q 236 819 175 739 q 388 945 297 900 q 596 990 478 990 q 799 943 713 990 q 931 804 885 896 q 978 578 978 713 q 947 347 978 454 q 856 160 917 240 q 705 34 794 79 q 496 -11 615 -11 m 499 46 q 727 116 635 46 q 867 307 819 186 q 915 578 915 428 q 830 846 915 758 q 592 933 744 933 q 365 863 457 933 q 224 673 272 793 q 176 401 176 553 q 262 133 176 221 q 499 46 347 46 m 436 1106 l 444 1158 l 833 1158 l 825 1106 l 436 1106 m 622 1210 l 776 1418 l 853 1418 l 672 1210 l 622 1210 z "},"Ṑ":{"ha":1043,"x_min":114,"x_max":978,"o":"m 496 -11 q 294 36 379 -11 q 161 176 208 83 q 114 401 114 268 q 144 632 114 525 q 236 819 175 739 q 388 945 297 900 q 596 990 478 990 q 799 943 713 990 q 931 804 885 896 q 978 578 978 713 q 947 347 978 454 q 856 160 917 240 q 705 34 794 79 q 496 -11 615 -11 m 499 46 q 727 116 635 46 q 867 307 819 186 q 915 578 915 428 q 830 846 915 758 q 592 933 744 933 q 365 863 457 933 q 224 673 272 793 q 176 401 176 553 q 262 133 176 221 q 499 46 347 46 m 622 1210 l 481 1418 l 554 1418 l 672 1210 l 622 1210 m 436 1106 l 444 1158 l 833 1158 l 825 1106 l 436 1106 z "},"Ǫ":{"ha":1043,"x_min":114,"x_max":978,"o":"m 496 -11 q 294 36 379 -11 q 161 176 208 83 q 114 401 114 268 q 144 632 114 525 q 236 819 175 739 q 388 945 297 900 q 596 990 478 990 q 799 943 713 990 q 931 804 885 896 q 978 578 978 713 q 947 347 978 454 q 856 160 917 240 q 705 34 794 79 q 496 -11 615 -11 m 499 46 q 727 116 635 46 q 867 307 819 186 q 915 578 915 428 q 830 846 915 758 q 592 933 744 933 q 365 863 457 933 q 224 673 272 793 q 176 401 176 553 q 262 133 176 221 q 499 46 347 46 m 515 -264 q 424 -230 456 -264 q 392 -143 392 -196 q 431 -33 392 -82 q 532 43 471 17 l 557 0 q 495 -37 519 -15 q 458 -84 471 -58 q 446 -137 446 -110 q 465 -193 446 -172 q 522 -214 483 -214 q 558 -210 539 -214 q 597 -196 576 -206 l 610 -243 q 569 -257 596 -250 q 515 -264 543 -264 z "},"Ø":{"ha":1043,"x_min":114,"x_max":978,"o":"m 496 -11 q 294 36 379 -11 q 161 176 208 83 q 114 401 114 268 q 144 632 114 525 q 236 819 175 739 q 388 945 297 900 q 596 990 478 990 q 799 943 713 990 q 931 804 885 896 q 978 578 978 713 q 947 347 978 454 q 856 160 917 240 q 705 34 794 79 q 496 -11 615 -11 m 499 46 q 727 116 635 46 q 867 307 819 186 q 915 578 915 428 q 830 846 915 758 q 592 933 744 933 q 365 863 457 933 q 224 673 272 793 q 176 401 176 553 q 262 133 176 221 q 499 46 347 46 m 190 -33 l 149 -3 l 229 107 l 253 138 l 797 874 l 819 904 l 901 1013 l 943 982 l 861 872 l 839 842 l 294 106 l 271 75 l 190 -33 z "},"Ǿ":{"ha":1043,"x_min":114,"x_max":978,"o":"m 496 -11 q 294 36 379 -11 q 161 176 208 83 q 114 401 114 268 q 144 632 114 525 q 236 819 175 739 q 388 945 297 900 q 596 990 478 990 q 799 943 713 990 q 931 804 885 896 q 978 578 978 713 q 947 347 978 454 q 856 160 917 240 q 705 34 794 79 q 496 -11 615 -11 m 499 46 q 727 116 635 46 q 867 307 819 186 q 915 578 915 428 q 830 846 915 758 q 592 933 744 933 q 365 863 457 933 q 224 673 272 793 q 176 401 176 553 q 262 133 176 221 q 499 46 347 46 m 190 -33 l 149 -3 l 229 107 l 253 138 l 797 874 l 819 904 l 901 1013 l 943 982 l 861 872 l 839 842 l 294 106 l 271 75 l 190 -33 m 599 1063 l 781 1299 l 860 1299 l 651 1063 l 599 1063 z "},"Õ":{"ha":1043,"x_min":114,"x_max":978,"o":"m 496 -11 q 294 36 379 -11 q 161 176 208 83 q 114 401 114 268 q 144 632 114 525 q 236 819 175 739 q 388 945 297 900 q 596 990 478 990 q 799 943 713 990 q 931 804 885 896 q 978 578 978 713 q 947 347 978 454 q 856 160 917 240 q 705 34 794 79 q 496 -11 615 -11 m 499 46 q 727 116 635 46 q 867 307 819 186 q 915 578 915 428 q 830 846 915 758 q 592 933 744 933 q 365 863 457 933 q 224 673 272 793 q 176 401 176 553 q 262 133 176 221 q 499 46 347 46 m 396 1100 l 351 1103 q 384 1194 363 1157 q 438 1251 406 1232 q 510 1271 469 1271 q 585 1250 550 1271 q 651 1206 619 1229 q 704 1169 679 1185 q 756 1153 729 1153 q 824 1184 797 1153 q 865 1274 851 1215 l 910 1271 q 854 1147 894 1190 q 753 1103 814 1103 q 677 1124 713 1103 q 610 1168 642 1146 q 557 1205 583 1189 q 506 1221 531 1221 q 437 1190 464 1221 q 396 1100 410 1158 z "},"Ṍ":{"ha":1043,"x_min":114,"x_max":978,"o":"m 496 -11 q 294 36 379 -11 q 161 176 208 83 q 114 401 114 268 q 144 632 114 525 q 236 819 175 739 q 388 945 297 900 q 596 990 478 990 q 799 943 713 990 q 931 804 885 896 q 978 578 978 713 q 947 347 978 454 q 856 160 917 240 q 705 34 794 79 q 496 -11 615 -11 m 499 46 q 727 116 635 46 q 867 307 819 186 q 915 578 915 428 q 830 846 915 758 q 592 933 744 933 q 365 863 457 933 q 224 673 272 793 q 176 401 176 553 q 262 133 176 221 q 499 46 347 46 m 622 1210 l 776 1418 l 853 1418 l 672 1210 l 622 1210 m 722 1067 q 671 1081 694 1067 q 625 1111 647 1096 q 588 1138 607 1126 q 547 1150 568 1150 q 499 1130 517 1150 q 471 1064 482 1110 l 425 1067 q 451 1141 433 1111 q 494 1185 468 1171 q 551 1200 519 1200 q 602 1186 579 1200 q 647 1156 625 1172 q 685 1129 667 1142 q 725 1117 704 1117 q 774 1137 757 1117 q 801 1203 792 1157 l 847 1200 q 803 1100 836 1133 q 722 1067 769 1067 z "},"Ṏ":{"ha":1043,"x_min":114,"x_max":978,"o":"m 496 -11 q 294 36 379 -11 q 161 176 208 83 q 114 401 114 268 q 144 632 114 525 q 236 819 175 739 q 388 945 297 900 q 596 990 478 990 q 799 943 713 990 q 931 804 885 896 q 978 578 978 713 q 947 347 978 454 q 856 160 917 240 q 705 34 794 79 q 496 -11 615 -11 m 499 46 q 727 116 635 46 q 867 307 819 186 q 915 578 915 428 q 830 846 915 758 q 592 933 744 933 q 365 863 457 933 q 224 673 272 793 q 176 401 176 553 q 262 133 176 221 q 499 46 347 46 m 722 1067 q 671 1081 694 1067 q 625 1111 647 1096 q 588 1138 607 1126 q 547 1150 568 1150 q 499 1130 517 1150 q 471 1064 482 1110 l 425 1067 q 451 1141 433 1111 q 494 1185 468 1171 q 551 1200 519 1200 q 602 1186 579 1200 q 647 1156 625 1172 q 685 1129 667 1142 q 725 1117 704 1117 q 774 1137 757 1117 q 801 1203 792 1157 l 847 1200 q 803 1100 836 1133 q 722 1067 769 1067 m 501 1264 l 515 1347 l 600 1347 l 586 1264 l 501 1264 m 725 1264 l 739 1347 l 824 1347 l 810 1264 l 725 1264 z "},"Ȭ":{"ha":1043,"x_min":114,"x_max":978,"o":"m 496 -11 q 294 36 379 -11 q 161 176 208 83 q 114 401 114 268 q 144 632 114 525 q 236 819 175 739 q 388 945 297 900 q 596 990 478 990 q 799 943 713 990 q 931 804 885 896 q 978 578 978 713 q 947 347 978 454 q 856 160 917 240 q 705 34 794 79 q 496 -11 615 -11 m 499 46 q 727 116 635 46 q 867 307 819 186 q 915 578 915 428 q 830 846 915 758 q 592 933 744 933 q 365 863 457 933 q 224 673 272 793 q 176 401 176 553 q 262 133 176 221 q 499 46 347 46 m 465 1288 l 474 1340 l 863 1340 l 854 1288 l 465 1288 m 722 1067 q 671 1081 694 1067 q 625 1111 647 1096 q 588 1138 607 1126 q 547 1150 568 1150 q 499 1130 517 1150 q 471 1064 482 1110 l 425 1067 q 451 1141 433 1111 q 494 1185 468 1171 q 551 1200 519 1200 q 602 1186 579 1200 q 647 1156 625 1172 q 685 1129 667 1142 q 725 1117 704 1117 q 774 1137 757 1117 q 801 1203 792 1157 l 847 1200 q 803 1100 836 1133 q 722 1067 769 1067 z "},"Œ":{"ha":1442,"x_min":113,"x_max":1474,"o":"m 556 0 q 367 26 450 0 q 228 105 285 53 q 142 231 171 157 q 113 401 113 306 q 144 624 113 519 q 242 808 175 728 q 412 933 308 888 q 661 979 515 979 l 1474 979 l 1465 925 l 938 925 l 874 524 l 1376 524 l 1368 469 l 864 469 l 799 54 l 1329 54 l 1321 0 l 556 0 m 557 54 l 740 54 l 879 925 l 658 925 q 433 883 525 925 q 283 768 340 842 q 201 600 226 694 q 175 401 175 506 q 271 144 175 233 q 557 54 367 54 z "},"P":{"ha":856,"x_min":81,"x_max":863,"o":"m 81 0 l 236 979 l 565 979 q 724 951 658 979 q 826 867 790 924 q 863 724 863 810 q 822 560 863 631 q 705 451 782 490 q 514 413 628 413 l 204 413 l 139 0 l 81 0 m 214 467 l 519 467 q 729 532 657 467 q 801 722 801 597 q 741 876 801 828 q 565 925 681 925 l 286 925 l 214 467 z "},"Þ":{"ha":856,"x_min":81,"x_max":832,"o":"m 81 0 l 236 979 l 294 979 l 265 792 l 535 792 q 694 764 628 792 q 796 679 760 736 q 832 536 832 622 q 792 373 832 443 q 674 264 751 303 q 483 225 597 225 l 175 225 l 139 0 l 81 0 m 183 279 l 489 279 q 699 344 626 279 q 771 535 771 410 q 710 689 771 640 q 535 738 650 738 l 256 738 l 183 279 z "},"Q":{"ha":1043,"x_min":114,"x_max":978,"o":"m 721 -264 l 647 -103 q 584 -35 626 -58 q 482 -11 542 -11 l 542 17 q 608 6 579 15 q 660 -28 636 -4 q 703 -96 683 -51 l 769 -242 l 721 -264 m 496 -11 q 294 36 379 -11 q 161 176 208 83 q 114 401 114 268 q 144 632 114 525 q 236 819 175 739 q 388 945 297 900 q 596 990 478 990 q 799 943 713 990 q 931 804 885 896 q 978 578 978 713 q 947 347 978 454 q 856 160 917 240 q 705 34 794 79 q 496 -11 615 -11 m 499 46 q 727 116 635 46 q 867 307 819 186 q 915 578 915 428 q 830 846 915 758 q 592 933 744 933 q 365 863 457 933 q 224 673 272 793 q 176 401 176 553 q 262 133 176 221 q 499 46 347 46 z "},"R":{"ha":908,"x_min":81,"x_max":863,"o":"m 81 0 l 236 979 l 557 979 q 728 948 660 979 q 829 859 796 917 q 863 722 863 801 q 817 565 863 629 q 694 468 772 500 q 518 439 617 436 l 518 454 l 529 454 q 622 421 585 454 q 682 325 658 388 l 806 0 l 749 0 l 632 307 q 590 381 614 354 q 531 421 567 408 q 440 433 494 433 l 207 433 l 139 0 l 81 0 m 217 488 l 532 488 q 730 549 658 488 q 801 721 801 610 q 743 874 801 822 q 557 925 685 925 l 286 925 l 217 488 z "},"Ŕ":{"ha":908,"x_min":81,"x_max":863,"o":"m 81 0 l 236 979 l 557 979 q 728 948 660 979 q 829 859 796 917 q 863 722 863 801 q 817 565 863 629 q 694 468 772 500 q 518 439 617 436 l 518 454 l 529 454 q 622 421 585 454 q 682 325 658 388 l 806 0 l 749 0 l 632 307 q 590 381 614 354 q 531 421 567 408 q 440 433 494 433 l 207 433 l 139 0 l 81 0 m 217 488 l 532 488 q 730 549 658 488 q 801 721 801 610 q 743 874 801 822 q 557 925 685 925 l 286 925 l 217 488 m 536 1063 l 718 1299 l 797 1299 l 589 1063 l 536 1063 z "},"Ř":{"ha":908,"x_min":81,"x_max":863,"o":"m 81 0 l 236 979 l 557 979 q 728 948 660 979 q 829 859 796 917 q 863 722 863 801 q 817 565 863 629 q 694 468 772 500 q 518 439 617 436 l 518 454 l 529 454 q 622 421 585 454 q 682 325 658 388 l 806 0 l 749 0 l 632 307 q 590 381 614 354 q 531 421 567 408 q 440 433 494 433 l 207 433 l 139 0 l 81 0 m 217 488 l 532 488 q 730 549 658 488 q 801 721 801 610 q 743 874 801 822 q 557 925 685 925 l 286 925 l 217 488 m 529 1063 l 386 1299 l 436 1299 l 563 1115 l 736 1299 l 789 1299 l 596 1063 l 529 1063 z "},"Ŗ":{"ha":908,"x_min":81,"x_max":863,"o":"m 81 0 l 236 979 l 557 979 q 728 948 660 979 q 829 859 796 917 q 863 722 863 801 q 817 565 863 629 q 694 468 772 500 q 518 439 617 436 l 518 454 l 529 454 q 622 421 585 454 q 682 325 658 388 l 806 0 l 749 0 l 632 307 q 590 381 614 354 q 531 421 567 408 q 440 433 494 433 l 207 433 l 139 0 l 81 0 m 217 488 l 532 488 q 730 549 658 488 q 801 721 801 610 q 743 874 801 822 q 557 925 685 925 l 286 925 l 217 488 m 354 -360 l 326 -329 q 375 -268 364 -297 q 393 -200 386 -239 l 411 -210 l 342 -210 l 357 -119 l 454 -119 l 440 -204 q 412 -293 432 -254 q 354 -360 392 -332 z "},"Ȑ":{"ha":908,"x_min":81,"x_max":863,"o":"m 81 0 l 236 979 l 557 979 q 728 948 660 979 q 829 859 796 917 q 863 722 863 801 q 817 565 863 629 q 694 468 772 500 q 518 439 617 436 l 518 454 l 529 454 q 622 421 585 454 q 682 325 658 388 l 806 0 l 749 0 l 632 307 q 590 381 614 354 q 531 421 567 408 q 440 433 494 433 l 207 433 l 139 0 l 81 0 m 217 488 l 532 488 q 730 549 658 488 q 801 721 801 610 q 743 874 801 822 q 557 925 685 925 l 286 925 l 217 488 m 619 1063 l 485 1299 l 556 1299 l 657 1063 l 619 1063 m 468 1063 l 335 1299 l 406 1299 l 506 1063 l 468 1063 z "},"Ṛ":{"ha":908,"x_min":81,"x_max":863,"o":"m 81 0 l 236 979 l 557 979 q 728 948 660 979 q 829 859 796 917 q 863 722 863 801 q 817 565 863 629 q 694 468 772 500 q 518 439 617 436 l 518 454 l 529 454 q 622 421 585 454 q 682 325 658 388 l 806 0 l 749 0 l 632 307 q 590 381 614 354 q 531 421 567 408 q 440 433 494 433 l 207 433 l 139 0 l 81 0 m 217 488 l 532 488 q 730 549 658 488 q 801 721 801 610 q 743 874 801 822 q 557 925 685 925 l 286 925 l 217 488 m 342 -239 l 356 -151 l 444 -151 l 431 -239 l 342 -239 z "},"Ȓ":{"ha":908,"x_min":81,"x_max":863,"o":"m 81 0 l 236 979 l 557 979 q 728 948 660 979 q 829 859 796 917 q 863 722 863 801 q 817 565 863 629 q 694 468 772 500 q 518 439 617 436 l 518 454 l 529 454 q 622 421 585 454 q 682 325 658 388 l 806 0 l 749 0 l 632 307 q 590 381 614 354 q 531 421 567 408 q 440 433 494 433 l 207 433 l 139 0 l 81 0 m 217 488 l 532 488 q 730 549 658 488 q 801 721 801 610 q 743 874 801 822 q 557 925 685 925 l 286 925 l 217 488 m 381 1056 l 335 1061 q 418 1231 353 1169 q 572 1293 483 1293 q 677 1265 632 1293 q 748 1185 722 1238 q 771 1061 774 1133 l 725 1056 q 685 1194 729 1146 q 568 1243 642 1243 q 444 1194 494 1243 q 381 1056 394 1146 z "},"Ṟ":{"ha":908,"x_min":81,"x_max":863,"o":"m 81 0 l 236 979 l 557 979 q 728 948 660 979 q 829 859 796 917 q 863 722 863 801 q 817 565 863 629 q 694 468 772 500 q 518 439 617 436 l 518 454 l 529 454 q 622 421 585 454 q 682 325 658 388 l 806 0 l 749 0 l 632 307 q 590 381 614 354 q 531 421 567 408 q 440 433 494 433 l 207 433 l 139 0 l 81 0 m 217 488 l 532 488 q 730 549 658 488 q 801 721 801 610 q 743 874 801 822 q 557 925 685 925 l 286 925 l 217 488 m 197 -206 l 206 -153 l 594 -153 l 586 -206 l 197 -206 z "},"S":{"ha":833,"x_min":46,"x_max":815,"o":"m 410 -11 q 273 1 339 -11 q 149 39 207 13 q 46 110 92 65 l 78 156 q 177 89 126 113 q 285 56 228 65 q 413 46 343 46 q 559 71 496 46 q 658 142 622 96 q 694 253 694 189 q 675 332 694 297 q 610 394 656 367 q 483 439 564 421 l 346 472 q 196 548 253 494 q 139 711 139 601 q 165 825 139 774 q 239 913 192 876 q 349 970 286 950 q 485 990 413 990 q 668 960 579 990 q 815 861 757 929 l 783 813 q 645 906 722 878 q 482 933 568 933 q 339 906 403 933 q 238 828 275 878 q 200 711 200 779 q 240 586 200 625 q 358 528 281 547 l 496 494 q 694 404 633 464 q 756 258 756 344 q 729 144 756 194 q 656 59 703 93 q 547 7 610 25 q 410 -11 483 -11 z "},"Ś":{"ha":833,"x_min":46,"x_max":815,"o":"m 410 -11 q 273 1 339 -11 q 149 39 207 13 q 46 110 92 65 l 78 156 q 177 89 126 113 q 285 56 228 65 q 413 46 343 46 q 559 71 496 46 q 658 142 622 96 q 694 253 694 189 q 675 332 694 297 q 610 394 656 367 q 483 439 564 421 l 346 472 q 196 548 253 494 q 139 711 139 601 q 165 825 139 774 q 239 913 192 876 q 349 970 286 950 q 485 990 413 990 q 668 960 579 990 q 815 861 757 929 l 783 813 q 645 906 722 878 q 482 933 568 933 q 339 906 403 933 q 238 828 275 878 q 200 711 200 779 q 240 586 200 625 q 358 528 281 547 l 496 494 q 694 404 633 464 q 756 258 756 344 q 729 144 756 194 q 656 59 703 93 q 547 7 610 25 q 410 -11 483 -11 m 489 1063 l 671 1299 l 750 1299 l 542 1063 l 489 1063 z "},"Ṥ":{"ha":833,"x_min":46,"x_max":815,"o":"m 410 -11 q 273 1 339 -11 q 149 39 207 13 q 46 110 92 65 l 78 156 q 177 89 126 113 q 285 56 228 65 q 413 46 343 46 q 559 71 496 46 q 658 142 622 96 q 694 253 694 189 q 675 332 694 297 q 610 394 656 367 q 483 439 564 421 l 346 472 q 196 548 253 494 q 139 711 139 601 q 165 825 139 774 q 239 913 192 876 q 349 970 286 950 q 485 990 413 990 q 668 960 579 990 q 815 861 757 929 l 783 813 q 645 906 722 878 q 482 933 568 933 q 339 906 403 933 q 238 828 275 878 q 200 711 200 779 q 240 586 200 625 q 358 528 281 547 l 496 494 q 694 404 633 464 q 756 258 756 344 q 729 144 756 194 q 656 59 703 93 q 547 7 610 25 q 410 -11 483 -11 m 464 1356 l 476 1439 l 561 1439 l 549 1356 l 464 1356 m 490 1063 l 660 1340 l 736 1340 l 540 1063 l 490 1063 z "},"Š":{"ha":833,"x_min":46,"x_max":815,"o":"m 410 -11 q 273 1 339 -11 q 149 39 207 13 q 46 110 92 65 l 78 156 q 177 89 126 113 q 285 56 228 65 q 413 46 343 46 q 559 71 496 46 q 658 142 622 96 q 694 253 694 189 q 675 332 694 297 q 610 394 656 367 q 483 439 564 421 l 346 472 q 196 548 253 494 q 139 711 139 601 q 165 825 139 774 q 239 913 192 876 q 349 970 286 950 q 485 990 413 990 q 668 960 579 990 q 815 861 757 929 l 783 813 q 645 906 722 878 q 482 933 568 933 q 339 906 403 933 q 238 828 275 878 q 200 711 200 779 q 240 586 200 625 q 358 528 281 547 l 496 494 q 694 404 633 464 q 756 258 756 344 q 729 144 756 194 q 656 59 703 93 q 547 7 610 25 q 410 -11 483 -11 m 482 1063 l 339 1299 l 389 1299 l 515 1115 l 689 1299 l 742 1299 l 549 1063 l 482 1063 z "},"Ṧ":{"ha":833,"x_min":46,"x_max":815,"o":"m 410 -11 q 273 1 339 -11 q 149 39 207 13 q 46 110 92 65 l 78 156 q 177 89 126 113 q 285 56 228 65 q 413 46 343 46 q 559 71 496 46 q 658 142 622 96 q 694 253 694 189 q 675 332 694 297 q 610 394 656 367 q 483 439 564 421 l 346 472 q 196 548 253 494 q 139 711 139 601 q 165 825 139 774 q 239 913 192 876 q 349 970 286 950 q 485 990 413 990 q 668 960 579 990 q 815 861 757 929 l 783 813 q 645 906 722 878 q 482 933 568 933 q 339 906 403 933 q 238 828 275 878 q 200 711 200 779 q 240 586 200 625 q 358 528 281 547 l 496 494 q 694 404 633 464 q 756 258 756 344 q 729 144 756 194 q 656 59 703 93 q 547 7 610 25 q 410 -11 483 -11 m 482 1063 l 350 1285 l 399 1285 l 518 1117 l 671 1285 l 719 1285 l 549 1063 l 482 1063 m 508 1356 l 521 1439 l 606 1439 l 593 1356 l 508 1356 z "},"Ş":{"ha":833,"x_min":46,"x_max":815,"o":"m 410 -11 q 273 1 339 -11 q 149 39 207 13 q 46 110 92 65 l 78 156 q 177 89 126 113 q 285 56 228 65 q 413 46 343 46 q 559 71 496 46 q 658 142 622 96 q 694 253 694 189 q 675 332 694 297 q 610 394 656 367 q 483 439 564 421 l 346 472 q 196 548 253 494 q 139 711 139 601 q 165 825 139 774 q 239 913 192 876 q 349 970 286 950 q 485 990 413 990 q 668 960 579 990 q 815 861 757 929 l 783 813 q 645 906 722 878 q 482 933 568 933 q 339 906 403 933 q 238 828 275 878 q 200 711 200 779 q 240 586 200 625 q 358 528 281 547 l 496 494 q 694 404 633 464 q 756 258 756 344 q 729 144 756 194 q 656 59 703 93 q 547 7 610 25 q 410 -11 483 -11 m 372 -264 q 312 -257 340 -264 q 265 -239 283 -250 l 282 -192 q 328 -209 307 -204 q 382 -214 349 -214 q 447 -198 421 -214 q 474 -151 474 -182 q 461 -121 474 -132 q 425 -110 449 -110 q 393 -112 410 -110 q 351 -124 376 -115 l 333 -106 l 376 28 l 429 28 l 394 -76 l 369 -74 q 403 -67 388 -69 q 433 -64 419 -64 q 483 -74 461 -64 q 517 -102 504 -83 q 529 -147 529 -121 q 485 -231 529 -199 q 372 -264 440 -264 z "},"Ŝ":{"ha":833,"x_min":46,"x_max":815,"o":"m 410 -11 q 273 1 339 -11 q 149 39 207 13 q 46 110 92 65 l 78 156 q 177 89 126 113 q 285 56 228 65 q 413 46 343 46 q 559 71 496 46 q 658 142 622 96 q 694 253 694 189 q 675 332 694 297 q 610 394 656 367 q 483 439 564 421 l 346 472 q 196 548 253 494 q 139 711 139 601 q 165 825 139 774 q 239 913 192 876 q 349 970 286 950 q 485 990 413 990 q 668 960 579 990 q 815 861 757 929 l 783 813 q 645 906 722 878 q 482 933 568 933 q 339 906 403 933 q 238 828 275 878 q 200 711 200 779 q 240 586 200 625 q 358 528 281 547 l 496 494 q 694 404 633 464 q 756 258 756 344 q 729 144 756 194 q 656 59 703 93 q 547 7 610 25 q 410 -11 483 -11 m 301 1063 l 494 1299 l 561 1299 l 704 1063 l 653 1063 l 525 1246 l 353 1063 l 301 1063 z "},"Ș":{"ha":833,"x_min":46,"x_max":815,"o":"m 410 -11 q 273 1 339 -11 q 149 39 207 13 q 46 110 92 65 l 78 156 q 177 89 126 113 q 285 56 228 65 q 413 46 343 46 q 559 71 496 46 q 658 142 622 96 q 694 253 694 189 q 675 332 694 297 q 610 394 656 367 q 483 439 564 421 l 346 472 q 196 548 253 494 q 139 711 139 601 q 165 825 139 774 q 239 913 192 876 q 349 970 286 950 q 485 990 413 990 q 668 960 579 990 q 815 861 757 929 l 783 813 q 645 906 722 878 q 482 933 568 933 q 339 906 403 933 q 238 828 275 878 q 200 711 200 779 q 240 586 200 625 q 358 528 281 547 l 496 494 q 694 404 633 464 q 756 258 756 344 q 729 144 756 194 q 656 59 703 93 q 547 7 610 25 q 410 -11 483 -11 m 328 -360 l 300 -329 q 349 -268 338 -297 q 367 -200 360 -239 l 385 -210 l 315 -210 l 331 -119 l 428 -119 l 414 -204 q 385 -293 406 -254 q 328 -360 365 -332 z "},"Ṡ":{"ha":833,"x_min":46,"x_max":815,"o":"m 410 -11 q 273 1 339 -11 q 149 39 207 13 q 46 110 92 65 l 78 156 q 177 89 126 113 q 285 56 228 65 q 413 46 343 46 q 559 71 496 46 q 658 142 622 96 q 694 253 694 189 q 675 332 694 297 q 610 394 656 367 q 483 439 564 421 l 346 472 q 196 548 253 494 q 139 711 139 601 q 165 825 139 774 q 239 913 192 876 q 349 970 286 950 q 485 990 413 990 q 668 960 579 990 q 815 861 757 929 l 783 813 q 645 906 722 878 q 482 933 568 933 q 339 906 403 933 q 238 828 275 878 q 200 711 200 779 q 240 586 200 625 q 358 528 281 547 l 496 494 q 694 404 633 464 q 756 258 756 344 q 729 144 756 194 q 656 59 703 93 q 547 7 610 25 q 410 -11 483 -11 m 483 1136 l 497 1224 l 583 1224 l 569 1136 l 483 1136 z "},"Ṣ":{"ha":833,"x_min":46,"x_max":815,"o":"m 410 -11 q 273 1 339 -11 q 149 39 207 13 q 46 110 92 65 l 78 156 q 177 89 126 113 q 285 56 228 65 q 413 46 343 46 q 559 71 496 46 q 658 142 622 96 q 694 253 694 189 q 675 332 694 297 q 610 394 656 367 q 483 439 564 421 l 346 472 q 196 548 253 494 q 139 711 139 601 q 165 825 139 774 q 239 913 192 876 q 349 970 286 950 q 485 990 413 990 q 668 960 579 990 q 815 861 757 929 l 783 813 q 645 906 722 878 q 482 933 568 933 q 339 906 403 933 q 238 828 275 878 q 200 711 200 779 q 240 586 200 625 q 358 528 281 547 l 496 494 q 694 404 633 464 q 756 258 756 344 q 729 144 756 194 q 656 59 703 93 q 547 7 610 25 q 410 -11 483 -11 m 315 -239 l 329 -151 l 418 -151 l 404 -239 l 315 -239 z "},"Ṩ":{"ha":833,"x_min":46,"x_max":815,"o":"m 410 -11 q 273 1 339 -11 q 149 39 207 13 q 46 110 92 65 l 78 156 q 177 89 126 113 q 285 56 228 65 q 413 46 343 46 q 559 71 496 46 q 658 142 622 96 q 694 253 694 189 q 675 332 694 297 q 610 394 656 367 q 483 439 564 421 l 346 472 q 196 548 253 494 q 139 711 139 601 q 165 825 139 774 q 239 913 192 876 q 349 970 286 950 q 485 990 413 990 q 668 960 579 990 q 815 861 757 929 l 783 813 q 645 906 722 878 q 482 933 568 933 q 339 906 403 933 q 238 828 275 878 q 200 711 200 779 q 240 586 200 625 q 358 528 281 547 l 496 494 q 694 404 633 464 q 756 258 756 344 q 729 144 756 194 q 656 59 703 93 q 547 7 610 25 q 410 -11 483 -11 m 315 -239 l 329 -151 l 418 -151 l 404 -239 l 315 -239 m 483 1136 l 497 1224 l 583 1224 l 569 1136 l 483 1136 z "},"ẞ":{"ha":968,"x_min":81,"x_max":885,"o":"m 525 -11 q 420 1 471 -11 q 328 36 369 14 q 258 85 286 58 l 290 132 q 402 67 343 89 q 529 46 461 46 q 729 108 661 46 q 797 283 797 169 q 738 419 797 374 q 571 465 679 465 l 375 465 l 385 519 l 568 519 q 701 544 643 519 q 791 619 758 569 q 824 740 824 668 q 760 880 824 826 q 578 933 696 933 q 347 863 429 933 q 242 649 265 793 l 139 0 l 81 0 l 185 656 q 251 842 203 768 q 383 953 300 917 q 582 990 465 990 q 746 958 678 990 q 849 869 814 925 q 885 742 885 813 q 855 614 885 668 q 774 527 825 560 q 660 485 724 494 l 660 504 q 765 465 721 494 q 834 389 810 435 q 858 285 858 343 q 820 124 858 190 q 708 23 782 57 q 525 -11 633 -11 z "},"T":{"ha":814,"x_min":97,"x_max":911,"o":"m 324 0 l 471 925 l 97 925 l 106 979 l 911 979 l 903 925 l 529 925 l 382 0 l 324 0 z "},"Ŧ":{"ha":814,"x_min":97,"x_max":911,"o":"m 324 0 l 471 925 l 97 925 l 106 979 l 911 979 l 903 925 l 529 925 l 382 0 l 324 0 m 196 472 l 204 524 l 668 524 l 660 472 l 196 472 z "},"Ť":{"ha":814,"x_min":97,"x_max":911,"o":"m 324 0 l 471 925 l 97 925 l 106 979 l 911 979 l 903 925 l 529 925 l 382 0 l 324 0 m 489 1063 l 346 1299 l 396 1299 l 522 1115 l 696 1299 l 749 1299 l 556 1063 l 489 1063 z "},"Ţ":{"ha":814,"x_min":97,"x_max":911,"o":"m 324 0 l 471 925 l 97 925 l 106 979 l 911 979 l 903 925 l 529 925 l 382 0 l 324 0 m 328 -264 q 267 -257 296 -264 q 221 -239 239 -250 l 238 -192 q 283 -209 263 -204 q 338 -214 304 -214 q 403 -198 376 -214 q 429 -151 429 -182 q 417 -121 429 -132 q 381 -110 404 -110 q 349 -112 365 -110 q 307 -124 332 -115 l 289 -106 l 332 28 l 385 28 l 350 -76 l 325 -74 q 359 -67 343 -69 q 389 -64 375 -64 q 438 -74 417 -64 q 472 -102 460 -83 q 485 -147 485 -121 q 440 -231 485 -199 q 328 -264 396 -264 z "},"Ț":{"ha":814,"x_min":97,"x_max":911,"o":"m 324 0 l 471 925 l 97 925 l 106 979 l 911 979 l 903 925 l 529 925 l 382 0 l 324 0 m 283 -360 l 256 -329 q 304 -268 293 -297 q 322 -200 315 -239 l 340 -210 l 271 -210 l 286 -119 l 383 -119 l 369 -204 q 341 -293 361 -254 q 283 -360 321 -332 z "},"Ṭ":{"ha":814,"x_min":97,"x_max":911,"o":"m 324 0 l 471 925 l 97 925 l 106 979 l 911 979 l 903 925 l 529 925 l 382 0 l 324 0 m 271 -239 l 285 -151 l 374 -151 l 360 -239 l 271 -239 z "},"Ṯ":{"ha":814,"x_min":97,"x_max":911,"o":"m 324 0 l 471 925 l 97 925 l 106 979 l 911 979 l 903 925 l 529 925 l 382 0 l 324 0 m 126 -206 l 135 -153 l 524 -153 l 515 -206 l 126 -206 z "},"U":{"ha":1000,"x_min":119,"x_max":975,"o":"m 458 -11 q 299 15 367 -11 q 189 92 231 40 q 133 222 147 144 q 136 400 119 299 l 228 979 l 286 979 l 193 392 q 233 131 165 217 q 458 46 300 46 q 704 124 615 46 q 821 375 793 201 l 917 979 l 975 979 l 878 363 q 806 155 858 238 q 667 31 754 72 q 458 -11 581 -11 z "},"Ú":{"ha":1000,"x_min":119,"x_max":975,"o":"m 458 -11 q 299 15 367 -11 q 189 92 231 40 q 133 222 147 144 q 136 400 119 299 l 228 979 l 286 979 l 193 392 q 233 131 165 217 q 458 46 300 46 q 704 124 615 46 q 821 375 793 201 l 917 979 l 975 979 l 878 363 q 806 155 858 238 q 667 31 754 72 q 458 -11 581 -11 m 589 1063 l 771 1299 l 850 1299 l 642 1063 l 589 1063 z "},"Ŭ":{"ha":1000,"x_min":119,"x_max":975,"o":"m 458 -11 q 299 15 367 -11 q 189 92 231 40 q 133 222 147 144 q 136 400 119 299 l 228 979 l 286 979 l 193 392 q 233 131 165 217 q 458 46 300 46 q 704 124 615 46 q 821 375 793 201 l 917 979 l 975 979 l 878 363 q 806 155 858 238 q 667 31 754 72 q 458 -11 581 -11 m 619 1056 q 515 1083 561 1056 q 444 1163 469 1111 q 421 1288 419 1215 l 467 1293 q 506 1155 463 1204 q 624 1106 550 1106 q 747 1155 697 1106 q 811 1293 797 1204 l 857 1288 q 774 1117 839 1179 q 619 1056 708 1056 z "},"Û":{"ha":1000,"x_min":119,"x_max":975,"o":"m 458 -11 q 299 15 367 -11 q 189 92 231 40 q 133 222 147 144 q 136 400 119 299 l 228 979 l 286 979 l 193 392 q 233 131 165 217 q 458 46 300 46 q 704 124 615 46 q 821 375 793 201 l 917 979 l 975 979 l 878 363 q 806 155 858 238 q 667 31 754 72 q 458 -11 581 -11 m 401 1063 l 594 1299 l 661 1299 l 804 1063 l 753 1063 l 625 1246 l 453 1063 l 401 1063 z "},"Ȕ":{"ha":1000,"x_min":119,"x_max":975,"o":"m 458 -11 q 299 15 367 -11 q 189 92 231 40 q 133 222 147 144 q 136 400 119 299 l 228 979 l 286 979 l 193 392 q 233 131 165 217 q 458 46 300 46 q 704 124 615 46 q 821 375 793 201 l 917 979 l 975 979 l 878 363 q 806 155 858 238 q 667 31 754 72 q 458 -11 581 -11 m 672 1063 l 538 1299 l 608 1299 l 710 1063 l 672 1063 m 521 1063 l 388 1299 l 458 1299 l 558 1063 l 521 1063 z "},"Ü":{"ha":1000,"x_min":119,"x_max":975,"o":"m 458 -11 q 299 15 367 -11 q 189 92 231 40 q 133 222 147 144 q 136 400 119 299 l 228 979 l 286 979 l 193 392 q 233 131 165 217 q 458 46 300 46 q 704 124 615 46 q 821 375 793 201 l 917 979 l 975 979 l 878 363 q 806 155 858 238 q 667 31 754 72 q 458 -11 581 -11 m 696 1139 l 710 1222 l 794 1222 l 781 1139 l 696 1139 m 472 1139 l 486 1222 l 571 1222 l 557 1139 l 472 1139 z "},"Ụ":{"ha":1000,"x_min":119,"x_max":975,"o":"m 458 -11 q 299 15 367 -11 q 189 92 231 40 q 133 222 147 144 q 136 400 119 299 l 228 979 l 286 979 l 193 392 q 233 131 165 217 q 458 46 300 46 q 704 124 615 46 q 821 375 793 201 l 917 979 l 975 979 l 878 363 q 806 155 858 238 q 667 31 754 72 q 458 -11 581 -11 m 365 -239 l 379 -151 l 468 -151 l 454 -239 l 365 -239 z "},"Ù":{"ha":1000,"x_min":119,"x_max":975,"o":"m 458 -11 q 299 15 367 -11 q 189 92 231 40 q 133 222 147 144 q 136 400 119 299 l 228 979 l 286 979 l 193 392 q 233 131 165 217 q 458 46 300 46 q 704 124 615 46 q 821 375 793 201 l 917 979 l 975 979 l 878 363 q 806 155 858 238 q 667 31 754 72 q 458 -11 581 -11 m 589 1063 l 419 1299 l 496 1299 l 642 1063 l 589 1063 z "},"Ủ":{"ha":1000,"x_min":119,"x_max":975,"o":"m 458 -11 q 299 15 367 -11 q 189 92 231 40 q 133 222 147 144 q 136 400 119 299 l 228 979 l 286 979 l 193 392 q 233 131 165 217 q 458 46 300 46 q 704 124 615 46 q 821 375 793 201 l 917 979 l 975 979 l 878 363 q 806 155 858 238 q 667 31 754 72 q 458 -11 581 -11 m 589 1063 l 592 1082 q 613 1133 596 1114 q 650 1165 631 1153 q 684 1191 669 1178 q 699 1224 699 1204 q 683 1247 699 1239 q 631 1256 667 1256 q 588 1251 610 1256 q 538 1233 565 1246 l 529 1279 q 581 1299 553 1292 q 640 1306 610 1306 q 726 1285 696 1306 q 756 1229 756 1264 q 740 1179 756 1197 q 702 1149 724 1161 q 663 1120 681 1136 q 643 1076 646 1104 l 642 1063 l 589 1063 z "},"Ư":{"ha":1000,"x_min":119,"x_max":1168,"o":"m 458 -11 q 299 15 367 -11 q 189 92 231 40 q 133 222 147 144 q 136 400 119 299 l 228 979 l 286 979 l 193 392 q 233 131 165 217 q 458 46 300 46 q 704 124 615 46 q 821 375 793 201 l 917 979 l 975 979 l 878 363 q 806 155 858 238 q 667 31 754 72 q 458 -11 581 -11 m 929 926 l 911 944 l 917 979 q 1024 999 985 981 q 1082 1056 1063 1018 q 1110 1146 1101 1093 l 1113 1163 l 1168 1163 l 1164 1135 q 1124 1024 1154 1069 q 1044 954 1093 979 q 929 926 996 929 z "},"Ứ":{"ha":1000,"x_min":119,"x_max":1168,"o":"m 458 -11 q 299 15 367 -11 q 189 92 231 40 q 133 222 147 144 q 136 400 119 299 l 228 979 l 286 979 l 193 392 q 233 131 165 217 q 458 46 300 46 q 704 124 615 46 q 821 375 793 201 l 917 979 l 975 979 l 878 363 q 806 155 858 238 q 667 31 754 72 q 458 -11 581 -11 m 929 926 l 911 944 l 917 979 q 1024 999 985 981 q 1082 1056 1063 1018 q 1110 1146 1101 1093 l 1113 1163 l 1168 1163 l 1164 1135 q 1124 1024 1154 1069 q 1044 954 1093 979 q 929 926 996 929 m 589 1063 l 771 1299 l 850 1299 l 642 1063 l 589 1063 z "},"Ự":{"ha":1000,"x_min":119,"x_max":1168,"o":"m 458 -11 q 299 15 367 -11 q 189 92 231 40 q 133 222 147 144 q 136 400 119 299 l 228 979 l 286 979 l 193 392 q 233 131 165 217 q 458 46 300 46 q 704 124 615 46 q 821 375 793 201 l 917 979 l 975 979 l 878 363 q 806 155 858 238 q 667 31 754 72 q 458 -11 581 -11 m 929 926 l 911 944 l 917 979 q 1024 999 985 981 q 1082 1056 1063 1018 q 1110 1146 1101 1093 l 1113 1163 l 1168 1163 l 1164 1135 q 1124 1024 1154 1069 q 1044 954 1093 979 q 929 926 996 929 m 365 -239 l 379 -151 l 468 -151 l 454 -239 l 365 -239 z "},"Ừ":{"ha":1000,"x_min":119,"x_max":1168,"o":"m 458 -11 q 299 15 367 -11 q 189 92 231 40 q 133 222 147 144 q 136 400 119 299 l 228 979 l 286 979 l 193 392 q 233 131 165 217 q 458 46 300 46 q 704 124 615 46 q 821 375 793 201 l 917 979 l 975 979 l 878 363 q 806 155 858 238 q 667 31 754 72 q 458 -11 581 -11 m 929 926 l 911 944 l 917 979 q 1024 999 985 981 q 1082 1056 1063 1018 q 1110 1146 1101 1093 l 1113 1163 l 1168 1163 l 1164 1135 q 1124 1024 1154 1069 q 1044 954 1093 979 q 929 926 996 929 m 589 1063 l 419 1299 l 496 1299 l 642 1063 l 589 1063 z "},"Ử":{"ha":1000,"x_min":119,"x_max":1168,"o":"m 458 -11 q 299 15 367 -11 q 189 92 231 40 q 133 222 147 144 q 136 400 119 299 l 228 979 l 286 979 l 193 392 q 233 131 165 217 q 458 46 300 46 q 704 124 615 46 q 821 375 793 201 l 917 979 l 975 979 l 878 363 q 806 155 858 238 q 667 31 754 72 q 458 -11 581 -11 m 929 926 l 911 944 l 917 979 q 1024 999 985 981 q 1082 1056 1063 1018 q 1110 1146 1101 1093 l 1113 1163 l 1168 1163 l 1164 1135 q 1124 1024 1154 1069 q 1044 954 1093 979 q 929 926 996 929 m 589 1063 l 592 1082 q 613 1133 596 1114 q 650 1165 631 1153 q 684 1191 669 1178 q 699 1224 699 1204 q 683 1247 699 1239 q 631 1256 667 1256 q 588 1251 610 1256 q 538 1233 565 1246 l 529 1279 q 581 1299 553 1292 q 640 1306 610 1306 q 726 1285 696 1306 q 756 1229 756 1264 q 740 1179 756 1197 q 702 1149 724 1161 q 663 1120 681 1136 q 643 1076 646 1104 l 642 1063 l 589 1063 z "},"Ữ":{"ha":1000,"x_min":119,"x_max":1168,"o":"m 458 -11 q 299 15 367 -11 q 189 92 231 40 q 133 222 147 144 q 136 400 119 299 l 228 979 l 286 979 l 193 392 q 233 131 165 217 q 458 46 300 46 q 704 124 615 46 q 821 375 793 201 l 917 979 l 975 979 l 878 363 q 806 155 858 238 q 667 31 754 72 q 458 -11 581 -11 m 929 926 l 911 944 l 917 979 q 1024 999 985 981 q 1082 1056 1063 1018 q 1110 1146 1101 1093 l 1113 1163 l 1168 1163 l 1164 1135 q 1124 1024 1154 1069 q 1044 954 1093 979 q 929 926 996 929 m 419 1100 l 375 1103 q 408 1194 386 1157 q 461 1251 429 1232 q 533 1271 493 1271 q 601 1250 574 1271 q 653 1206 629 1229 q 694 1169 674 1185 q 740 1153 714 1153 q 809 1184 782 1153 q 850 1274 836 1215 l 894 1271 q 863 1180 885 1218 q 809 1122 840 1142 q 738 1103 778 1103 q 669 1124 697 1103 q 617 1168 640 1146 q 575 1205 596 1189 q 529 1221 554 1221 q 460 1190 488 1221 q 419 1100 433 1158 z "},"Ű":{"ha":1000,"x_min":119,"x_max":975,"o":"m 458 -11 q 299 15 367 -11 q 189 92 231 40 q 133 222 147 144 q 136 400 119 299 l 228 979 l 286 979 l 193 392 q 233 131 165 217 q 458 46 300 46 q 704 124 615 46 q 821 375 793 201 l 917 979 l 975 979 l 878 363 q 806 155 858 238 q 667 31 754 72 q 458 -11 581 -11 m 521 1063 l 660 1299 l 732 1299 l 558 1063 l 521 1063 m 672 1063 l 810 1299 l 882 1299 l 710 1063 l 672 1063 z "},"Ȗ":{"ha":1000,"x_min":119,"x_max":975,"o":"m 458 -11 q 299 15 367 -11 q 189 92 231 40 q 133 222 147 144 q 136 400 119 299 l 228 979 l 286 979 l 193 392 q 233 131 165 217 q 458 46 300 46 q 704 124 615 46 q 821 375 793 201 l 917 979 l 975 979 l 878 363 q 806 155 858 238 q 667 31 754 72 q 458 -11 581 -11 m 433 1056 l 388 1061 q 471 1231 406 1169 q 625 1293 536 1293 q 730 1265 685 1293 q 801 1185 775 1238 q 824 1061 826 1133 l 778 1056 q 738 1194 782 1146 q 621 1243 694 1243 q 497 1194 547 1243 q 433 1056 447 1146 z "},"Ū":{"ha":1000,"x_min":119,"x_max":975,"o":"m 458 -11 q 299 15 367 -11 q 189 92 231 40 q 133 222 147 144 q 136 400 119 299 l 228 979 l 286 979 l 193 392 q 233 131 165 217 q 458 46 300 46 q 704 124 615 46 q 821 375 793 201 l 917 979 l 975 979 l 878 363 q 806 155 858 238 q 667 31 754 72 q 458 -11 581 -11 m 413 1142 l 421 1194 l 851 1194 l 843 1142 l 413 1142 z "},"Ṻ":{"ha":1000,"x_min":119,"x_max":975,"o":"m 458 -11 q 299 15 367 -11 q 189 92 231 40 q 133 222 147 144 q 136 400 119 299 l 228 979 l 286 979 l 193 392 q 233 131 165 217 q 458 46 300 46 q 704 124 615 46 q 821 375 793 201 l 917 979 l 975 979 l 878 363 q 806 155 858 238 q 667 31 754 72 q 458 -11 581 -11 m 429 1119 l 438 1172 l 826 1172 l 818 1119 l 429 1119 m 492 1257 l 504 1340 l 589 1340 l 576 1257 l 492 1257 m 715 1257 l 728 1340 l 813 1340 l 800 1257 l 715 1257 z "},"Ų":{"ha":1000,"x_min":119,"x_max":975,"o":"m 458 -11 q 299 15 367 -11 q 189 92 231 40 q 133 222 147 144 q 136 400 119 299 l 228 979 l 286 979 l 193 392 q 233 131 165 217 q 458 46 300 46 q 704 124 615 46 q 821 375 793 201 l 917 979 l 975 979 l 878 363 q 806 155 858 238 q 667 31 754 72 q 458 -11 581 -11 m 492 -264 q 400 -230 432 -264 q 368 -143 368 -196 q 408 -33 368 -82 q 508 43 447 17 l 533 0 q 472 -37 496 -15 q 435 -84 447 -58 q 422 -137 422 -110 q 441 -193 422 -172 q 499 -214 460 -214 q 534 -210 515 -214 q 574 -196 553 -206 l 586 -243 q 546 -257 572 -250 q 492 -264 519 -264 z "},"Ů":{"ha":1000,"x_min":119,"x_max":975,"o":"m 458 -11 q 299 15 367 -11 q 189 92 231 40 q 133 222 147 144 q 136 400 119 299 l 228 979 l 286 979 l 193 392 q 233 131 165 217 q 458 46 300 46 q 704 124 615 46 q 821 375 793 201 l 917 979 l 975 979 l 878 363 q 806 155 858 238 q 667 31 754 72 q 458 -11 581 -11 m 639 1056 q 560 1076 596 1056 q 504 1132 525 1097 q 483 1208 483 1167 q 504 1285 483 1251 q 560 1340 525 1319 q 639 1361 596 1361 q 718 1340 683 1361 q 774 1285 753 1319 q 794 1208 794 1251 q 774 1132 794 1167 q 718 1076 753 1097 q 639 1056 683 1056 m 639 1100 q 717 1131 688 1100 q 747 1208 747 1163 q 717 1285 747 1254 q 639 1317 688 1317 q 561 1285 592 1317 q 531 1208 531 1254 q 561 1131 531 1163 q 639 1100 592 1100 z "},"Ũ":{"ha":1000,"x_min":119,"x_max":975,"o":"m 458 -11 q 299 15 367 -11 q 189 92 231 40 q 133 222 147 144 q 136 400 119 299 l 228 979 l 286 979 l 193 392 q 233 131 165 217 q 458 46 300 46 q 704 124 615 46 q 821 375 793 201 l 917 979 l 975 979 l 878 363 q 806 155 858 238 q 667 31 754 72 q 458 -11 581 -11 m 386 1100 l 342 1103 q 374 1194 353 1157 q 428 1251 396 1232 q 500 1271 460 1271 q 575 1250 540 1271 q 642 1206 610 1229 q 694 1169 669 1185 q 746 1153 719 1153 q 815 1184 788 1153 q 856 1274 842 1215 l 900 1271 q 844 1147 885 1190 q 743 1103 804 1103 q 667 1124 703 1103 q 600 1168 632 1146 q 547 1205 574 1189 q 496 1221 521 1221 q 427 1190 454 1221 q 386 1100 400 1158 z "},"Ṹ":{"ha":1000,"x_min":119,"x_max":975,"o":"m 458 -11 q 299 15 367 -11 q 189 92 231 40 q 133 222 147 144 q 136 400 119 299 l 228 979 l 286 979 l 193 392 q 233 131 165 217 q 458 46 300 46 q 704 124 615 46 q 821 375 793 201 l 917 979 l 975 979 l 878 363 q 806 155 858 238 q 667 31 754 72 q 458 -11 581 -11 m 613 1210 l 767 1418 l 843 1418 l 663 1210 l 613 1210 m 713 1067 q 661 1081 685 1067 q 615 1111 638 1096 q 578 1138 597 1126 q 538 1150 558 1150 q 490 1130 507 1150 q 461 1064 472 1110 l 415 1067 q 441 1141 424 1111 q 484 1185 458 1171 q 542 1200 510 1200 q 592 1186 569 1200 q 638 1156 615 1172 q 676 1129 657 1142 q 715 1117 694 1117 q 765 1137 747 1117 q 792 1203 782 1157 l 838 1200 q 793 1100 826 1133 q 713 1067 760 1067 z "},"V":{"ha":926,"x_min":113,"x_max":1017,"o":"m 376 0 l 113 979 l 172 979 l 428 33 l 394 33 l 950 979 l 1017 979 l 439 0 l 376 0 z "},"W":{"ha":1515,"x_min":154,"x_max":1564,"o":"m 338 0 l 154 979 l 213 979 l 389 26 l 346 26 l 826 979 l 881 979 l 1058 26 l 1021 26 l 1500 979 l 1564 979 l 1069 0 l 1010 0 l 836 932 l 864 932 l 394 0 l 338 0 z "},"Ẃ":{"ha":1515,"x_min":154,"x_max":1564,"o":"m 338 0 l 154 979 l 213 979 l 389 26 l 346 26 l 826 979 l 881 979 l 1058 26 l 1021 26 l 1500 979 l 1564 979 l 1069 0 l 1010 0 l 836 932 l 864 932 l 394 0 l 338 0 m 846 1063 l 1028 1299 l 1107 1299 l 899 1063 l 846 1063 z "},"Ŵ":{"ha":1515,"x_min":154,"x_max":1564,"o":"m 338 0 l 154 979 l 213 979 l 389 26 l 346 26 l 826 979 l 881 979 l 1058 26 l 1021 26 l 1500 979 l 1564 979 l 1069 0 l 1010 0 l 836 932 l 864 932 l 394 0 l 338 0 m 658 1063 l 851 1299 l 918 1299 l 1061 1063 l 1010 1063 l 882 1246 l 710 1063 l 658 1063 z "},"Ẅ":{"ha":1515,"x_min":154,"x_max":1564,"o":"m 338 0 l 154 979 l 213 979 l 389 26 l 346 26 l 826 979 l 881 979 l 1058 26 l 1021 26 l 1500 979 l 1564 979 l 1069 0 l 1010 0 l 836 932 l 864 932 l 394 0 l 338 0 m 953 1139 l 967 1222 l 1051 1222 l 1038 1139 l 953 1139 m 729 1139 l 743 1222 l 828 1222 l 814 1139 l 729 1139 z "},"Ẁ":{"ha":1515,"x_min":154,"x_max":1564,"o":"m 338 0 l 154 979 l 213 979 l 389 26 l 346 26 l 826 979 l 881 979 l 1058 26 l 1021 26 l 1500 979 l 1564 979 l 1069 0 l 1010 0 l 836 932 l 864 932 l 394 0 l 338 0 m 846 1063 l 676 1299 l 753 1299 l 899 1063 l 846 1063 z "},"X":{"ha":876,"x_min":-19,"x_max":925,"o":"m -19 0 l 438 511 l 438 496 l 158 979 l 222 979 l 476 538 l 463 538 l 851 979 l 925 979 l 492 489 l 492 515 l 790 0 l 726 0 l 451 475 l 478 475 l 54 0 l -19 0 z "},"Y":{"ha":801,"x_min":100,"x_max":904,"o":"m 317 0 l 397 510 l 403 456 l 100 979 l 163 979 l 433 511 l 411 511 l 832 979 l 904 979 l 432 456 l 456 510 l 375 0 l 317 0 z "},"Ý":{"ha":801,"x_min":100,"x_max":904,"o":"m 317 0 l 397 510 l 403 456 l 100 979 l 163 979 l 433 511 l 411 511 l 832 979 l 904 979 l 432 456 l 456 510 l 375 0 l 317 0 m 482 1063 l 664 1299 l 743 1299 l 535 1063 l 482 1063 z "},"Ŷ":{"ha":801,"x_min":100,"x_max":904,"o":"m 317 0 l 397 510 l 403 456 l 100 979 l 163 979 l 433 511 l 411 511 l 832 979 l 904 979 l 432 456 l 456 510 l 375 0 l 317 0 m 294 1063 l 488 1299 l 554 1299 l 697 1063 l 646 1063 l 518 1246 l 346 1063 l 294 1063 z "},"Ÿ":{"ha":801,"x_min":100,"x_max":904,"o":"m 317 0 l 397 510 l 403 456 l 100 979 l 163 979 l 433 511 l 411 511 l 832 979 l 904 979 l 432 456 l 456 510 l 375 0 l 317 0 m 589 1139 l 603 1222 l 688 1222 l 674 1139 l 589 1139 m 365 1139 l 379 1222 l 464 1222 l 450 1139 l 365 1139 z "},"Ẏ":{"ha":801,"x_min":100,"x_max":904,"o":"m 317 0 l 397 510 l 403 456 l 100 979 l 163 979 l 433 511 l 411 511 l 832 979 l 904 979 l 432 456 l 456 510 l 375 0 l 317 0 m 476 1136 l 490 1224 l 576 1224 l 563 1136 l 476 1136 z "},"Ỵ":{"ha":801,"x_min":100,"x_max":904,"o":"m 317 0 l 397 510 l 403 456 l 100 979 l 163 979 l 433 511 l 411 511 l 832 979 l 904 979 l 432 456 l 456 510 l 375 0 l 317 0 m 264 -239 l 278 -151 l 367 -151 l 353 -239 l 264 -239 z "},"Ỳ":{"ha":801,"x_min":100,"x_max":904,"o":"m 317 0 l 397 510 l 403 456 l 100 979 l 163 979 l 433 511 l 411 511 l 832 979 l 904 979 l 432 456 l 456 510 l 375 0 l 317 0 m 482 1063 l 313 1299 l 389 1299 l 535 1063 l 482 1063 z "},"Ƴ":{"ha":843,"x_min":100,"x_max":997,"o":"m 317 0 l 397 510 l 403 456 l 100 979 l 163 979 l 433 511 l 411 511 l 754 894 q 813 950 786 929 q 869 981 840 971 q 931 990 897 990 q 956 990 946 990 q 976 986 967 989 q 997 979 986 983 l 989 928 q 961 936 976 933 q 925 939 946 939 q 864 923 890 939 q 801 867 838 907 l 432 456 l 456 510 l 375 0 l 317 0 z "},"Ỷ":{"ha":801,"x_min":100,"x_max":904,"o":"m 317 0 l 397 510 l 403 456 l 100 979 l 163 979 l 433 511 l 411 511 l 832 979 l 904 979 l 432 456 l 456 510 l 375 0 l 317 0 m 482 1063 l 485 1082 q 506 1133 489 1114 q 543 1165 524 1153 q 577 1191 563 1178 q 592 1224 592 1204 q 576 1247 592 1239 q 524 1256 560 1256 q 481 1251 503 1256 q 431 1233 458 1246 l 422 1279 q 474 1299 446 1292 q 533 1306 503 1306 q 619 1285 589 1306 q 649 1229 649 1264 q 633 1179 649 1197 q 595 1149 617 1161 q 556 1120 574 1136 q 536 1076 539 1104 l 535 1063 l 482 1063 z "},"Ȳ":{"ha":801,"x_min":100,"x_max":904,"o":"m 317 0 l 397 510 l 403 456 l 100 979 l 163 979 l 433 511 l 411 511 l 832 979 l 904 979 l 432 456 l 456 510 l 375 0 l 317 0 m 306 1142 l 314 1194 l 744 1194 l 736 1142 l 306 1142 z "},"Ỹ":{"ha":801,"x_min":100,"x_max":904,"o":"m 317 0 l 397 510 l 403 456 l 100 979 l 163 979 l 433 511 l 411 511 l 832 979 l 904 979 l 432 456 l 456 510 l 375 0 l 317 0 m 279 1100 l 235 1103 q 267 1194 246 1157 q 321 1251 289 1232 q 393 1271 353 1271 q 468 1250 433 1271 q 535 1206 503 1229 q 588 1169 563 1185 q 639 1153 613 1153 q 708 1184 681 1153 q 749 1274 735 1215 l 793 1271 q 738 1147 778 1190 q 636 1103 697 1103 q 560 1124 596 1103 q 493 1168 525 1146 q 440 1205 467 1189 q 389 1221 414 1221 q 320 1190 347 1221 q 279 1100 293 1158 z "},"Z":{"ha":799,"x_min":15,"x_max":850,"o":"m 15 0 l 22 43 l 786 957 l 786 925 l 161 925 l 171 979 l 850 979 l 843 936 l 78 22 l 78 54 l 722 54 l 714 0 l 15 0 z "},"Ź":{"ha":799,"x_min":15,"x_max":850,"o":"m 15 0 l 22 43 l 786 957 l 786 925 l 161 925 l 171 979 l 850 979 l 843 936 l 78 22 l 78 54 l 722 54 l 714 0 l 15 0 m 493 1063 l 675 1299 l 754 1299 l 546 1063 l 493 1063 z "},"Ž":{"ha":799,"x_min":15,"x_max":850,"o":"m 15 0 l 22 43 l 786 957 l 786 925 l 161 925 l 171 979 l 850 979 l 843 936 l 78 22 l 78 54 l 722 54 l 714 0 l 15 0 m 486 1063 l 343 1299 l 393 1299 l 519 1115 l 693 1299 l 746 1299 l 553 1063 l 486 1063 z "},"Ż":{"ha":799,"x_min":15,"x_max":850,"o":"m 15 0 l 22 43 l 786 957 l 786 925 l 161 925 l 171 979 l 850 979 l 843 936 l 78 22 l 78 54 l 722 54 l 714 0 l 15 0 m 488 1136 l 501 1224 l 588 1224 l 574 1136 l 488 1136 z "},"Ẓ":{"ha":799,"x_min":15,"x_max":850,"o":"m 15 0 l 22 43 l 786 957 l 786 925 l 161 925 l 171 979 l 850 979 l 843 936 l 78 22 l 78 54 l 722 54 l 714 0 l 15 0 m 297 -239 l 311 -151 l 400 -151 l 386 -239 l 297 -239 z "},"a":{"ha":714,"x_min":68,"x_max":626,"o":"m 285 -11 q 179 13 229 -11 q 99 82 129 38 q 68 186 68 126 q 108 300 68 257 q 232 363 147 343 q 450 382 317 382 l 563 382 l 554 331 l 472 331 q 269 317 343 331 q 165 273 196 304 q 133 189 133 242 q 181 79 133 117 q 289 42 229 42 q 395 68 344 42 q 482 144 446 94 q 529 265 518 194 l 557 438 q 535 581 572 532 q 401 629 499 629 q 283 612 338 629 q 175 556 228 594 l 150 606 q 224 647 182 629 q 312 674 265 664 q 404 683 358 683 q 537 652 486 683 q 607 562 588 621 q 613 419 626 503 l 546 0 l 489 0 l 514 161 l 528 161 q 472 65 510 103 q 384 8 433 26 q 285 -11 335 -11 z "},"á":{"ha":714,"x_min":68,"x_max":669,"o":"m 285 -11 q 179 13 229 -11 q 99 82 129 38 q 68 186 68 126 q 108 300 68 257 q 232 363 147 343 q 450 382 317 382 l 563 382 l 554 331 l 472 331 q 269 317 343 331 q 165 273 196 304 q 133 189 133 242 q 181 79 133 117 q 289 42 229 42 q 395 68 344 42 q 482 144 446 94 q 529 265 518 194 l 557 438 q 535 581 572 532 q 401 629 499 629 q 283 612 338 629 q 175 556 228 594 l 150 606 q 224 647 182 629 q 312 674 265 664 q 404 683 358 683 q 537 652 486 683 q 607 562 588 621 q 613 419 626 503 l 546 0 l 489 0 l 514 161 l 528 161 q 472 65 510 103 q 384 8 433 26 q 285 -11 335 -11 m 406 763 l 593 1040 l 669 1040 l 456 763 l 406 763 z "},"ă":{"ha":714,"x_min":68,"x_max":663,"o":"m 285 -11 q 179 13 229 -11 q 99 82 129 38 q 68 186 68 126 q 108 300 68 257 q 232 363 147 343 q 450 382 317 382 l 563 382 l 554 331 l 472 331 q 269 317 343 331 q 165 273 196 304 q 133 189 133 242 q 181 79 133 117 q 289 42 229 42 q 395 68 344 42 q 482 144 446 94 q 529 265 518 194 l 557 438 q 535 581 572 532 q 401 629 499 629 q 283 612 338 629 q 175 556 228 594 l 150 606 q 224 647 182 629 q 312 674 265 664 q 404 683 358 683 q 537 652 486 683 q 607 562 588 621 q 613 419 626 503 l 546 0 l 489 0 l 514 161 l 528 161 q 472 65 510 103 q 384 8 433 26 q 285 -11 335 -11 m 443 760 q 344 791 386 760 q 280 881 301 822 q 263 1019 258 939 l 308 1025 q 340 866 303 922 q 444 810 376 810 q 558 866 514 810 q 617 1025 603 922 l 663 1019 q 622 881 651 939 q 547 791 592 822 q 443 760 501 760 z "},"ắ":{"ha":714,"x_min":68,"x_max":647,"o":"m 285 -11 q 179 13 229 -11 q 99 82 129 38 q 68 186 68 126 q 108 300 68 257 q 232 363 147 343 q 450 382 317 382 l 563 382 l 554 331 l 472 331 q 269 317 343 331 q 165 273 196 304 q 133 189 133 242 q 181 79 133 117 q 289 42 229 42 q 395 68 344 42 q 482 144 446 94 q 529 265 518 194 l 557 438 q 535 581 572 532 q 401 629 499 629 q 283 612 338 629 q 175 556 228 594 l 150 606 q 224 647 182 629 q 312 674 265 664 q 404 683 358 683 q 537 652 486 683 q 607 562 588 621 q 613 419 626 503 l 546 0 l 489 0 l 514 161 l 528 161 q 472 65 510 103 q 384 8 433 26 q 285 -11 335 -11 m 432 760 q 294 814 346 760 q 247 964 243 868 l 293 969 q 327 851 289 893 q 433 810 365 810 q 547 851 503 810 q 601 969 590 893 l 647 964 q 576 814 633 868 q 432 760 518 760 m 403 903 l 556 1111 l 632 1111 l 453 903 l 403 903 z "},"ặ":{"ha":714,"x_min":68,"x_max":663,"o":"m 285 -11 q 179 13 229 -11 q 99 82 129 38 q 68 186 68 126 q 108 300 68 257 q 232 363 147 343 q 450 382 317 382 l 563 382 l 554 331 l 472 331 q 269 317 343 331 q 165 273 196 304 q 133 189 133 242 q 181 79 133 117 q 289 42 229 42 q 395 68 344 42 q 482 144 446 94 q 529 265 518 194 l 557 438 q 535 581 572 532 q 401 629 499 629 q 283 612 338 629 q 175 556 228 594 l 150 606 q 224 647 182 629 q 312 674 265 664 q 404 683 358 683 q 537 652 486 683 q 607 562 588 621 q 613 419 626 503 l 546 0 l 489 0 l 514 161 l 528 161 q 472 65 510 103 q 384 8 433 26 q 285 -11 335 -11 m 235 -239 l 249 -151 l 338 -151 l 324 -239 l 235 -239 m 443 760 q 344 791 386 760 q 280 881 301 822 q 263 1019 258 939 l 308 1025 q 340 866 303 922 q 444 810 376 810 q 558 866 514 810 q 617 1025 603 922 l 663 1019 q 622 881 651 939 q 547 791 592 822 q 443 760 501 760 z "},"ằ":{"ha":714,"x_min":68,"x_max":647,"o":"m 285 -11 q 179 13 229 -11 q 99 82 129 38 q 68 186 68 126 q 108 300 68 257 q 232 363 147 343 q 450 382 317 382 l 563 382 l 554 331 l 472 331 q 269 317 343 331 q 165 273 196 304 q 133 189 133 242 q 181 79 133 117 q 289 42 229 42 q 395 68 344 42 q 482 144 446 94 q 529 265 518 194 l 557 438 q 535 581 572 532 q 401 629 499 629 q 283 612 338 629 q 175 556 228 594 l 150 606 q 224 647 182 629 q 312 674 265 664 q 404 683 358 683 q 537 652 486 683 q 607 562 588 621 q 613 419 626 503 l 546 0 l 489 0 l 514 161 l 528 161 q 472 65 510 103 q 384 8 433 26 q 285 -11 335 -11 m 432 760 q 294 814 346 760 q 247 964 243 868 l 293 969 q 327 851 289 893 q 433 810 365 810 q 547 851 503 810 q 601 969 590 893 l 647 964 q 576 814 633 868 q 432 760 518 760 m 425 903 l 282 1111 l 356 1111 l 475 903 l 425 903 z "},"ẳ":{"ha":714,"x_min":68,"x_max":647,"o":"m 285 -11 q 179 13 229 -11 q 99 82 129 38 q 68 186 68 126 q 108 300 68 257 q 232 363 147 343 q 450 382 317 382 l 563 382 l 554 331 l 472 331 q 269 317 343 331 q 165 273 196 304 q 133 189 133 242 q 181 79 133 117 q 289 42 229 42 q 395 68 344 42 q 482 144 446 94 q 529 265 518 194 l 557 438 q 535 581 572 532 q 401 629 499 629 q 283 612 338 629 q 175 556 228 594 l 150 606 q 224 647 182 629 q 312 674 265 664 q 404 683 358 683 q 537 652 486 683 q 607 562 588 621 q 613 419 626 503 l 546 0 l 489 0 l 514 161 l 528 161 q 472 65 510 103 q 384 8 433 26 q 285 -11 335 -11 m 432 760 q 294 814 346 760 q 247 964 243 868 l 293 969 q 327 851 289 893 q 433 810 365 810 q 547 851 503 810 q 601 969 590 893 l 647 964 q 576 814 633 868 q 432 760 518 760 m 418 903 q 437 957 421 938 q 473 988 453 976 q 508 1012 493 1000 q 524 1042 524 1024 q 506 1065 524 1058 q 464 1071 489 1071 q 413 1066 440 1071 q 364 1054 386 1061 l 356 1094 q 406 1111 379 1106 q 463 1117 433 1117 q 548 1099 518 1117 q 578 1050 578 1082 q 562 1002 578 1019 q 524 972 546 985 q 485 945 501 960 q 465 903 468 931 l 418 903 z "},"ẵ":{"ha":714,"x_min":68,"x_max":674,"o":"m 285 -11 q 179 13 229 -11 q 99 82 129 38 q 68 186 68 126 q 108 300 68 257 q 232 363 147 343 q 450 382 317 382 l 563 382 l 554 331 l 472 331 q 269 317 343 331 q 165 273 196 304 q 133 189 133 242 q 181 79 133 117 q 289 42 229 42 q 395 68 344 42 q 482 144 446 94 q 529 265 518 194 l 557 438 q 535 581 572 532 q 401 629 499 629 q 283 612 338 629 q 175 556 228 594 l 150 606 q 224 647 182 629 q 312 674 265 664 q 404 683 358 683 q 537 652 486 683 q 607 562 588 621 q 613 419 626 503 l 546 0 l 489 0 l 514 161 l 528 161 q 472 65 510 103 q 384 8 433 26 q 285 -11 335 -11 m 432 760 q 303 799 356 760 q 240 908 251 839 l 286 914 q 335 837 297 864 q 432 810 374 810 q 533 837 490 810 q 594 914 575 864 l 640 908 q 563 800 618 840 q 432 760 508 760 m 292 979 l 246 982 q 270 1056 254 1026 q 310 1101 286 1086 q 367 1115 335 1115 q 423 1101 397 1115 q 472 1069 449 1086 q 511 1044 492 1056 q 551 1032 531 1032 q 600 1052 583 1032 q 628 1118 617 1072 l 674 1115 q 632 1015 663 1049 q 554 982 601 982 q 497 997 524 982 q 447 1028 471 1011 q 408 1054 428 1043 q 368 1065 388 1065 q 320 1045 338 1065 q 292 979 303 1025 z "},"ǎ":{"ha":714,"x_min":68,"x_max":646,"o":"m 285 -11 q 179 13 229 -11 q 99 82 129 38 q 68 186 68 126 q 108 300 68 257 q 232 363 147 343 q 450 382 317 382 l 563 382 l 554 331 l 472 331 q 269 317 343 331 q 165 273 196 304 q 133 189 133 242 q 181 79 133 117 q 289 42 229 42 q 395 68 344 42 q 482 144 446 94 q 529 265 518 194 l 557 438 q 535 581 572 532 q 401 629 499 629 q 283 612 338 629 q 175 556 228 594 l 150 606 q 224 647 182 629 q 312 674 265 664 q 404 683 358 683 q 537 652 486 683 q 607 562 588 621 q 613 419 626 503 l 546 0 l 489 0 l 514 161 l 528 161 q 472 65 510 103 q 384 8 433 26 q 285 -11 335 -11 m 397 763 l 276 1040 l 324 1040 l 433 817 l 596 1040 l 646 1040 l 464 763 l 397 763 z "},"â":{"ha":714,"x_min":68,"x_max":626,"o":"m 285 -11 q 179 13 229 -11 q 99 82 129 38 q 68 186 68 126 q 108 300 68 257 q 232 363 147 343 q 450 382 317 382 l 563 382 l 554 331 l 472 331 q 269 317 343 331 q 165 273 196 304 q 133 189 133 242 q 181 79 133 117 q 289 42 229 42 q 395 68 344 42 q 482 144 446 94 q 529 265 518 194 l 557 438 q 535 581 572 532 q 401 629 499 629 q 283 612 338 629 q 175 556 228 594 l 150 606 q 224 647 182 629 q 312 674 265 664 q 404 683 358 683 q 537 652 486 683 q 607 562 588 621 q 613 419 626 503 l 546 0 l 489 0 l 514 161 l 528 161 q 472 65 510 103 q 384 8 433 26 q 285 -11 335 -11 m 244 763 l 426 1040 l 493 1040 l 614 763 l 567 763 l 457 986 l 294 763 l 244 763 z "},"ấ":{"ha":714,"x_min":68,"x_max":760,"o":"m 285 -11 q 179 13 229 -11 q 99 82 129 38 q 68 186 68 126 q 108 300 68 257 q 232 363 147 343 q 450 382 317 382 l 563 382 l 554 331 l 472 331 q 269 317 343 331 q 165 273 196 304 q 133 189 133 242 q 181 79 133 117 q 289 42 229 42 q 395 68 344 42 q 482 144 446 94 q 529 265 518 194 l 557 438 q 535 581 572 532 q 401 629 499 629 q 283 612 338 629 q 175 556 228 594 l 150 606 q 224 647 182 629 q 312 674 265 664 q 404 683 358 683 q 537 652 486 683 q 607 562 588 621 q 613 419 626 503 l 546 0 l 489 0 l 514 161 l 528 161 q 472 65 510 103 q 384 8 433 26 q 285 -11 335 -11 m 235 763 l 406 985 l 472 985 l 604 763 l 557 763 l 436 933 l 282 763 l 235 763 m 544 903 l 683 1111 l 760 1111 l 594 903 l 544 903 z "},"ậ":{"ha":714,"x_min":68,"x_max":626,"o":"m 285 -11 q 179 13 229 -11 q 99 82 129 38 q 68 186 68 126 q 108 300 68 257 q 232 363 147 343 q 450 382 317 382 l 563 382 l 554 331 l 472 331 q 269 317 343 331 q 165 273 196 304 q 133 189 133 242 q 181 79 133 117 q 289 42 229 42 q 395 68 344 42 q 482 144 446 94 q 529 265 518 194 l 557 438 q 535 581 572 532 q 401 629 499 629 q 283 612 338 629 q 175 556 228 594 l 150 606 q 224 647 182 629 q 312 674 265 664 q 404 683 358 683 q 537 652 486 683 q 607 562 588 621 q 613 419 626 503 l 546 0 l 489 0 l 514 161 l 528 161 q 472 65 510 103 q 384 8 433 26 q 285 -11 335 -11 m 235 -239 l 249 -151 l 338 -151 l 324 -239 l 235 -239 m 244 763 l 426 1040 l 493 1040 l 614 763 l 567 763 l 457 986 l 294 763 l 244 763 z "},"ầ":{"ha":714,"x_min":68,"x_max":651,"o":"m 285 -11 q 179 13 229 -11 q 99 82 129 38 q 68 186 68 126 q 108 300 68 257 q 232 363 147 343 q 450 382 317 382 l 563 382 l 554 331 l 472 331 q 269 317 343 331 q 165 273 196 304 q 133 189 133 242 q 181 79 133 117 q 289 42 229 42 q 395 68 344 42 q 482 144 446 94 q 529 265 518 194 l 557 438 q 535 581 572 532 q 401 629 499 629 q 283 612 338 629 q 175 556 228 594 l 150 606 q 224 647 182 629 q 312 674 265 664 q 404 683 358 683 q 537 652 486 683 q 607 562 588 621 q 613 419 626 503 l 546 0 l 489 0 l 514 161 l 528 161 q 472 65 510 103 q 384 8 433 26 q 285 -11 335 -11 m 235 763 l 406 985 l 472 985 l 604 763 l 557 763 l 436 933 l 282 763 l 235 763 m 601 903 l 472 1111 l 546 1111 l 651 903 l 601 903 z "},"ẩ":{"ha":714,"x_min":68,"x_max":721,"o":"m 285 -11 q 179 13 229 -11 q 99 82 129 38 q 68 186 68 126 q 108 300 68 257 q 232 363 147 343 q 450 382 317 382 l 563 382 l 554 331 l 472 331 q 269 317 343 331 q 165 273 196 304 q 133 189 133 242 q 181 79 133 117 q 289 42 229 42 q 395 68 344 42 q 482 144 446 94 q 529 265 518 194 l 557 438 q 535 581 572 532 q 401 629 499 629 q 283 612 338 629 q 175 556 228 594 l 150 606 q 224 647 182 629 q 312 674 265 664 q 404 683 358 683 q 537 652 486 683 q 607 562 588 621 q 613 419 626 503 l 546 0 l 489 0 l 514 161 l 528 161 q 472 65 510 103 q 384 8 433 26 q 285 -11 335 -11 m 235 763 l 406 985 l 472 985 l 604 763 l 557 763 l 436 933 l 282 763 l 235 763 m 561 903 q 580 957 564 938 q 616 988 596 976 q 651 1012 636 1000 q 667 1043 667 1024 q 649 1065 667 1058 q 607 1071 632 1071 q 556 1066 583 1071 q 507 1054 529 1061 l 499 1094 q 549 1111 522 1106 q 606 1117 576 1117 q 691 1099 661 1117 q 721 1050 721 1082 q 705 1002 721 1019 q 667 972 689 985 q 628 945 644 960 q 608 903 611 931 l 561 903 z "},"ẫ":{"ha":714,"x_min":68,"x_max":650,"o":"m 285 -11 q 179 13 229 -11 q 99 82 129 38 q 68 186 68 126 q 108 300 68 257 q 232 363 147 343 q 450 382 317 382 l 563 382 l 554 331 l 472 331 q 269 317 343 331 q 165 273 196 304 q 133 189 133 242 q 181 79 133 117 q 289 42 229 42 q 395 68 344 42 q 482 144 446 94 q 529 265 518 194 l 557 438 q 535 581 572 532 q 401 629 499 629 q 283 612 338 629 q 175 556 228 594 l 150 606 q 224 647 182 629 q 312 674 265 664 q 404 683 358 683 q 537 652 486 683 q 607 562 588 621 q 613 419 626 503 l 546 0 l 489 0 l 514 161 l 528 161 q 472 65 510 103 q 384 8 433 26 q 285 -11 335 -11 m 235 763 l 401 943 l 468 943 l 604 763 l 557 763 l 432 896 l 282 763 l 235 763 m 278 979 l 233 982 q 257 1056 240 1026 q 298 1101 274 1086 q 354 1115 322 1115 q 408 1101 385 1115 q 453 1069 432 1086 q 490 1044 472 1056 q 528 1032 507 1032 q 576 1052 560 1032 q 604 1118 593 1072 l 650 1115 q 608 1015 638 1049 q 531 982 578 982 q 476 997 500 982 q 431 1028 451 1011 q 394 1054 413 1043 q 356 1065 375 1065 q 307 1045 325 1065 q 278 979 289 1025 z "},"ȁ":{"ha":714,"x_min":68,"x_max":626,"o":"m 285 -11 q 179 13 229 -11 q 99 82 129 38 q 68 186 68 126 q 108 300 68 257 q 232 363 147 343 q 450 382 317 382 l 563 382 l 554 331 l 472 331 q 269 317 343 331 q 165 273 196 304 q 133 189 133 242 q 181 79 133 117 q 289 42 229 42 q 395 68 344 42 q 482 144 446 94 q 529 265 518 194 l 557 438 q 535 581 572 532 q 401 629 499 629 q 283 612 338 629 q 175 556 228 594 l 150 606 q 224 647 182 629 q 312 674 265 664 q 404 683 358 683 q 537 652 486 683 q 607 562 588 621 q 613 419 626 503 l 546 0 l 489 0 l 514 161 l 528 161 q 472 65 510 103 q 384 8 433 26 q 285 -11 335 -11 m 488 763 l 403 1040 l 468 1040 l 525 763 l 488 763 m 336 763 l 251 1040 l 317 1040 l 374 763 l 336 763 z "},"ä":{"ha":714,"x_min":68,"x_max":626,"o":"m 285 -11 q 179 13 229 -11 q 99 82 129 38 q 68 186 68 126 q 108 300 68 257 q 232 363 147 343 q 450 382 317 382 l 563 382 l 554 331 l 472 331 q 269 317 343 331 q 165 273 196 304 q 133 189 133 242 q 181 79 133 117 q 289 42 229 42 q 395 68 344 42 q 482 144 446 94 q 529 265 518 194 l 557 438 q 535 581 572 532 q 401 629 499 629 q 283 612 338 629 q 175 556 228 594 l 150 606 q 224 647 182 629 q 312 674 265 664 q 404 683 358 683 q 537 652 486 683 q 607 562 588 621 q 613 419 626 503 l 546 0 l 489 0 l 514 161 l 528 161 q 472 65 510 103 q 384 8 433 26 q 285 -11 335 -11 m 517 861 l 529 944 l 614 944 l 601 861 l 517 861 m 293 861 l 306 944 l 390 944 l 378 861 l 293 861 z "},"ȧ":{"ha":714,"x_min":68,"x_max":626,"o":"m 285 -11 q 179 13 229 -11 q 99 82 129 38 q 68 186 68 126 q 108 300 68 257 q 232 363 147 343 q 450 382 317 382 l 563 382 l 554 331 l 472 331 q 269 317 343 331 q 165 273 196 304 q 133 189 133 242 q 181 79 133 117 q 289 42 229 42 q 395 68 344 42 q 482 144 446 94 q 529 265 518 194 l 557 438 q 535 581 572 532 q 401 629 499 629 q 283 612 338 629 q 175 556 228 594 l 150 606 q 224 647 182 629 q 312 674 265 664 q 404 683 358 683 q 537 652 486 683 q 607 562 588 621 q 613 419 626 503 l 546 0 l 489 0 l 514 161 l 528 161 q 472 65 510 103 q 384 8 433 26 q 285 -11 335 -11 m 401 860 l 415 947 l 504 947 l 490 860 l 401 860 z "},"ạ":{"ha":714,"x_min":68,"x_max":626,"o":"m 285 -11 q 179 13 229 -11 q 99 82 129 38 q 68 186 68 126 q 108 300 68 257 q 232 363 147 343 q 450 382 317 382 l 563 382 l 554 331 l 472 331 q 269 317 343 331 q 165 273 196 304 q 133 189 133 242 q 181 79 133 117 q 289 42 229 42 q 395 68 344 42 q 482 144 446 94 q 529 265 518 194 l 557 438 q 535 581 572 532 q 401 629 499 629 q 283 612 338 629 q 175 556 228 594 l 150 606 q 224 647 182 629 q 312 674 265 664 q 404 683 358 683 q 537 652 486 683 q 607 562 588 621 q 613 419 626 503 l 546 0 l 489 0 l 514 161 l 528 161 q 472 65 510 103 q 384 8 433 26 q 285 -11 335 -11 m 235 -239 l 249 -151 l 338 -151 l 324 -239 l 235 -239 z "},"à":{"ha":714,"x_min":68,"x_max":626,"o":"m 285 -11 q 179 13 229 -11 q 99 82 129 38 q 68 186 68 126 q 108 300 68 257 q 232 363 147 343 q 450 382 317 382 l 563 382 l 554 331 l 472 331 q 269 317 343 331 q 165 273 196 304 q 133 189 133 242 q 181 79 133 117 q 289 42 229 42 q 395 68 344 42 q 482 144 446 94 q 529 265 518 194 l 557 438 q 535 581 572 532 q 401 629 499 629 q 283 612 338 629 q 175 556 228 594 l 150 606 q 224 647 182 629 q 312 674 265 664 q 404 683 358 683 q 537 652 486 683 q 607 562 588 621 q 613 419 626 503 l 546 0 l 489 0 l 514 161 l 528 161 q 472 65 510 103 q 384 8 433 26 q 285 -11 335 -11 m 403 763 l 208 1040 l 282 1040 l 453 763 l 403 763 z "},"ả":{"ha":714,"x_min":68,"x_max":626,"o":"m 285 -11 q 179 13 229 -11 q 99 82 129 38 q 68 186 68 126 q 108 300 68 257 q 232 363 147 343 q 450 382 317 382 l 563 382 l 554 331 l 472 331 q 269 317 343 331 q 165 273 196 304 q 133 189 133 242 q 181 79 133 117 q 289 42 229 42 q 395 68 344 42 q 482 144 446 94 q 529 265 518 194 l 557 438 q 535 581 572 532 q 401 629 499 629 q 283 612 338 629 q 175 556 228 594 l 150 606 q 224 647 182 629 q 312 674 265 664 q 404 683 358 683 q 537 652 486 683 q 607 562 588 621 q 613 419 626 503 l 546 0 l 489 0 l 514 161 l 528 161 q 472 65 510 103 q 384 8 433 26 q 285 -11 335 -11 m 399 763 l 403 790 q 425 846 408 824 q 462 885 442 868 q 497 919 482 903 q 511 958 511 936 q 495 988 511 978 q 443 997 479 997 q 400 992 422 997 q 350 975 378 988 l 342 1019 q 394 1041 365 1035 q 453 1047 422 1047 q 538 1026 508 1047 q 568 965 568 1004 q 553 906 568 928 q 517 869 538 885 q 478 835 496 854 q 453 783 460 817 l 449 763 l 399 763 z "},"ȃ":{"ha":714,"x_min":68,"x_max":626,"o":"m 285 -11 q 179 13 229 -11 q 99 82 129 38 q 68 186 68 126 q 108 300 68 257 q 232 363 147 343 q 450 382 317 382 l 563 382 l 554 331 l 472 331 q 269 317 343 331 q 165 273 196 304 q 133 189 133 242 q 181 79 133 117 q 289 42 229 42 q 395 68 344 42 q 482 144 446 94 q 529 265 518 194 l 557 438 q 535 581 572 532 q 401 629 499 629 q 283 612 338 629 q 175 556 228 594 l 150 606 q 224 647 182 629 q 312 674 265 664 q 404 683 358 683 q 537 652 486 683 q 607 562 588 621 q 613 419 626 503 l 546 0 l 489 0 l 514 161 l 528 161 q 472 65 510 103 q 384 8 433 26 q 285 -11 335 -11 m 267 760 l 221 765 q 263 905 233 847 q 338 994 293 963 q 440 1025 383 1025 q 540 994 499 1025 q 603 905 582 963 q 621 765 625 847 l 575 760 q 545 919 582 863 q 439 975 508 975 q 326 919 371 975 q 267 760 281 863 z "},"ā":{"ha":714,"x_min":68,"x_max":653,"o":"m 285 -11 q 179 13 229 -11 q 99 82 129 38 q 68 186 68 126 q 108 300 68 257 q 232 363 147 343 q 450 382 317 382 l 563 382 l 554 331 l 472 331 q 269 317 343 331 q 165 273 196 304 q 133 189 133 242 q 181 79 133 117 q 289 42 229 42 q 395 68 344 42 q 482 144 446 94 q 529 265 518 194 l 557 438 q 535 581 572 532 q 401 629 499 629 q 283 612 338 629 q 175 556 228 594 l 150 606 q 224 647 182 629 q 312 674 265 664 q 404 683 358 683 q 537 652 486 683 q 607 562 588 621 q 613 419 626 503 l 546 0 l 489 0 l 514 161 l 528 161 q 472 65 510 103 q 384 8 433 26 q 285 -11 335 -11 m 256 879 l 264 932 l 653 932 l 644 879 l 256 879 z "},"ą":{"ha":714,"x_min":68,"x_max":626,"o":"m 285 -11 q 179 13 229 -11 q 99 82 129 38 q 68 186 68 126 q 108 300 68 257 q 232 363 147 343 q 450 382 317 382 l 563 382 l 554 331 l 472 331 q 269 317 343 331 q 165 273 196 304 q 133 189 133 242 q 181 79 133 117 q 289 42 229 42 q 395 68 344 42 q 482 144 446 94 q 529 265 518 194 l 557 438 q 535 581 572 532 q 401 629 499 629 q 283 612 338 629 q 175 556 228 594 l 150 606 q 224 647 182 629 q 312 674 265 664 q 404 683 358 683 q 537 652 486 683 q 607 562 588 621 q 613 419 626 503 l 546 0 l 489 0 l 514 161 l 528 161 q 472 65 510 103 q 384 8 433 26 q 285 -11 335 -11 m 504 -264 q 413 -230 444 -264 q 381 -143 381 -196 q 420 -33 381 -82 q 521 43 460 17 l 546 0 q 484 -37 508 -15 q 447 -84 460 -58 q 435 -137 435 -110 q 453 -193 435 -172 q 511 -214 472 -214 q 547 -210 528 -214 q 586 -196 565 -206 l 599 -243 q 558 -257 585 -250 q 504 -264 532 -264 z "},"å":{"ha":714,"x_min":68,"x_max":626,"o":"m 285 -11 q 179 13 229 -11 q 99 82 129 38 q 68 186 68 126 q 108 300 68 257 q 232 363 147 343 q 450 382 317 382 l 563 382 l 554 331 l 472 331 q 269 317 343 331 q 165 273 196 304 q 133 189 133 242 q 181 79 133 117 q 289 42 229 42 q 395 68 344 42 q 482 144 446 94 q 529 265 518 194 l 557 438 q 535 581 572 532 q 401 629 499 629 q 283 612 338 629 q 175 556 228 594 l 150 606 q 224 647 182 629 q 312 674 265 664 q 404 683 358 683 q 537 652 486 683 q 607 562 588 621 q 613 419 626 503 l 546 0 l 489 0 l 514 161 l 528 161 q 472 65 510 103 q 384 8 433 26 q 285 -11 335 -11 m 456 760 q 377 781 413 760 q 321 836 342 801 q 300 913 300 871 q 321 990 300 956 q 377 1044 342 1024 q 456 1065 413 1065 q 535 1044 500 1065 q 590 990 569 1024 q 611 913 611 956 q 590 836 611 871 q 535 781 569 801 q 456 760 500 760 m 456 804 q 534 835 504 804 q 564 913 564 867 q 534 990 564 958 q 456 1021 504 1021 q 378 990 408 1021 q 347 913 347 958 q 378 835 347 867 q 456 804 408 804 z "},"ǻ":{"ha":714,"x_min":68,"x_max":738,"o":"m 285 -11 q 179 13 229 -11 q 99 82 129 38 q 68 186 68 126 q 108 300 68 257 q 232 363 147 343 q 450 382 317 382 l 563 382 l 554 331 l 472 331 q 269 317 343 331 q 165 273 196 304 q 133 189 133 242 q 181 79 133 117 q 289 42 229 42 q 395 68 344 42 q 482 144 446 94 q 529 265 518 194 l 557 438 q 535 581 572 532 q 401 629 499 629 q 283 612 338 629 q 175 556 228 594 l 150 606 q 224 647 182 629 q 312 674 265 664 q 404 683 358 683 q 537 652 486 683 q 607 562 588 621 q 613 419 626 503 l 546 0 l 489 0 l 514 161 l 528 161 q 472 65 510 103 q 384 8 433 26 q 285 -11 335 -11 m 453 760 q 374 781 410 760 q 318 836 339 801 q 297 913 297 871 q 318 990 297 956 q 374 1044 339 1024 q 453 1065 410 1065 q 504 1058 481 1065 q 547 1035 528 1050 l 653 1133 l 738 1133 l 581 1001 q 601 960 594 983 q 608 913 608 938 q 588 836 608 871 q 532 781 567 801 q 453 760 497 760 m 453 804 q 531 835 501 804 q 561 913 561 867 q 531 990 561 958 q 453 1021 501 1021 q 375 990 406 1021 q 344 913 344 958 q 375 835 344 867 q 453 804 406 804 z "},"ã":{"ha":714,"x_min":68,"x_max":678,"o":"m 285 -11 q 179 13 229 -11 q 99 82 129 38 q 68 186 68 126 q 108 300 68 257 q 232 363 147 343 q 450 382 317 382 l 563 382 l 554 331 l 472 331 q 269 317 343 331 q 165 273 196 304 q 133 189 133 242 q 181 79 133 117 q 289 42 229 42 q 395 68 344 42 q 482 144 446 94 q 529 265 518 194 l 557 438 q 535 581 572 532 q 401 629 499 629 q 283 612 338 629 q 175 556 228 594 l 150 606 q 224 647 182 629 q 312 674 265 664 q 404 683 358 683 q 537 652 486 683 q 607 562 588 621 q 613 419 626 503 l 546 0 l 489 0 l 514 161 l 528 161 q 472 65 510 103 q 384 8 433 26 q 285 -11 335 -11 m 250 826 l 206 829 q 258 953 221 910 q 350 997 294 997 q 410 976 386 997 q 456 932 435 956 q 494 895 475 911 q 535 879 513 879 q 596 910 571 879 q 633 1000 621 942 l 678 997 q 626 873 664 917 q 535 829 589 829 q 474 850 500 829 q 428 894 449 871 q 391 931 410 915 q 349 947 372 947 q 288 916 313 947 q 250 826 263 885 z "},"æ":{"ha":1190,"x_min":68,"x_max":1140,"o":"m 285 -11 q 179 13 229 -11 q 99 82 129 38 q 68 186 68 126 q 108 299 68 257 q 232 361 147 342 q 450 381 317 381 l 563 381 l 554 329 l 472 329 q 269 316 343 329 q 165 272 196 303 q 133 189 133 242 q 181 79 133 117 q 289 42 229 42 q 396 65 344 42 q 485 135 447 89 q 533 253 522 182 l 561 424 q 538 578 578 528 q 401 629 499 629 q 283 612 338 629 q 175 556 228 594 l 150 606 q 224 647 182 629 q 312 674 265 664 q 404 683 358 683 q 562 634 506 683 q 624 492 618 585 l 582 492 q 699 630 624 576 q 882 683 775 683 q 1042 635 983 683 q 1120 511 1100 586 q 1126 354 1140 436 l 1122 329 l 575 329 l 583 381 l 1100 381 l 1074 360 q 1069 496 1085 435 q 1008 594 1053 557 q 881 631 963 631 q 735 591 793 631 q 645 491 676 551 q 603 367 614 431 l 599 342 q 637 126 576 208 q 824 43 697 43 q 946 63 890 43 q 1049 128 1001 82 l 1079 85 q 965 13 1035 38 q 826 -11 896 -11 q 685 17 746 -11 q 587 97 624 44 q 539 221 550 149 l 576 221 q 512 90 556 142 q 410 14 468 39 q 285 -11 351 -11 z "},"ǽ":{"ha":1190,"x_min":68,"x_max":1140,"o":"m 285 -11 q 179 13 229 -11 q 99 82 129 38 q 68 186 68 126 q 108 299 68 257 q 232 361 147 342 q 450 381 317 381 l 563 381 l 554 329 l 472 329 q 269 316 343 329 q 165 272 196 303 q 133 189 133 242 q 181 79 133 117 q 289 42 229 42 q 396 65 344 42 q 485 135 447 89 q 533 253 522 182 l 561 424 q 538 578 578 528 q 401 629 499 629 q 283 612 338 629 q 175 556 228 594 l 150 606 q 224 647 182 629 q 312 674 265 664 q 404 683 358 683 q 562 634 506 683 q 624 492 618 585 l 582 492 q 699 630 624 576 q 882 683 775 683 q 1042 635 983 683 q 1120 511 1100 586 q 1126 354 1140 436 l 1122 329 l 575 329 l 583 381 l 1100 381 l 1074 360 q 1069 496 1085 435 q 1008 594 1053 557 q 881 631 963 631 q 735 591 793 631 q 645 491 676 551 q 603 367 614 431 l 599 342 q 637 126 576 208 q 824 43 697 43 q 946 63 890 43 q 1049 128 1001 82 l 1079 85 q 965 13 1035 38 q 826 -11 896 -11 q 685 17 746 -11 q 587 97 624 44 q 539 221 550 149 l 576 221 q 512 90 556 142 q 410 14 468 39 q 285 -11 351 -11 m 606 763 l 793 1040 l 869 1040 l 656 763 l 606 763 z "},"b":{"ha":789,"x_min":65,"x_max":718,"o":"m 382 -11 q 231 33 297 -11 q 140 169 164 76 l 150 169 l 124 0 l 65 0 l 221 979 l 279 979 l 206 515 l 189 515 q 251 604 213 567 q 340 663 289 642 q 454 683 392 683 q 593 649 533 683 q 685 550 653 614 q 718 397 718 486 q 680 196 718 289 q 567 46 642 103 q 382 -11 492 -11 m 385 43 q 535 92 474 43 q 627 221 596 140 q 658 397 658 301 q 602 571 658 513 q 446 629 546 629 q 296 581 357 629 q 203 452 235 532 q 172 275 172 372 q 228 102 172 161 q 385 43 285 43 z "},"ɓ":{"ha":789,"x_min":65,"x_max":718,"o":"m 382 -11 q 231 33 297 -11 q 140 169 164 76 l 150 169 l 124 0 l 65 0 l 190 788 q 229 903 201 858 q 303 969 257 947 q 417 990 350 990 q 453 988 436 990 q 483 981 469 986 l 467 929 q 438 936 449 935 q 414 938 428 938 q 302 900 344 938 q 249 786 260 863 l 206 515 l 189 515 q 251 604 213 567 q 340 663 289 642 q 454 683 392 683 q 593 649 533 683 q 685 550 653 614 q 718 397 718 486 q 680 196 718 289 q 567 46 642 103 q 382 -11 492 -11 m 385 43 q 535 92 474 43 q 627 221 596 140 q 658 397 658 301 q 602 571 658 513 q 446 629 546 629 q 296 581 357 629 q 203 452 235 532 q 172 275 172 372 q 228 102 172 161 q 385 43 285 43 z "},"c":{"ha":632,"x_min":72,"x_max":632,"o":"m 344 -11 q 191 26 251 -11 q 101 128 131 63 q 72 281 72 194 q 92 426 72 354 q 152 556 111 497 q 258 649 193 614 q 413 683 322 683 q 538 659 479 683 q 632 594 597 635 l 603 550 q 517 610 564 590 q 410 629 471 629 q 283 599 336 629 q 197 519 231 569 q 148 406 164 468 q 132 281 132 344 q 183 108 132 172 q 347 43 233 43 q 443 62 393 43 q 536 121 493 81 l 563 74 q 500 28 536 47 q 424 -1 464 10 q 344 -11 383 -11 z "},"ć":{"ha":632,"x_min":72,"x_max":664,"o":"m 344 -11 q 191 26 251 -11 q 101 128 131 63 q 72 281 72 194 q 92 426 72 354 q 152 556 111 497 q 258 649 193 614 q 413 683 322 683 q 538 659 479 683 q 632 594 597 635 l 603 550 q 517 610 564 590 q 410 629 471 629 q 283 599 336 629 q 197 519 231 569 q 148 406 164 468 q 132 281 132 344 q 183 108 132 172 q 347 43 233 43 q 443 62 393 43 q 536 121 493 81 l 563 74 q 500 28 536 47 q 424 -1 464 10 q 344 -11 383 -11 m 400 763 l 588 1040 l 664 1040 l 450 763 l 400 763 z "},"č":{"ha":632,"x_min":72,"x_max":640,"o":"m 344 -11 q 191 26 251 -11 q 101 128 131 63 q 72 281 72 194 q 92 426 72 354 q 152 556 111 497 q 258 649 193 614 q 413 683 322 683 q 538 659 479 683 q 632 594 597 635 l 603 550 q 517 610 564 590 q 410 629 471 629 q 283 599 336 629 q 197 519 231 569 q 148 406 164 468 q 132 281 132 344 q 183 108 132 172 q 347 43 233 43 q 443 62 393 43 q 536 121 493 81 l 563 74 q 500 28 536 47 q 424 -1 464 10 q 344 -11 383 -11 m 392 763 l 271 1040 l 318 1040 l 428 817 l 590 1040 l 640 1040 l 458 763 l 392 763 z "},"ç":{"ha":632,"x_min":72,"x_max":632,"o":"m 344 -11 q 191 26 251 -11 q 101 128 131 63 q 72 281 72 194 q 92 426 72 354 q 152 556 111 497 q 258 649 193 614 q 413 683 322 683 q 538 659 479 683 q 632 594 597 635 l 603 550 q 517 610 564 590 q 410 629 471 629 q 283 599 336 629 q 197 519 231 569 q 148 406 164 468 q 132 281 132 344 q 183 108 132 172 q 347 43 233 43 q 443 62 393 43 q 536 121 493 81 l 563 74 q 500 28 536 47 q 424 -1 464 10 q 344 -11 383 -11 m 300 -264 q 240 -257 268 -264 q 193 -239 211 -250 l 210 -192 q 256 -209 235 -204 q 310 -214 276 -214 q 375 -198 349 -214 q 401 -151 401 -182 q 389 -121 401 -132 q 353 -110 376 -110 q 321 -112 338 -110 q 279 -124 304 -115 l 261 -106 l 304 28 l 357 28 l 322 -76 l 297 -74 q 331 -67 315 -69 q 361 -64 347 -64 q 410 -74 389 -64 q 444 -102 432 -83 q 457 -147 457 -121 q 413 -231 457 -199 q 300 -264 368 -264 z "},"ḉ":{"ha":632,"x_min":72,"x_max":664,"o":"m 344 -11 q 191 26 251 -11 q 101 128 131 63 q 72 281 72 194 q 92 426 72 354 q 152 556 111 497 q 258 649 193 614 q 413 683 322 683 q 538 659 479 683 q 632 594 597 635 l 603 550 q 517 610 564 590 q 410 629 471 629 q 283 599 336 629 q 197 519 231 569 q 148 406 164 468 q 132 281 132 344 q 183 108 132 172 q 347 43 233 43 q 443 62 393 43 q 536 121 493 81 l 563 74 q 500 28 536 47 q 424 -1 464 10 q 344 -11 383 -11 m 300 -264 q 240 -257 268 -264 q 193 -239 211 -250 l 210 -192 q 256 -209 235 -204 q 310 -214 276 -214 q 375 -198 349 -214 q 401 -151 401 -182 q 389 -121 401 -132 q 353 -110 376 -110 q 321 -112 338 -110 q 279 -124 304 -115 l 261 -106 l 304 28 l 357 28 l 322 -76 l 297 -74 q 331 -67 315 -69 q 361 -64 347 -64 q 410 -74 389 -64 q 444 -102 432 -83 q 457 -147 457 -121 q 413 -231 457 -199 q 300 -264 368 -264 m 400 763 l 588 1040 l 664 1040 l 450 763 l 400 763 z "},"ĉ":{"ha":632,"x_min":72,"x_max":632,"o":"m 344 -11 q 191 26 251 -11 q 101 128 131 63 q 72 281 72 194 q 92 426 72 354 q 152 556 111 497 q 258 649 193 614 q 413 683 322 683 q 538 659 479 683 q 632 594 597 635 l 603 550 q 517 610 564 590 q 410 629 471 629 q 283 599 336 629 q 197 519 231 569 q 148 406 164 468 q 132 281 132 344 q 183 108 132 172 q 347 43 233 43 q 443 62 393 43 q 536 121 493 81 l 563 74 q 500 28 536 47 q 424 -1 464 10 q 344 -11 383 -11 m 239 763 l 421 1040 l 488 1040 l 608 763 l 561 763 l 451 986 l 289 763 l 239 763 z "},"ċ":{"ha":632,"x_min":72,"x_max":632,"o":"m 344 -11 q 191 26 251 -11 q 101 128 131 63 q 72 281 72 194 q 92 426 72 354 q 152 556 111 497 q 258 649 193 614 q 413 683 322 683 q 538 659 479 683 q 632 594 597 635 l 603 550 q 517 610 564 590 q 410 629 471 629 q 283 599 336 629 q 197 519 231 569 q 148 406 164 468 q 132 281 132 344 q 183 108 132 172 q 347 43 233 43 q 443 62 393 43 q 536 121 493 81 l 563 74 q 500 28 536 47 q 424 -1 464 10 q 344 -11 383 -11 m 396 860 l 410 947 l 499 947 l 485 860 l 396 860 z "},"d":{"ha":789,"x_min":71,"x_max":772,"o":"m 335 -11 q 197 24 256 -11 q 104 123 138 58 q 71 275 71 188 q 109 476 71 383 q 222 626 147 569 q 407 683 297 683 q 558 640 492 683 q 649 503 625 596 l 639 503 l 714 979 l 772 979 l 617 0 l 558 0 l 583 157 l 600 157 q 538 68 576 106 q 449 10 500 31 q 335 -11 397 -11 m 343 43 q 493 92 432 43 q 585 221 554 140 q 617 397 617 301 q 560 571 617 513 q 404 629 504 629 q 254 581 315 629 q 162 452 193 532 q 131 275 131 372 q 187 102 131 161 q 343 43 243 43 z "},"ð":{"ha":751,"x_min":67,"x_max":689,"o":"m 340 -11 q 201 21 263 -11 q 103 113 139 53 q 67 256 67 174 q 111 451 67 367 q 232 583 156 535 q 406 631 308 631 q 528 605 474 631 q 616 528 582 579 q 653 397 650 476 l 633 397 q 601 669 640 553 q 471 858 563 786 l 489 857 l 269 764 l 250 810 l 444 892 l 444 878 q 378 913 414 897 q 303 940 343 929 l 322 986 q 416 950 372 971 q 494 903 460 929 l 475 904 l 669 986 l 689 940 l 517 868 l 519 882 q 647 697 607 808 q 686 433 688 585 q 667 271 686 350 q 608 128 649 192 q 502 26 568 64 q 340 -11 436 -11 m 342 43 q 480 80 418 43 q 579 188 542 117 q 617 360 617 258 q 559 520 617 464 q 401 576 501 576 q 264 540 326 576 q 164 432 201 503 q 126 260 126 361 q 184 99 126 156 q 342 43 242 43 z "},"ď":{"ha":789,"x_min":71,"x_max":910,"o":"m 335 -11 q 197 24 256 -11 q 104 123 138 58 q 71 275 71 188 q 109 476 71 383 q 222 626 147 569 q 407 683 297 683 q 558 640 492 683 q 649 503 625 596 l 639 503 l 714 979 l 772 979 l 617 0 l 558 0 l 583 157 l 600 157 q 538 68 576 106 q 449 10 500 31 q 335 -11 397 -11 m 343 43 q 493 92 432 43 q 585 221 554 140 q 617 397 617 301 q 560 571 617 513 q 404 629 504 629 q 254 581 315 629 q 162 452 193 532 q 131 275 131 372 q 187 102 131 161 q 343 43 243 43 m 800 718 l 842 979 l 910 979 l 838 718 l 800 718 z "},"đ":{"ha":789,"x_min":71,"x_max":881,"o":"m 335 -11 q 197 24 256 -11 q 104 123 138 58 q 71 275 71 188 q 109 476 71 383 q 222 626 147 569 q 407 683 297 683 q 558 640 492 683 q 649 503 625 596 l 638 503 l 682 781 l 408 781 l 417 831 l 690 831 l 714 979 l 772 979 l 749 831 l 881 831 l 872 781 l 740 781 l 617 0 l 558 0 l 583 157 l 600 157 q 538 68 576 106 q 449 10 500 31 q 335 -11 397 -11 m 343 43 q 493 92 432 43 q 585 221 554 140 q 617 397 617 301 q 560 571 617 513 q 404 629 504 629 q 254 581 315 629 q 162 452 193 532 q 131 275 131 372 q 187 102 131 161 q 343 43 243 43 z "},"ḍ":{"ha":789,"x_min":71,"x_max":772,"o":"m 335 -11 q 197 24 256 -11 q 104 123 138 58 q 71 275 71 188 q 109 476 71 383 q 222 626 147 569 q 407 683 297 683 q 558 640 492 683 q 649 503 625 596 l 639 503 l 714 979 l 772 979 l 617 0 l 558 0 l 583 157 l 600 157 q 538 68 576 106 q 449 10 500 31 q 335 -11 397 -11 m 343 43 q 493 92 432 43 q 585 221 554 140 q 617 397 617 301 q 560 571 617 513 q 404 629 504 629 q 254 581 315 629 q 162 452 193 532 q 131 275 131 372 q 187 102 131 161 q 343 43 243 43 m 265 -239 l 279 -151 l 368 -151 l 354 -239 l 265 -239 z "},"ɗ":{"ha":789,"x_min":71,"x_max":976,"o":"m 335 -11 q 197 24 256 -11 q 104 123 138 58 q 71 275 71 188 q 109 476 71 383 q 222 626 147 569 q 407 683 297 683 q 558 640 492 683 q 649 503 625 596 l 639 503 l 683 788 q 722 903 694 858 q 797 969 750 947 q 910 990 843 990 q 946 988 929 990 q 976 981 963 986 l 960 929 q 931 936 942 935 q 907 938 921 938 q 795 900 838 938 q 742 786 753 863 l 617 0 l 558 0 l 583 157 l 600 157 q 538 68 576 106 q 449 10 500 31 q 335 -11 397 -11 m 343 43 q 493 92 432 43 q 585 221 554 140 q 617 397 617 301 q 560 571 617 513 q 404 629 504 629 q 254 581 315 629 q 162 452 193 532 q 131 275 131 372 q 187 102 131 161 q 343 43 243 43 z "},"ḏ":{"ha":789,"x_min":71,"x_max":772,"o":"m 335 -11 q 197 24 256 -11 q 104 123 138 58 q 71 275 71 188 q 109 476 71 383 q 222 626 147 569 q 407 683 297 683 q 558 640 492 683 q 649 503 625 596 l 639 503 l 714 979 l 772 979 l 617 0 l 558 0 l 583 157 l 600 157 q 538 68 576 106 q 449 10 500 31 q 335 -11 397 -11 m 343 43 q 493 92 432 43 q 585 221 554 140 q 617 397 617 301 q 560 571 617 513 q 404 629 504 629 q 254 581 315 629 q 162 452 193 532 q 131 275 131 372 q 187 102 131 161 q 343 43 243 43 m 121 -206 l 129 -153 l 518 -153 l 510 -206 l 121 -206 z "},"ǆ":{"ha":1419,"x_min":71,"x_max":1411,"o":"m 335 -11 q 197 24 256 -11 q 104 123 138 58 q 71 275 71 188 q 109 476 71 383 q 222 626 147 569 q 407 683 297 683 q 558 640 492 683 q 649 503 625 596 l 639 503 l 714 979 l 772 979 l 617 0 l 558 0 l 583 157 l 600 157 q 538 68 576 106 q 449 10 500 31 q 335 -11 397 -11 m 343 43 q 493 92 432 43 q 585 221 554 140 q 617 397 617 301 q 560 571 617 513 q 404 629 504 629 q 254 581 315 629 q 162 452 193 532 q 131 275 131 372 q 187 102 131 161 q 343 43 243 43 m 819 0 l 826 40 l 1343 640 l 1347 624 l 918 624 l 926 672 l 1411 672 l 1404 632 l 886 31 l 882 49 l 1328 49 l 1319 0 l 819 0 m 1143 763 l 1022 1040 l 1069 1040 l 1179 817 l 1342 1040 l 1392 1040 l 1210 763 l 1143 763 z "},"e":{"ha":726,"x_min":71,"x_max":676,"o":"m 363 -11 q 206 24 272 -11 q 106 123 140 58 q 71 278 71 188 q 111 477 71 385 q 229 626 151 569 q 418 683 307 683 q 578 635 519 683 q 656 510 636 586 q 663 350 676 433 l 658 325 l 111 325 l 119 376 l 636 376 l 610 360 q 605 496 621 435 q 544 594 589 557 q 417 631 499 631 q 272 591 329 631 q 182 491 214 551 q 139 367 150 431 l 135 342 q 143 185 121 253 q 221 81 165 118 q 360 43 276 43 q 482 63 426 43 q 585 128 538 82 l 615 85 q 501 13 571 38 q 363 -11 432 -11 z "},"é":{"ha":726,"x_min":71,"x_max":676,"o":"m 363 -11 q 206 24 272 -11 q 106 123 140 58 q 71 278 71 188 q 111 477 71 385 q 229 626 151 569 q 418 683 307 683 q 578 635 519 683 q 656 510 636 586 q 663 350 676 433 l 658 325 l 111 325 l 119 376 l 636 376 l 610 360 q 605 496 621 435 q 544 594 589 557 q 417 631 499 631 q 272 591 329 631 q 182 491 214 551 q 139 367 150 431 l 135 342 q 143 185 121 253 q 221 81 165 118 q 360 43 276 43 q 482 63 426 43 q 585 128 538 82 l 615 85 q 501 13 571 38 q 363 -11 432 -11 m 413 763 l 600 1040 l 676 1040 l 463 763 l 413 763 z "},"ĕ":{"ha":726,"x_min":71,"x_max":676,"o":"m 363 -11 q 206 24 272 -11 q 106 123 140 58 q 71 278 71 188 q 111 477 71 385 q 229 626 151 569 q 418 683 307 683 q 578 635 519 683 q 656 510 636 586 q 663 350 676 433 l 658 325 l 111 325 l 119 376 l 636 376 l 610 360 q 605 496 621 435 q 544 594 589 557 q 417 631 499 631 q 272 591 329 631 q 182 491 214 551 q 139 367 150 431 l 135 342 q 143 185 121 253 q 221 81 165 118 q 360 43 276 43 q 482 63 426 43 q 585 128 538 82 l 615 85 q 501 13 571 38 q 363 -11 432 -11 m 450 760 q 351 791 393 760 q 287 881 308 822 q 269 1019 265 939 l 315 1025 q 347 866 310 922 q 451 810 383 810 q 565 866 521 810 q 624 1025 610 922 l 669 1019 q 628 881 658 939 q 553 791 599 822 q 450 760 508 760 z "},"ě":{"ha":726,"x_min":71,"x_max":676,"o":"m 363 -11 q 206 24 272 -11 q 106 123 140 58 q 71 278 71 188 q 111 477 71 385 q 229 626 151 569 q 418 683 307 683 q 578 635 519 683 q 656 510 636 586 q 663 350 676 433 l 658 325 l 111 325 l 119 376 l 636 376 l 610 360 q 605 496 621 435 q 544 594 589 557 q 417 631 499 631 q 272 591 329 631 q 182 491 214 551 q 139 367 150 431 l 135 342 q 143 185 121 253 q 221 81 165 118 q 360 43 276 43 q 482 63 426 43 q 585 128 538 82 l 615 85 q 501 13 571 38 q 363 -11 432 -11 m 404 763 l 283 1040 l 331 1040 l 440 817 l 603 1040 l 653 1040 l 471 763 l 404 763 z "},"ḝ":{"ha":726,"x_min":71,"x_max":676,"o":"m 363 -11 q 206 24 272 -11 q 106 123 140 58 q 71 278 71 188 q 111 477 71 385 q 229 626 151 569 q 418 683 307 683 q 578 635 519 683 q 656 510 636 586 q 663 350 676 433 l 658 325 l 111 325 l 119 376 l 636 376 l 610 360 q 605 496 621 435 q 544 594 589 557 q 417 631 499 631 q 272 591 329 631 q 182 491 214 551 q 139 367 150 431 l 135 342 q 143 185 121 253 q 221 81 165 118 q 360 43 276 43 q 482 63 426 43 q 585 128 538 82 l 615 85 q 501 13 571 38 q 363 -11 432 -11 m 315 -264 q 255 -257 283 -264 q 208 -239 226 -250 l 225 -192 q 271 -209 250 -204 q 325 -214 292 -214 q 390 -198 364 -214 q 417 -151 417 -182 q 404 -121 417 -132 q 368 -110 392 -110 q 336 -112 353 -110 q 294 -124 319 -115 l 276 -106 l 319 28 l 372 28 l 338 -76 l 313 -74 q 347 -67 331 -69 q 376 -64 363 -64 q 426 -74 404 -64 q 460 -102 447 -83 q 472 -147 472 -121 q 428 -231 472 -199 q 315 -264 383 -264 m 450 760 q 351 791 393 760 q 287 881 308 822 q 269 1019 265 939 l 315 1025 q 347 866 310 922 q 451 810 383 810 q 565 866 521 810 q 624 1025 610 922 l 669 1019 q 628 881 658 939 q 553 791 599 822 q 450 760 508 760 z "},"ê":{"ha":726,"x_min":71,"x_max":676,"o":"m 363 -11 q 206 24 272 -11 q 106 123 140 58 q 71 278 71 188 q 111 477 71 385 q 229 626 151 569 q 418 683 307 683 q 578 635 519 683 q 656 510 636 586 q 663 350 676 433 l 658 325 l 111 325 l 119 376 l 636 376 l 610 360 q 605 496 621 435 q 544 594 589 557 q 417 631 499 631 q 272 591 329 631 q 182 491 214 551 q 139 367 150 431 l 135 342 q 143 185 121 253 q 221 81 165 118 q 360 43 276 43 q 482 63 426 43 q 585 128 538 82 l 615 85 q 501 13 571 38 q 363 -11 432 -11 m 251 763 l 433 1040 l 500 1040 l 621 763 l 574 763 l 464 986 l 301 763 l 251 763 z "},"ế":{"ha":726,"x_min":71,"x_max":767,"o":"m 363 -11 q 206 24 272 -11 q 106 123 140 58 q 71 278 71 188 q 111 477 71 385 q 229 626 151 569 q 418 683 307 683 q 578 635 519 683 q 656 510 636 586 q 663 350 676 433 l 658 325 l 111 325 l 119 376 l 636 376 l 610 360 q 605 496 621 435 q 544 594 589 557 q 417 631 499 631 q 272 591 329 631 q 182 491 214 551 q 139 367 150 431 l 135 342 q 143 185 121 253 q 221 81 165 118 q 360 43 276 43 q 482 63 426 43 q 585 128 538 82 l 615 85 q 501 13 571 38 q 363 -11 432 -11 m 242 763 l 413 985 l 479 985 l 611 763 l 564 763 l 443 933 l 289 763 l 242 763 m 551 903 l 690 1111 l 767 1111 l 601 903 l 551 903 z "},"ệ":{"ha":726,"x_min":71,"x_max":676,"o":"m 363 -11 q 206 24 272 -11 q 106 123 140 58 q 71 278 71 188 q 111 477 71 385 q 229 626 151 569 q 418 683 307 683 q 578 635 519 683 q 656 510 636 586 q 663 350 676 433 l 658 325 l 111 325 l 119 376 l 636 376 l 610 360 q 605 496 621 435 q 544 594 589 557 q 417 631 499 631 q 272 591 329 631 q 182 491 214 551 q 139 367 150 431 l 135 342 q 143 185 121 253 q 221 81 165 118 q 360 43 276 43 q 482 63 426 43 q 585 128 538 82 l 615 85 q 501 13 571 38 q 363 -11 432 -11 m 258 -239 l 272 -151 l 361 -151 l 347 -239 l 258 -239 m 251 763 l 433 1040 l 500 1040 l 621 763 l 574 763 l 464 986 l 301 763 l 251 763 z "},"ề":{"ha":726,"x_min":71,"x_max":676,"o":"m 363 -11 q 206 24 272 -11 q 106 123 140 58 q 71 278 71 188 q 111 477 71 385 q 229 626 151 569 q 418 683 307 683 q 578 635 519 683 q 656 510 636 586 q 663 350 676 433 l 658 325 l 111 325 l 119 376 l 636 376 l 610 360 q 605 496 621 435 q 544 594 589 557 q 417 631 499 631 q 272 591 329 631 q 182 491 214 551 q 139 367 150 431 l 135 342 q 143 185 121 253 q 221 81 165 118 q 360 43 276 43 q 482 63 426 43 q 585 128 538 82 l 615 85 q 501 13 571 38 q 363 -11 432 -11 m 242 763 l 413 985 l 479 985 l 611 763 l 564 763 l 443 933 l 289 763 l 242 763 m 608 903 l 479 1111 l 553 1111 l 658 903 l 608 903 z "},"ể":{"ha":726,"x_min":71,"x_max":728,"o":"m 363 -11 q 206 24 272 -11 q 106 123 140 58 q 71 278 71 188 q 111 477 71 385 q 229 626 151 569 q 418 683 307 683 q 578 635 519 683 q 656 510 636 586 q 663 350 676 433 l 658 325 l 111 325 l 119 376 l 636 376 l 610 360 q 605 496 621 435 q 544 594 589 557 q 417 631 499 631 q 272 591 329 631 q 182 491 214 551 q 139 367 150 431 l 135 342 q 143 185 121 253 q 221 81 165 118 q 360 43 276 43 q 482 63 426 43 q 585 128 538 82 l 615 85 q 501 13 571 38 q 363 -11 432 -11 m 242 763 l 413 985 l 479 985 l 611 763 l 564 763 l 443 933 l 289 763 l 242 763 m 568 903 q 587 957 571 938 q 623 988 603 976 q 658 1012 643 1000 q 674 1043 674 1024 q 656 1065 674 1058 q 614 1071 639 1071 q 563 1066 590 1071 q 514 1054 536 1061 l 506 1094 q 556 1111 529 1106 q 613 1117 583 1117 q 698 1099 668 1117 q 728 1050 728 1082 q 712 1002 728 1019 q 674 972 696 985 q 635 945 651 960 q 615 903 618 931 l 568 903 z "},"ễ":{"ha":726,"x_min":71,"x_max":676,"o":"m 363 -11 q 206 24 272 -11 q 106 123 140 58 q 71 278 71 188 q 111 477 71 385 q 229 626 151 569 q 418 683 307 683 q 578 635 519 683 q 656 510 636 586 q 663 350 676 433 l 658 325 l 111 325 l 119 376 l 636 376 l 610 360 q 605 496 621 435 q 544 594 589 557 q 417 631 499 631 q 272 591 329 631 q 182 491 214 551 q 139 367 150 431 l 135 342 q 143 185 121 253 q 221 81 165 118 q 360 43 276 43 q 482 63 426 43 q 585 128 538 82 l 615 85 q 501 13 571 38 q 363 -11 432 -11 m 242 763 l 408 943 l 475 943 l 611 763 l 564 763 l 439 896 l 289 763 l 242 763 m 285 979 l 240 982 q 264 1056 247 1026 q 305 1101 281 1086 q 361 1115 329 1115 q 415 1101 392 1115 q 460 1069 439 1086 q 497 1044 479 1056 q 535 1032 514 1032 q 583 1052 567 1032 q 611 1118 600 1072 l 657 1115 q 615 1015 644 1049 q 538 982 585 982 q 483 997 507 982 q 438 1028 458 1011 q 401 1054 419 1043 q 363 1065 382 1065 q 314 1045 332 1065 q 285 979 296 1025 z "},"ȅ":{"ha":726,"x_min":71,"x_max":676,"o":"m 363 -11 q 206 24 272 -11 q 106 123 140 58 q 71 278 71 188 q 111 477 71 385 q 229 626 151 569 q 418 683 307 683 q 578 635 519 683 q 656 510 636 586 q 663 350 676 433 l 658 325 l 111 325 l 119 376 l 636 376 l 610 360 q 605 496 621 435 q 544 594 589 557 q 417 631 499 631 q 272 591 329 631 q 182 491 214 551 q 139 367 150 431 l 135 342 q 143 185 121 253 q 221 81 165 118 q 360 43 276 43 q 482 63 426 43 q 585 128 538 82 l 615 85 q 501 13 571 38 q 363 -11 432 -11 m 494 763 l 410 1040 l 475 1040 l 532 763 l 494 763 m 343 763 l 258 1040 l 324 1040 l 381 763 l 343 763 z "},"ë":{"ha":726,"x_min":71,"x_max":676,"o":"m 363 -11 q 206 24 272 -11 q 106 123 140 58 q 71 278 71 188 q 111 477 71 385 q 229 626 151 569 q 418 683 307 683 q 578 635 519 683 q 656 510 636 586 q 663 350 676 433 l 658 325 l 111 325 l 119 376 l 636 376 l 610 360 q 605 496 621 435 q 544 594 589 557 q 417 631 499 631 q 272 591 329 631 q 182 491 214 551 q 139 367 150 431 l 135 342 q 143 185 121 253 q 221 81 165 118 q 360 43 276 43 q 482 63 426 43 q 585 128 538 82 l 615 85 q 501 13 571 38 q 363 -11 432 -11 m 524 861 l 536 944 l 621 944 l 608 861 l 524 861 m 300 861 l 313 944 l 397 944 l 385 861 l 300 861 z "},"ė":{"ha":726,"x_min":71,"x_max":676,"o":"m 363 -11 q 206 24 272 -11 q 106 123 140 58 q 71 278 71 188 q 111 477 71 385 q 229 626 151 569 q 418 683 307 683 q 578 635 519 683 q 656 510 636 586 q 663 350 676 433 l 658 325 l 111 325 l 119 376 l 636 376 l 610 360 q 605 496 621 435 q 544 594 589 557 q 417 631 499 631 q 272 591 329 631 q 182 491 214 551 q 139 367 150 431 l 135 342 q 143 185 121 253 q 221 81 165 118 q 360 43 276 43 q 482 63 426 43 q 585 128 538 82 l 615 85 q 501 13 571 38 q 363 -11 432 -11 m 408 860 l 422 947 l 511 947 l 497 860 l 408 860 z "},"ẹ":{"ha":726,"x_min":71,"x_max":676,"o":"m 363 -11 q 206 24 272 -11 q 106 123 140 58 q 71 278 71 188 q 111 477 71 385 q 229 626 151 569 q 418 683 307 683 q 578 635 519 683 q 656 510 636 586 q 663 350 676 433 l 658 325 l 111 325 l 119 376 l 636 376 l 610 360 q 605 496 621 435 q 544 594 589 557 q 417 631 499 631 q 272 591 329 631 q 182 491 214 551 q 139 367 150 431 l 135 342 q 143 185 121 253 q 221 81 165 118 q 360 43 276 43 q 482 63 426 43 q 585 128 538 82 l 615 85 q 501 13 571 38 q 363 -11 432 -11 m 258 -239 l 272 -151 l 361 -151 l 347 -239 l 258 -239 z "},"è":{"ha":726,"x_min":71,"x_max":676,"o":"m 363 -11 q 206 24 272 -11 q 106 123 140 58 q 71 278 71 188 q 111 477 71 385 q 229 626 151 569 q 418 683 307 683 q 578 635 519 683 q 656 510 636 586 q 663 350 676 433 l 658 325 l 111 325 l 119 376 l 636 376 l 610 360 q 605 496 621 435 q 544 594 589 557 q 417 631 499 631 q 272 591 329 631 q 182 491 214 551 q 139 367 150 431 l 135 342 q 143 185 121 253 q 221 81 165 118 q 360 43 276 43 q 482 63 426 43 q 585 128 538 82 l 615 85 q 501 13 571 38 q 363 -11 432 -11 m 410 763 l 215 1040 l 289 1040 l 460 763 l 410 763 z "},"ẻ":{"ha":726,"x_min":71,"x_max":676,"o":"m 363 -11 q 206 24 272 -11 q 106 123 140 58 q 71 278 71 188 q 111 477 71 385 q 229 626 151 569 q 418 683 307 683 q 578 635 519 683 q 656 510 636 586 q 663 350 676 433 l 658 325 l 111 325 l 119 376 l 636 376 l 610 360 q 605 496 621 435 q 544 594 589 557 q 417 631 499 631 q 272 591 329 631 q 182 491 214 551 q 139 367 150 431 l 135 342 q 143 185 121 253 q 221 81 165 118 q 360 43 276 43 q 482 63 426 43 q 585 128 538 82 l 615 85 q 501 13 571 38 q 363 -11 432 -11 m 406 763 l 410 790 q 432 846 415 824 q 469 885 449 868 q 503 919 489 903 q 518 958 518 936 q 502 988 518 978 q 450 997 486 997 q 407 992 429 997 q 357 975 385 988 l 349 1019 q 401 1041 372 1035 q 460 1047 429 1047 q 545 1026 515 1047 q 575 965 575 1004 q 560 906 575 928 q 524 869 544 885 q 485 835 503 854 q 460 783 467 817 l 456 763 l 406 763 z "},"ȇ":{"ha":726,"x_min":71,"x_max":676,"o":"m 363 -11 q 206 24 272 -11 q 106 123 140 58 q 71 278 71 188 q 111 477 71 385 q 229 626 151 569 q 418 683 307 683 q 578 635 519 683 q 656 510 636 586 q 663 350 676 433 l 658 325 l 111 325 l 119 376 l 636 376 l 610 360 q 605 496 621 435 q 544 594 589 557 q 417 631 499 631 q 272 591 329 631 q 182 491 214 551 q 139 367 150 431 l 135 342 q 143 185 121 253 q 221 81 165 118 q 360 43 276 43 q 482 63 426 43 q 585 128 538 82 l 615 85 q 501 13 571 38 q 363 -11 432 -11 m 274 760 l 228 765 q 270 905 240 847 q 345 994 300 963 q 447 1025 390 1025 q 547 994 506 1025 q 610 905 589 963 q 628 765 632 847 l 582 760 q 552 919 589 863 q 446 975 515 975 q 333 919 378 975 q 274 760 288 863 z "},"ē":{"ha":726,"x_min":71,"x_max":676,"o":"m 363 -11 q 206 24 272 -11 q 106 123 140 58 q 71 278 71 188 q 111 477 71 385 q 229 626 151 569 q 418 683 307 683 q 578 635 519 683 q 656 510 636 586 q 663 350 676 433 l 658 325 l 111 325 l 119 376 l 636 376 l 610 360 q 605 496 621 435 q 544 594 589 557 q 417 631 499 631 q 272 591 329 631 q 182 491 214 551 q 139 367 150 431 l 135 342 q 143 185 121 253 q 221 81 165 118 q 360 43 276 43 q 482 63 426 43 q 585 128 538 82 l 615 85 q 501 13 571 38 q 363 -11 432 -11 m 263 879 l 271 932 l 660 932 l 651 879 l 263 879 z "},"ḗ":{"ha":726,"x_min":71,"x_max":676,"o":"m 363 -11 q 206 24 272 -11 q 106 123 140 58 q 71 278 71 188 q 111 477 71 385 q 229 626 151 569 q 418 683 307 683 q 578 635 519 683 q 656 510 636 586 q 663 350 676 433 l 658 325 l 111 325 l 119 376 l 636 376 l 610 360 q 605 496 621 435 q 544 594 589 557 q 417 631 499 631 q 272 591 329 631 q 182 491 214 551 q 139 367 150 431 l 135 342 q 143 185 121 253 q 221 81 165 118 q 360 43 276 43 q 482 63 426 43 q 585 128 538 82 l 615 85 q 501 13 571 38 q 363 -11 432 -11 m 244 799 l 253 851 l 642 851 l 633 799 l 244 799 m 431 903 l 585 1111 l 661 1111 l 481 903 l 431 903 z "},"ḕ":{"ha":726,"x_min":71,"x_max":676,"o":"m 363 -11 q 206 24 272 -11 q 106 123 140 58 q 71 278 71 188 q 111 477 71 385 q 229 626 151 569 q 418 683 307 683 q 578 635 519 683 q 656 510 636 586 q 663 350 676 433 l 658 325 l 111 325 l 119 376 l 636 376 l 610 360 q 605 496 621 435 q 544 594 589 557 q 417 631 499 631 q 272 591 329 631 q 182 491 214 551 q 139 367 150 431 l 135 342 q 143 185 121 253 q 221 81 165 118 q 360 43 276 43 q 482 63 426 43 q 585 128 538 82 l 615 85 q 501 13 571 38 q 363 -11 432 -11 m 244 799 l 253 851 l 642 851 l 633 799 l 244 799 m 431 903 l 289 1111 l 363 1111 l 481 903 l 431 903 z "},"ę":{"ha":726,"x_min":71,"x_max":676,"o":"m 363 -11 q 206 24 272 -11 q 106 123 140 58 q 71 278 71 188 q 111 477 71 385 q 229 626 151 569 q 418 683 307 683 q 578 635 519 683 q 656 510 636 586 q 663 350 676 433 l 658 325 l 111 325 l 119 376 l 636 376 l 610 360 q 605 496 621 435 q 544 594 589 557 q 417 631 499 631 q 272 591 329 631 q 182 491 214 551 q 139 367 150 431 l 135 342 q 143 185 121 253 q 221 81 165 118 q 360 43 276 43 q 482 63 426 43 q 585 128 538 82 l 615 85 q 501 13 571 38 q 363 -11 432 -11 m 379 -264 q 288 -230 319 -264 q 256 -143 256 -196 q 295 -33 256 -82 q 396 43 335 17 l 421 0 q 359 -37 383 -15 q 322 -84 335 -58 q 310 -137 310 -110 q 328 -193 310 -172 q 386 -214 347 -214 q 422 -210 403 -214 q 461 -196 440 -206 l 474 -243 q 433 -257 460 -250 q 379 -264 407 -264 z "},"ẽ":{"ha":726,"x_min":71,"x_max":685,"o":"m 363 -11 q 206 24 272 -11 q 106 123 140 58 q 71 278 71 188 q 111 477 71 385 q 229 626 151 569 q 418 683 307 683 q 578 635 519 683 q 656 510 636 586 q 663 350 676 433 l 658 325 l 111 325 l 119 376 l 636 376 l 610 360 q 605 496 621 435 q 544 594 589 557 q 417 631 499 631 q 272 591 329 631 q 182 491 214 551 q 139 367 150 431 l 135 342 q 143 185 121 253 q 221 81 165 118 q 360 43 276 43 q 482 63 426 43 q 585 128 538 82 l 615 85 q 501 13 571 38 q 363 -11 432 -11 m 257 826 l 213 829 q 265 953 228 910 q 357 997 301 997 q 417 976 393 997 q 463 932 442 956 q 501 895 482 911 q 542 879 519 879 q 603 910 578 879 q 640 1000 628 942 l 685 997 q 633 873 671 917 q 542 829 596 829 q 481 850 507 829 q 435 894 456 871 q 398 931 417 915 q 356 947 379 947 q 294 916 319 947 q 257 826 269 885 z "},"ə":{"ha":726,"x_min":50,"x_max":656,"o":"m 308 -11 q 149 38 207 -11 q 70 163 90 86 q 64 322 50 239 l 68 347 l 615 347 l 607 296 l 90 296 l 117 313 q 122 177 107 239 q 183 78 138 115 q 310 42 229 42 q 456 81 399 42 q 546 182 514 121 q 588 306 578 243 l 592 331 q 584 487 607 419 q 506 592 561 554 q 367 629 451 629 q 245 610 300 629 q 142 544 190 590 l 111 588 q 226 660 156 636 q 364 683 296 683 q 521 649 456 683 q 621 549 586 614 q 656 394 656 485 q 615 195 656 288 q 497 46 575 103 q 308 -11 419 -11 z "},"ʒ":{"ha":661,"x_min":-47,"x_max":618,"o":"m 247 -261 q 94 -237 169 -261 q -47 -162 18 -214 l -15 -118 q 110 -187 49 -167 q 247 -207 172 -207 q 438 -137 374 -207 q 501 50 501 -68 q 451 179 501 128 q 306 231 400 231 l 157 231 l 163 264 l 546 639 l 546 621 l 92 621 l 100 672 l 618 672 l 611 631 l 225 256 l 222 283 l 311 283 q 447 251 392 283 q 532 166 503 219 q 561 47 561 113 q 523 -114 561 -44 q 415 -222 485 -183 q 247 -261 344 -261 z "},"ǯ":{"ha":661,"x_min":-47,"x_max":618,"o":"m 247 -261 q 94 -237 169 -261 q -47 -162 18 -214 l -15 -118 q 110 -187 49 -167 q 247 -207 172 -207 q 438 -137 374 -207 q 501 50 501 -68 q 451 179 501 128 q 306 231 400 231 l 157 231 l 163 264 l 546 639 l 546 621 l 92 621 l 100 672 l 618 672 l 611 631 l 225 256 l 222 283 l 311 283 q 447 251 392 283 q 532 166 503 219 q 561 47 561 113 q 523 -114 561 -44 q 415 -222 485 -183 q 247 -261 344 -261 m 343 763 l 222 1040 l 269 1040 l 379 817 l 542 1040 l 592 1040 l 410 763 l 343 763 z "},"f":{"ha":425,"x_min":58,"x_max":535,"o":"m 93 0 l 192 622 l 58 622 l 67 672 l 211 672 l 197 658 l 210 740 q 256 865 221 813 q 345 947 290 917 q 474 979 400 976 l 532 982 l 535 931 l 471 926 q 369 900 411 922 q 302 836 328 878 q 267 733 276 794 l 256 663 l 249 672 l 463 672 l 454 622 l 250 622 l 151 0 l 93 0 z "},"g":{"ha":792,"x_min":54,"x_max":726,"o":"m 335 -261 q 176 -231 246 -261 q 54 -158 107 -201 l 81 -110 q 159 -162 122 -140 q 238 -196 196 -185 q 332 -207 279 -207 q 486 -156 426 -207 q 563 0 546 -106 l 592 185 l 603 183 q 541 94 579 132 q 451 36 503 57 q 336 15 400 15 q 197 49 257 15 q 104 145 138 83 q 71 289 71 207 q 92 436 71 365 q 157 563 114 507 q 263 651 200 618 q 408 683 325 683 q 561 640 494 683 q 651 503 628 596 l 642 503 l 668 672 l 726 672 l 619 3 q 569 -146 606 -87 q 474 -233 532 -204 q 335 -261 417 -261 m 344 69 q 496 117 435 69 q 588 243 557 165 q 619 411 619 321 q 563 572 619 515 q 406 629 507 629 q 255 581 317 629 q 162 456 193 533 q 131 289 131 379 q 187 126 131 183 q 344 69 243 69 z "},"ğ":{"ha":792,"x_min":54,"x_max":726,"o":"m 335 -261 q 176 -231 246 -261 q 54 -158 107 -201 l 81 -110 q 159 -162 122 -140 q 238 -196 196 -185 q 332 -207 279 -207 q 486 -156 426 -207 q 563 0 546 -106 l 592 185 l 603 183 q 541 94 579 132 q 451 36 503 57 q 336 15 400 15 q 197 49 257 15 q 104 145 138 83 q 71 289 71 207 q 92 436 71 365 q 157 563 114 507 q 263 651 200 618 q 408 683 325 683 q 561 640 494 683 q 651 503 628 596 l 642 503 l 668 672 l 726 672 l 619 3 q 569 -146 606 -87 q 474 -233 532 -204 q 335 -261 417 -261 m 344 69 q 496 117 435 69 q 588 243 557 165 q 619 411 619 321 q 563 572 619 515 q 406 629 507 629 q 255 581 317 629 q 162 456 193 533 q 131 289 131 379 q 187 126 131 183 q 344 69 243 69 m 479 760 q 380 791 422 760 q 316 881 338 822 q 299 1019 294 939 l 344 1025 q 376 866 339 922 q 481 810 413 810 q 594 866 550 810 q 653 1025 639 922 l 699 1019 q 658 881 688 939 q 583 791 628 822 q 479 760 538 760 z "},"ǧ":{"ha":792,"x_min":54,"x_max":726,"o":"m 335 -261 q 176 -231 246 -261 q 54 -158 107 -201 l 81 -110 q 159 -162 122 -140 q 238 -196 196 -185 q 332 -207 279 -207 q 486 -156 426 -207 q 563 0 546 -106 l 592 185 l 603 183 q 541 94 579 132 q 451 36 503 57 q 336 15 400 15 q 197 49 257 15 q 104 145 138 83 q 71 289 71 207 q 92 436 71 365 q 157 563 114 507 q 263 651 200 618 q 408 683 325 683 q 561 640 494 683 q 651 503 628 596 l 642 503 l 668 672 l 726 672 l 619 3 q 569 -146 606 -87 q 474 -233 532 -204 q 335 -261 417 -261 m 344 69 q 496 117 435 69 q 588 243 557 165 q 619 411 619 321 q 563 572 619 515 q 406 629 507 629 q 255 581 317 629 q 162 456 193 533 q 131 289 131 379 q 187 126 131 183 q 344 69 243 69 m 433 763 l 313 1040 l 360 1040 l 469 817 l 632 1040 l 682 1040 l 500 763 l 433 763 z "},"ĝ":{"ha":792,"x_min":54,"x_max":726,"o":"m 335 -261 q 176 -231 246 -261 q 54 -158 107 -201 l 81 -110 q 159 -162 122 -140 q 238 -196 196 -185 q 332 -207 279 -207 q 486 -156 426 -207 q 563 0 546 -106 l 592 185 l 603 183 q 541 94 579 132 q 451 36 503 57 q 336 15 400 15 q 197 49 257 15 q 104 145 138 83 q 71 289 71 207 q 92 436 71 365 q 157 563 114 507 q 263 651 200 618 q 408 683 325 683 q 561 640 494 683 q 651 503 628 596 l 642 503 l 668 672 l 726 672 l 619 3 q 569 -146 606 -87 q 474 -233 532 -204 q 335 -261 417 -261 m 344 69 q 496 117 435 69 q 588 243 557 165 q 619 411 619 321 q 563 572 619 515 q 406 629 507 629 q 255 581 317 629 q 162 456 193 533 q 131 289 131 379 q 187 126 131 183 q 344 69 243 69 m 281 763 l 463 1040 l 529 1040 l 650 763 l 603 763 l 493 986 l 331 763 l 281 763 z "},"ģ":{"ha":792,"x_min":54,"x_max":726,"o":"m 335 -261 q 176 -231 246 -261 q 54 -158 107 -201 l 81 -110 q 159 -162 122 -140 q 238 -196 196 -185 q 332 -207 279 -207 q 486 -156 426 -207 q 563 0 546 -106 l 592 185 l 603 183 q 541 94 579 132 q 451 36 503 57 q 336 15 400 15 q 197 49 257 15 q 104 145 138 83 q 71 289 71 207 q 92 436 71 365 q 157 563 114 507 q 263 651 200 618 q 408 683 325 683 q 561 640 494 683 q 651 503 628 596 l 642 503 l 668 672 l 726 672 l 619 3 q 569 -146 606 -87 q 474 -233 532 -204 q 335 -261 417 -261 m 344 69 q 496 117 435 69 q 588 243 557 165 q 619 411 619 321 q 563 572 619 515 q 406 629 507 629 q 255 581 317 629 q 162 456 193 533 q 131 289 131 379 q 187 126 131 183 q 344 69 243 69 m 424 792 l 438 876 q 466 965 446 926 q 524 1032 486 1004 l 551 1001 q 503 941 514 969 q 485 872 492 913 l 467 882 l 536 882 l 521 792 l 424 792 z "},"ġ":{"ha":792,"x_min":54,"x_max":726,"o":"m 335 -261 q 176 -231 246 -261 q 54 -158 107 -201 l 81 -110 q 159 -162 122 -140 q 238 -196 196 -185 q 332 -207 279 -207 q 486 -156 426 -207 q 563 0 546 -106 l 592 185 l 603 183 q 541 94 579 132 q 451 36 503 57 q 336 15 400 15 q 197 49 257 15 q 104 145 138 83 q 71 289 71 207 q 92 436 71 365 q 157 563 114 507 q 263 651 200 618 q 408 683 325 683 q 561 640 494 683 q 651 503 628 596 l 642 503 l 668 672 l 726 672 l 619 3 q 569 -146 606 -87 q 474 -233 532 -204 q 335 -261 417 -261 m 344 69 q 496 117 435 69 q 588 243 557 165 q 619 411 619 321 q 563 572 619 515 q 406 629 507 629 q 255 581 317 629 q 162 456 193 533 q 131 289 131 379 q 187 126 131 183 q 344 69 243 69 m 438 860 l 451 947 l 540 947 l 526 860 l 438 860 z "},"ḡ":{"ha":792,"x_min":54,"x_max":726,"o":"m 335 -261 q 176 -231 246 -261 q 54 -158 107 -201 l 81 -110 q 159 -162 122 -140 q 238 -196 196 -185 q 332 -207 279 -207 q 486 -156 426 -207 q 563 0 546 -106 l 592 185 l 603 183 q 541 94 579 132 q 451 36 503 57 q 336 15 400 15 q 197 49 257 15 q 104 145 138 83 q 71 289 71 207 q 92 436 71 365 q 157 563 114 507 q 263 651 200 618 q 408 683 325 683 q 561 640 494 683 q 651 503 628 596 l 642 503 l 668 672 l 726 672 l 619 3 q 569 -146 606 -87 q 474 -233 532 -204 q 335 -261 417 -261 m 344 69 q 496 117 435 69 q 588 243 557 165 q 619 411 619 321 q 563 572 619 515 q 406 629 507 629 q 255 581 317 629 q 162 456 193 533 q 131 289 131 379 q 187 126 131 183 q 344 69 243 69 m 292 879 l 300 932 l 689 932 l 681 879 l 292 879 z "},"ǥ":{"ha":792,"x_min":56,"x_max":728,"o":"m 336 -261 q 178 -231 247 -261 q 56 -158 108 -201 l 82 -110 q 160 -162 124 -140 q 239 -196 197 -185 q 333 -207 281 -207 q 463 -174 410 -207 q 543 -75 517 -142 l 549 -87 l 369 -87 l 378 -37 l 564 -37 l 554 -44 q 560 -22 557 -33 q 564 0 563 -11 l 597 213 l 604 211 q 542 122 581 160 q 453 64 504 85 q 338 43 401 43 q 199 77 258 43 q 106 169 139 111 q 72 303 72 228 q 94 442 72 374 q 158 564 115 510 q 264 651 201 618 q 410 683 326 683 q 563 640 496 683 q 653 503 629 596 l 643 503 l 669 672 l 728 672 l 621 3 q 617 -21 619 -10 q 611 -43 614 -32 l 607 -37 l 718 -37 l 710 -87 l 590 -87 l 601 -79 q 504 -217 571 -172 q 336 -261 438 -261 m 346 97 q 497 144 436 97 q 590 267 558 192 q 621 425 621 342 q 565 574 621 519 q 407 629 508 629 q 256 582 318 629 q 163 460 194 535 q 132 303 132 386 q 158 194 132 240 q 231 122 183 147 q 346 97 279 97 z "},"h":{"ha":768,"x_min":65,"x_max":679,"o":"m 65 0 l 221 979 l 279 979 l 204 506 l 188 506 q 292 636 222 589 q 460 683 361 683 q 585 653 535 683 q 658 563 636 624 q 664 410 679 503 l 599 0 l 540 0 l 606 411 q 605 533 618 485 q 556 606 592 582 q 458 629 519 629 q 322 597 379 629 q 229 505 264 564 q 182 367 194 446 l 124 0 l 65 0 z "},"ħ":{"ha":768,"x_min":57,"x_max":679,"o":"m 65 0 l 189 781 l 57 781 l 65 831 l 197 831 l 221 979 l 279 979 l 256 831 l 529 831 l 521 781 l 247 781 l 204 506 l 188 506 q 292 636 222 589 q 460 683 361 683 q 585 653 535 683 q 658 563 636 624 q 664 410 679 503 l 599 0 l 540 0 l 606 411 q 605 533 618 485 q 556 606 592 582 q 458 629 519 629 q 322 597 379 629 q 229 505 264 564 q 182 367 194 446 l 124 0 l 65 0 z "},"ḫ":{"ha":768,"x_min":65,"x_max":679,"o":"m 65 0 l 221 979 l 279 979 l 204 506 l 188 506 q 292 636 222 589 q 460 683 361 683 q 585 653 535 683 q 658 563 636 624 q 664 410 679 503 l 599 0 l 540 0 l 606 411 q 605 533 618 485 q 556 606 592 582 q 458 629 519 629 q 322 597 379 629 q 229 505 264 564 q 182 367 194 446 l 124 0 l 65 0 m 313 -299 q 175 -244 226 -299 q 128 -94 124 -190 l 174 -89 q 207 -207 168 -165 q 314 -249 246 -249 q 426 -207 383 -249 q 482 -89 469 -165 l 528 -94 q 456 -244 514 -190 q 313 -299 399 -299 z "},"ȟ":{"ha":768,"x_min":65,"x_max":728,"o":"m 65 0 l 221 979 l 279 979 l 204 506 l 188 506 q 292 636 222 589 q 460 683 361 683 q 585 653 535 683 q 658 563 636 624 q 664 410 679 503 l 599 0 l 540 0 l 606 411 q 605 533 618 485 q 556 606 592 582 q 458 629 519 629 q 322 597 379 629 q 229 505 264 564 q 182 367 194 446 l 124 0 l 65 0 m 468 1063 l 325 1299 l 375 1299 l 501 1115 l 675 1299 l 728 1299 l 535 1063 l 468 1063 z "},"ĥ":{"ha":768,"x_min":65,"x_max":690,"o":"m 65 0 l 221 979 l 279 979 l 204 506 l 188 506 q 292 636 222 589 q 460 683 361 683 q 585 653 535 683 q 658 563 636 624 q 664 410 679 503 l 599 0 l 540 0 l 606 411 q 605 533 618 485 q 556 606 592 582 q 458 629 519 629 q 322 597 379 629 q 229 505 264 564 q 182 367 194 446 l 124 0 l 65 0 m 288 1063 l 481 1299 l 547 1299 l 690 1063 l 639 1063 l 511 1246 l 339 1063 l 288 1063 z "},"ḥ":{"ha":768,"x_min":65,"x_max":679,"o":"m 65 0 l 221 979 l 279 979 l 204 506 l 188 506 q 292 636 222 589 q 460 683 361 683 q 585 653 535 683 q 658 563 636 624 q 664 410 679 503 l 599 0 l 540 0 l 606 411 q 605 533 618 485 q 556 606 592 582 q 458 629 519 629 q 322 597 379 629 q 229 505 264 564 q 182 367 194 446 l 124 0 l 65 0 m 260 -239 l 274 -151 l 363 -151 l 349 -239 l 260 -239 z "},"i":{"ha":294,"x_min":64,"x_max":289,"o":"m 186 860 l 200 947 l 289 947 l 275 860 l 186 860 m 64 0 l 171 672 l 229 672 l 122 0 l 64 0 z "},"ı":{"ha":294,"x_min":65,"x_max":229,"o":"m 65 0 l 171 672 l 229 672 l 124 0 l 65 0 z "},"í":{"ha":294,"x_min":65,"x_max":456,"o":"m 65 0 l 171 672 l 229 672 l 124 0 l 65 0 m 192 763 l 379 1040 l 456 1040 l 242 763 l 192 763 z "},"ĭ":{"ha":294,"x_min":44,"x_max":449,"o":"m 65 0 l 171 672 l 229 672 l 124 0 l 65 0 m 229 760 q 130 791 172 760 q 66 881 88 822 q 49 1019 44 939 l 94 1025 q 126 866 89 922 q 231 810 163 810 q 344 866 300 810 q 403 1025 389 922 l 449 1019 q 408 881 438 939 q 333 791 378 822 q 229 760 288 760 z "},"î":{"ha":294,"x_min":31,"x_max":400,"o":"m 65 0 l 171 672 l 229 672 l 124 0 l 65 0 m 31 763 l 213 1040 l 279 1040 l 400 763 l 353 763 l 243 986 l 81 763 l 31 763 z "},"ȉ":{"ha":294,"x_min":38,"x_max":311,"o":"m 65 0 l 171 672 l 229 672 l 124 0 l 65 0 m 274 763 l 189 1040 l 254 1040 l 311 763 l 274 763 m 122 763 l 38 1040 l 103 1040 l 160 763 l 122 763 z "},"ï":{"ha":294,"x_min":65,"x_max":400,"o":"m 65 0 l 171 672 l 229 672 l 124 0 l 65 0 m 303 861 l 315 944 l 400 944 l 388 861 l 303 861 m 79 861 l 92 944 l 176 944 l 164 861 l 79 861 z "},"ḯ":{"ha":294,"x_min":63,"x_max":444,"o":"m 65 0 l 171 672 l 229 672 l 124 0 l 65 0 m 214 903 l 368 1111 l 444 1111 l 264 903 l 214 903 m 63 764 l 76 847 l 161 847 l 147 764 l 63 764 m 286 764 l 300 847 l 385 847 l 371 764 l 286 764 z "},"ị":{"ha":294,"x_min":11,"x_max":289,"o":"m 186 860 l 200 947 l 289 947 l 275 860 l 186 860 m 64 0 l 171 672 l 229 672 l 122 0 l 64 0 m 11 -239 l 25 -151 l 114 -151 l 100 -239 l 11 -239 z "},"ì":{"ha":294,"x_min":-6,"x_max":239,"o":"m 65 0 l 171 672 l 229 672 l 124 0 l 65 0 m 189 763 l -6 1040 l 68 1040 l 239 763 l 189 763 z "},"ỉ":{"ha":294,"x_min":65,"x_max":354,"o":"m 65 0 l 171 672 l 229 672 l 124 0 l 65 0 m 185 763 l 189 790 q 211 846 194 824 q 248 885 228 868 q 283 919 268 903 q 297 958 297 936 q 281 988 297 978 q 229 997 265 997 q 186 992 208 997 q 136 975 164 988 l 128 1019 q 180 1041 151 1035 q 239 1047 208 1047 q 324 1026 294 1047 q 354 965 354 1004 q 339 906 354 928 q 303 869 324 885 q 264 835 282 854 q 239 783 246 817 l 235 763 l 185 763 z "},"ȋ":{"ha":294,"x_min":7,"x_max":411,"o":"m 65 0 l 171 672 l 229 672 l 124 0 l 65 0 m 53 760 l 7 765 q 49 905 19 847 q 124 994 79 963 q 226 1025 169 1025 q 326 994 285 1025 q 390 905 368 963 q 407 765 411 847 l 361 760 q 331 919 368 863 q 225 975 294 975 q 112 919 157 975 q 53 760 67 863 z "},"ĳ":{"ha":593,"x_min":64,"x_max":588,"o":"m 186 860 l 200 947 l 289 947 l 275 860 l 186 860 m 64 0 l 171 672 l 229 672 l 122 0 l 64 0 m 485 860 l 499 947 l 588 947 l 574 860 l 485 860 m 129 -268 l 126 -215 l 183 -211 q 301 -160 257 -206 q 358 -31 344 -114 l 469 672 l 528 672 l 415 -36 q 388 -131 407 -90 q 339 -201 368 -172 q 272 -245 310 -229 q 189 -264 235 -261 l 129 -268 z "},"ī":{"ha":294,"x_min":42,"x_max":439,"o":"m 65 0 l 171 672 l 229 672 l 124 0 l 65 0 m 42 879 l 50 932 l 439 932 l 431 879 l 42 879 z "},"į":{"ha":294,"x_min":-42,"x_max":290,"o":"m 65 0 l 171 672 l 229 672 l 124 0 l 65 0 m 188 860 l 201 947 l 290 947 l 276 860 l 188 860 m 82 -264 q -10 -230 22 -264 q -42 -143 -42 -196 q -2 -33 -42 -82 q 99 43 38 17 l 124 0 q 62 -37 86 -15 q 25 -84 38 -58 q 13 -137 13 -110 q 31 -193 13 -172 q 89 -214 50 -214 q 124 -210 106 -214 q 164 -196 143 -206 l 176 -243 q 136 -257 163 -250 q 82 -264 110 -264 z "},"ĩ":{"ha":294,"x_min":-8,"x_max":464,"o":"m 65 0 l 171 672 l 229 672 l 124 0 l 65 0 m 36 826 l -8 829 q 44 953 7 910 q 136 997 81 997 q 197 976 172 997 q 242 932 221 956 q 280 895 261 911 q 321 879 299 879 q 382 910 357 879 q 419 1000 407 942 l 464 997 q 413 873 450 917 q 321 829 375 829 q 260 850 286 829 q 214 894 235 871 q 177 931 196 915 q 135 947 158 947 q 74 916 99 947 q 36 826 49 885 z "},"j":{"ha":299,"x_min":-168,"x_max":293,"o":"m 190 860 l 204 947 l 293 947 l 279 860 l 190 860 m -165 -268 l -168 -215 l -111 -211 q 6 -160 -37 -206 q 64 -31 50 -114 l 175 672 l 233 672 l 121 -36 q 93 -131 113 -90 q 44 -201 74 -172 q -22 -245 15 -229 q -106 -264 -60 -261 l -165 -268 z "},"ȷ":{"ha":299,"x_min":-168,"x_max":233,"o":"m -165 -268 l -168 -215 l -111 -211 q 6 -160 -37 -206 q 64 -31 50 -114 l 175 672 l 233 672 l 121 -36 q 93 -131 113 -90 q 44 -201 74 -172 q -22 -245 15 -229 q -106 -264 -60 -261 l -165 -268 z "},"ĵ":{"ha":299,"x_min":-168,"x_max":400,"o":"m -165 -268 l -168 -215 l -111 -211 q 6 -160 -37 -206 q 64 -31 50 -114 l 175 672 l 233 672 l 121 -36 q 93 -131 113 -90 q 44 -201 74 -172 q -22 -245 15 -229 q -106 -264 -60 -261 l -165 -268 m 31 763 l 213 1040 l 279 1040 l 400 763 l 353 763 l 243 986 l 81 763 l 31 763 z "},"k":{"ha":650,"x_min":65,"x_max":661,"o":"m 65 0 l 219 979 l 278 979 l 181 361 l 183 361 l 578 672 l 661 672 l 207 313 l 215 367 l 596 0 l 518 0 l 178 329 l 175 329 l 124 0 l 65 0 z "},"ǩ":{"ha":650,"x_min":65,"x_max":728,"o":"m 65 0 l 219 979 l 278 979 l 181 361 l 183 361 l 578 672 l 661 672 l 207 313 l 215 367 l 596 0 l 518 0 l 178 329 l 175 329 l 124 0 l 65 0 m 468 1063 l 325 1299 l 375 1299 l 501 1115 l 675 1299 l 728 1299 l 535 1063 l 468 1063 z "},"ķ":{"ha":650,"x_min":65,"x_max":661,"o":"m 65 0 l 219 979 l 278 979 l 181 361 l 183 361 l 578 672 l 661 672 l 207 313 l 215 367 l 596 0 l 518 0 l 178 329 l 175 329 l 124 0 l 65 0 m 207 -360 l 179 -329 q 228 -268 217 -297 q 246 -200 239 -239 l 264 -210 l 194 -210 l 210 -119 l 307 -119 l 293 -204 q 265 -293 285 -254 q 207 -360 244 -332 z "},"ĸ":{"ha":650,"x_min":65,"x_max":661,"o":"m 65 0 l 171 672 l 229 672 l 181 361 l 183 361 l 578 672 l 661 672 l 207 313 l 215 367 l 596 0 l 517 0 l 178 329 l 175 329 l 124 0 l 65 0 z "},"l":{"ha":382,"x_min":79,"x_max":326,"o":"m 246 -11 q 119 42 160 -11 q 96 199 79 94 l 219 979 l 278 979 l 154 199 q 153 108 146 143 q 188 58 161 74 q 257 43 214 43 q 292 45 275 43 q 326 51 308 47 l 314 -1 q 280 -9 299 -7 q 246 -11 261 -11 z "},"ĺ":{"ha":382,"x_min":79,"x_max":499,"o":"m 246 -11 q 119 42 160 -11 q 96 199 79 94 l 219 979 l 278 979 l 154 199 q 153 108 146 143 q 188 58 161 74 q 257 43 214 43 q 292 45 275 43 q 326 51 308 47 l 314 -1 q 280 -9 299 -7 q 246 -11 261 -11 m 238 1063 l 419 1299 l 499 1299 l 290 1063 l 238 1063 z "},"ľ":{"ha":382,"x_min":79,"x_max":415,"o":"m 246 -11 q 119 42 160 -11 q 96 199 79 94 l 219 979 l 278 979 l 154 199 q 153 108 146 143 q 188 58 161 74 q 257 43 214 43 q 292 45 275 43 q 326 51 308 47 l 314 -1 q 280 -9 299 -7 q 246 -11 261 -11 m 306 718 l 347 979 l 415 979 l 343 718 l 306 718 z "},"ļ":{"ha":382,"x_min":79,"x_max":326,"o":"m 246 -11 q 119 42 160 -11 q 96 199 79 94 l 219 979 l 278 979 l 154 199 q 153 108 146 143 q 188 58 161 74 q 257 43 214 43 q 292 45 275 43 q 326 51 308 47 l 314 -1 q 280 -9 299 -7 q 246 -11 261 -11 m 129 -360 l 101 -329 q 150 -268 139 -297 q 168 -200 161 -239 l 186 -210 l 117 -210 l 132 -119 l 229 -119 l 215 -204 q 187 -293 207 -254 q 129 -360 167 -332 z "},"ŀ":{"ha":382,"x_min":79,"x_max":404,"o":"m 246 -11 q 119 42 160 -11 q 96 199 79 94 l 219 979 l 278 979 l 154 199 q 153 108 146 143 q 188 58 161 74 q 257 43 214 43 q 292 45 275 43 q 326 51 308 47 l 314 -1 q 280 -9 299 -7 q 246 -11 261 -11 m 294 449 l 310 543 l 404 543 l 389 449 l 294 449 z "},"ḷ":{"ha":382,"x_min":79,"x_max":326,"o":"m 246 -11 q 119 42 160 -11 q 96 199 79 94 l 219 979 l 278 979 l 154 199 q 153 108 146 143 q 188 58 161 74 q 257 43 214 43 q 292 45 275 43 q 326 51 308 47 l 314 -1 q 280 -9 299 -7 q 246 -11 261 -11 m 117 -239 l 131 -151 l 219 -151 l 206 -239 l 117 -239 z "},"ǉ":{"ha":681,"x_min":79,"x_max":675,"o":"m 246 -11 q 119 42 160 -11 q 96 199 79 94 l 219 979 l 278 979 l 154 199 q 153 108 146 143 q 188 58 161 74 q 257 43 214 43 q 292 45 275 43 q 326 51 308 47 l 314 -1 q 280 -9 299 -7 q 246 -11 261 -11 m 572 860 l 586 947 l 675 947 l 661 860 l 572 860 m 217 -268 l 214 -215 l 271 -211 q 388 -160 344 -206 q 446 -31 432 -114 l 557 672 l 615 672 l 503 -36 q 475 -131 494 -90 q 426 -201 456 -172 q 360 -245 397 -229 q 276 -264 322 -261 l 217 -268 z "},"ḻ":{"ha":382,"x_min":-28,"x_max":369,"o":"m 246 -11 q 119 42 160 -11 q 96 199 79 94 l 219 979 l 278 979 l 154 199 q 153 108 146 143 q 188 58 161 74 q 257 43 214 43 q 292 45 275 43 q 326 51 308 47 l 314 -1 q 280 -9 299 -7 q 246 -11 261 -11 m -28 -206 l -19 -153 l 369 -153 l 361 -206 l -28 -206 z "},"ł":{"ha":382,"x_min":7,"x_max":365,"o":"m 246 -11 q 119 42 160 -11 q 96 199 79 94 l 219 979 l 278 979 l 154 199 q 153 108 146 143 q 188 58 161 74 q 257 43 214 43 q 292 45 275 43 q 326 51 308 47 l 314 -1 q 280 -9 299 -7 q 246 -11 261 -11 m 31 393 l 7 442 l 342 599 l 365 549 l 31 393 z "},"m":{"ha":1164,"x_min":68,"x_max":1072,"o":"m 68 0 l 175 672 l 232 672 l 204 504 l 190 506 q 289 637 226 590 q 436 683 351 683 q 569 638 518 683 q 628 504 621 592 l 611 506 q 709 635 643 588 q 868 683 775 683 q 986 653 939 683 q 1053 563 1033 624 q 1057 410 1072 503 l 992 0 l 933 0 l 999 418 q 999 536 1010 489 q 955 606 988 583 q 865 629 922 629 q 749 598 800 629 q 664 508 697 567 q 617 367 631 449 l 558 0 l 500 0 l 567 418 q 567 536 578 489 q 523 606 556 583 q 433 629 490 629 q 342 611 383 629 q 269 559 301 593 q 216 476 238 525 q 185 367 194 428 l 126 0 l 68 0 z "},"ṃ":{"ha":1164,"x_min":68,"x_max":1072,"o":"m 68 0 l 175 672 l 232 672 l 204 504 l 190 506 q 289 637 226 590 q 436 683 351 683 q 569 638 518 683 q 628 504 621 592 l 611 506 q 709 635 643 588 q 868 683 775 683 q 986 653 939 683 q 1053 563 1033 624 q 1057 410 1072 503 l 992 0 l 933 0 l 999 418 q 999 536 1010 489 q 955 606 988 583 q 865 629 922 629 q 749 598 800 629 q 664 508 697 567 q 617 367 631 449 l 558 0 l 500 0 l 567 418 q 567 536 578 489 q 523 606 556 583 q 433 629 490 629 q 342 611 383 629 q 269 559 301 593 q 216 476 238 525 q 185 367 194 428 l 126 0 l 68 0 m 447 -239 l 461 -151 l 550 -151 l 536 -239 l 447 -239 z "},"n":{"ha":768,"x_min":65,"x_max":679,"o":"m 65 0 l 172 672 l 229 672 l 203 506 l 188 506 q 292 636 222 589 q 460 683 361 683 q 585 653 535 683 q 658 563 636 624 q 664 410 679 503 l 599 0 l 540 0 l 606 411 q 605 533 618 485 q 556 606 592 582 q 458 629 519 629 q 322 597 379 629 q 229 505 264 564 q 182 367 194 446 l 124 0 l 65 0 z "},"ń":{"ha":768,"x_min":65,"x_max":692,"o":"m 65 0 l 172 672 l 229 672 l 203 506 l 188 506 q 292 636 222 589 q 460 683 361 683 q 585 653 535 683 q 658 563 636 624 q 664 410 679 503 l 599 0 l 540 0 l 606 411 q 605 533 618 485 q 556 606 592 582 q 458 629 519 629 q 322 597 379 629 q 229 505 264 564 q 182 367 194 446 l 124 0 l 65 0 m 428 763 l 615 1040 l 692 1040 l 478 763 l 428 763 z "},"ŉ":{"ha":768,"x_min":65,"x_max":679,"o":"m 108 799 l 76 826 q 124 888 111 860 q 140 943 136 917 l 165 935 l 94 935 l 110 1032 l 206 1032 l 192 947 q 167 868 185 903 q 108 799 149 833 m 65 0 l 172 672 l 229 672 l 203 506 l 188 506 q 292 636 222 589 q 460 683 361 683 q 585 653 535 683 q 658 563 636 624 q 664 410 679 503 l 599 0 l 540 0 l 606 411 q 605 533 618 485 q 556 606 592 582 q 458 629 519 629 q 322 597 379 629 q 229 505 264 564 q 182 367 194 446 l 124 0 l 65 0 z "},"ň":{"ha":768,"x_min":65,"x_max":679,"o":"m 65 0 l 172 672 l 229 672 l 203 506 l 188 506 q 292 636 222 589 q 460 683 361 683 q 585 653 535 683 q 658 563 636 624 q 664 410 679 503 l 599 0 l 540 0 l 606 411 q 605 533 618 485 q 556 606 592 582 q 458 629 519 629 q 322 597 379 629 q 229 505 264 564 q 182 367 194 446 l 124 0 l 65 0 m 419 763 l 299 1040 l 346 1040 l 456 817 l 618 1040 l 668 1040 l 486 763 l 419 763 z "},"ņ":{"ha":768,"x_min":65,"x_max":679,"o":"m 65 0 l 172 672 l 229 672 l 203 506 l 188 506 q 292 636 222 589 q 460 683 361 683 q 585 653 535 683 q 658 563 636 624 q 664 410 679 503 l 599 0 l 540 0 l 606 411 q 605 533 618 485 q 556 606 592 582 q 458 629 519 629 q 322 597 379 629 q 229 505 264 564 q 182 367 194 446 l 124 0 l 65 0 m 269 -360 l 242 -329 q 290 -268 279 -297 q 308 -200 301 -239 l 326 -210 l 257 -210 l 272 -119 l 369 -119 l 356 -204 q 327 -293 347 -254 q 269 -360 307 -332 z "},"ṅ":{"ha":768,"x_min":65,"x_max":679,"o":"m 65 0 l 172 672 l 229 672 l 203 506 l 188 506 q 292 636 222 589 q 460 683 361 683 q 585 653 535 683 q 658 563 636 624 q 664 410 679 503 l 599 0 l 540 0 l 606 411 q 605 533 618 485 q 556 606 592 582 q 458 629 519 629 q 322 597 379 629 q 229 505 264 564 q 182 367 194 446 l 124 0 l 65 0 m 424 860 l 438 947 l 526 947 l 513 860 l 424 860 z "},"ṇ":{"ha":768,"x_min":65,"x_max":679,"o":"m 65 0 l 172 672 l 229 672 l 203 506 l 188 506 q 292 636 222 589 q 460 683 361 683 q 585 653 535 683 q 658 563 636 624 q 664 410 679 503 l 599 0 l 540 0 l 606 411 q 605 533 618 485 q 556 606 592 582 q 458 629 519 629 q 322 597 379 629 q 229 505 264 564 q 182 367 194 446 l 124 0 l 65 0 m 257 -239 l 271 -151 l 360 -151 l 346 -239 l 257 -239 z "},"ǌ":{"ha":1067,"x_min":65,"x_max":1061,"o":"m 65 0 l 172 672 l 229 672 l 203 506 l 188 506 q 292 636 222 589 q 460 683 361 683 q 585 653 535 683 q 658 563 636 624 q 664 410 679 503 l 599 0 l 540 0 l 606 411 q 605 533 618 485 q 556 606 592 582 q 458 629 519 629 q 322 597 379 629 q 229 505 264 564 q 182 367 194 446 l 124 0 l 65 0 m 958 860 l 972 947 l 1061 947 l 1047 860 l 958 860 m 603 -268 l 600 -215 l 657 -211 q 774 -160 731 -206 q 832 -31 818 -114 l 943 672 l 1001 672 l 889 -36 q 861 -131 881 -90 q 813 -201 842 -172 q 746 -245 783 -229 q 663 -264 708 -261 l 603 -268 z "},"ṉ":{"ha":768,"x_min":65,"x_max":679,"o":"m 65 0 l 172 672 l 229 672 l 203 506 l 188 506 q 292 636 222 589 q 460 683 361 683 q 585 653 535 683 q 658 563 636 624 q 664 410 679 503 l 599 0 l 540 0 l 606 411 q 605 533 618 485 q 556 606 592 582 q 458 629 519 629 q 322 597 379 629 q 229 505 264 564 q 182 367 194 446 l 124 0 l 65 0 m 113 -206 l 121 -153 l 510 -153 l 501 -206 l 113 -206 z "},"ñ":{"ha":768,"x_min":65,"x_max":700,"o":"m 65 0 l 172 672 l 229 672 l 203 506 l 188 506 q 292 636 222 589 q 460 683 361 683 q 585 653 535 683 q 658 563 636 624 q 664 410 679 503 l 599 0 l 540 0 l 606 411 q 605 533 618 485 q 556 606 592 582 q 458 629 519 629 q 322 597 379 629 q 229 505 264 564 q 182 367 194 446 l 124 0 l 65 0 m 272 826 l 228 829 q 280 953 243 910 q 372 997 317 997 q 433 976 408 997 q 478 932 457 956 q 516 895 497 911 q 557 879 535 879 q 618 910 593 879 q 656 1000 643 942 l 700 997 q 649 873 686 917 q 557 829 611 829 q 497 850 522 829 q 450 894 471 871 q 413 931 432 915 q 371 947 394 947 q 310 916 335 947 q 272 826 285 885 z "},"ŋ":{"ha":768,"x_min":65,"x_max":679,"o":"m 306 -268 l 303 -215 l 360 -211 q 478 -160 433 -206 q 536 -31 522 -114 l 606 411 q 605 533 618 485 q 556 606 592 582 q 458 629 519 629 q 322 597 379 629 q 229 505 264 564 q 182 367 194 446 l 124 0 l 65 0 l 172 672 l 229 672 l 203 508 l 188 506 q 292 636 222 589 q 460 683 361 683 q 585 653 535 683 q 658 563 636 624 q 664 410 679 503 l 593 -36 q 565 -131 585 -90 q 516 -201 546 -172 q 449 -245 486 -229 q 365 -264 411 -261 l 306 -268 z "},"o":{"ha":747,"x_min":71,"x_max":676,"o":"m 340 -11 q 197 24 258 -11 q 103 123 136 58 q 71 278 71 188 q 92 431 71 358 q 157 561 114 504 q 263 651 200 618 q 407 683 325 683 q 551 649 490 683 q 644 549 611 614 q 676 394 676 485 q 655 241 676 314 q 590 111 633 168 q 485 22 547 54 q 340 -11 422 -11 m 343 43 q 493 92 432 43 q 585 221 554 140 q 617 397 617 301 q 560 571 617 513 q 404 629 504 629 q 254 581 315 629 q 162 452 193 532 q 131 275 131 372 q 187 102 131 161 q 343 43 243 43 z "},"ó":{"ha":747,"x_min":71,"x_max":683,"o":"m 340 -11 q 197 24 258 -11 q 103 123 136 58 q 71 278 71 188 q 92 431 71 358 q 157 561 114 504 q 263 651 200 618 q 407 683 325 683 q 551 649 490 683 q 644 549 611 614 q 676 394 676 485 q 655 241 676 314 q 590 111 633 168 q 485 22 547 54 q 340 -11 422 -11 m 343 43 q 493 92 432 43 q 585 221 554 140 q 617 397 617 301 q 560 571 617 513 q 404 629 504 629 q 254 581 315 629 q 162 452 193 532 q 131 275 131 372 q 187 102 131 161 q 343 43 243 43 m 419 763 l 607 1040 l 683 1040 l 469 763 l 419 763 z "},"ŏ":{"ha":747,"x_min":71,"x_max":676,"o":"m 340 -11 q 197 24 258 -11 q 103 123 136 58 q 71 278 71 188 q 92 431 71 358 q 157 561 114 504 q 263 651 200 618 q 407 683 325 683 q 551 649 490 683 q 644 549 611 614 q 676 394 676 485 q 655 241 676 314 q 590 111 633 168 q 485 22 547 54 q 340 -11 422 -11 m 343 43 q 493 92 432 43 q 585 221 554 140 q 617 397 617 301 q 560 571 617 513 q 404 629 504 629 q 254 581 315 629 q 162 452 193 532 q 131 275 131 372 q 187 102 131 161 q 343 43 243 43 m 457 760 q 358 791 400 760 q 294 881 315 822 q 276 1019 272 939 l 322 1025 q 353 866 317 922 q 458 810 390 810 q 572 866 528 810 q 631 1025 617 922 l 676 1019 q 635 881 665 939 q 560 791 606 822 q 457 760 515 760 z "},"ô":{"ha":747,"x_min":71,"x_max":676,"o":"m 340 -11 q 197 24 258 -11 q 103 123 136 58 q 71 278 71 188 q 92 431 71 358 q 157 561 114 504 q 263 651 200 618 q 407 683 325 683 q 551 649 490 683 q 644 549 611 614 q 676 394 676 485 q 655 241 676 314 q 590 111 633 168 q 485 22 547 54 q 340 -11 422 -11 m 343 43 q 493 92 432 43 q 585 221 554 140 q 617 397 617 301 q 560 571 617 513 q 404 629 504 629 q 254 581 315 629 q 162 452 193 532 q 131 275 131 372 q 187 102 131 161 q 343 43 243 43 m 258 763 l 440 1040 l 507 1040 l 628 763 l 581 763 l 471 986 l 308 763 l 258 763 z "},"ố":{"ha":747,"x_min":71,"x_max":774,"o":"m 340 -11 q 197 24 258 -11 q 103 123 136 58 q 71 278 71 188 q 92 431 71 358 q 157 561 114 504 q 263 651 200 618 q 407 683 325 683 q 551 649 490 683 q 644 549 611 614 q 676 394 676 485 q 655 241 676 314 q 590 111 633 168 q 485 22 547 54 q 340 -11 422 -11 m 343 43 q 493 92 432 43 q 585 221 554 140 q 617 397 617 301 q 560 571 617 513 q 404 629 504 629 q 254 581 315 629 q 162 452 193 532 q 131 275 131 372 q 187 102 131 161 q 343 43 243 43 m 249 763 l 419 985 l 486 985 l 618 763 l 571 763 l 450 933 l 296 763 l 249 763 m 558 903 l 697 1111 l 774 1111 l 608 903 l 558 903 z "},"ộ":{"ha":747,"x_min":71,"x_max":676,"o":"m 340 -11 q 197 24 258 -11 q 103 123 136 58 q 71 278 71 188 q 92 431 71 358 q 157 561 114 504 q 263 651 200 618 q 407 683 325 683 q 551 649 490 683 q 644 549 611 614 q 676 394 676 485 q 655 241 676 314 q 590 111 633 168 q 485 22 547 54 q 340 -11 422 -11 m 343 43 q 493 92 432 43 q 585 221 554 140 q 617 397 617 301 q 560 571 617 513 q 404 629 504 629 q 254 581 315 629 q 162 452 193 532 q 131 275 131 372 q 187 102 131 161 q 343 43 243 43 m 256 -239 l 269 -151 l 358 -151 l 344 -239 l 256 -239 m 258 763 l 440 1040 l 507 1040 l 628 763 l 581 763 l 471 986 l 308 763 l 258 763 z "},"ồ":{"ha":747,"x_min":71,"x_max":676,"o":"m 340 -11 q 197 24 258 -11 q 103 123 136 58 q 71 278 71 188 q 92 431 71 358 q 157 561 114 504 q 263 651 200 618 q 407 683 325 683 q 551 649 490 683 q 644 549 611 614 q 676 394 676 485 q 655 241 676 314 q 590 111 633 168 q 485 22 547 54 q 340 -11 422 -11 m 343 43 q 493 92 432 43 q 585 221 554 140 q 617 397 617 301 q 560 571 617 513 q 404 629 504 629 q 254 581 315 629 q 162 452 193 532 q 131 275 131 372 q 187 102 131 161 q 343 43 243 43 m 249 763 l 419 985 l 486 985 l 618 763 l 571 763 l 450 933 l 296 763 l 249 763 m 615 903 l 486 1111 l 560 1111 l 665 903 l 615 903 z "},"ổ":{"ha":747,"x_min":71,"x_max":735,"o":"m 340 -11 q 197 24 258 -11 q 103 123 136 58 q 71 278 71 188 q 92 431 71 358 q 157 561 114 504 q 263 651 200 618 q 407 683 325 683 q 551 649 490 683 q 644 549 611 614 q 676 394 676 485 q 655 241 676 314 q 590 111 633 168 q 485 22 547 54 q 340 -11 422 -11 m 343 43 q 493 92 432 43 q 585 221 554 140 q 617 397 617 301 q 560 571 617 513 q 404 629 504 629 q 254 581 315 629 q 162 452 193 532 q 131 275 131 372 q 187 102 131 161 q 343 43 243 43 m 249 763 l 419 985 l 486 985 l 618 763 l 571 763 l 450 933 l 296 763 l 249 763 m 575 903 q 594 957 578 938 q 630 988 610 976 q 665 1012 650 1000 q 681 1043 681 1024 q 663 1065 681 1058 q 621 1071 646 1071 q 570 1066 597 1071 q 521 1054 543 1061 l 513 1094 q 563 1111 536 1106 q 619 1117 590 1117 q 705 1099 675 1117 q 735 1050 735 1082 q 719 1002 735 1019 q 681 972 703 985 q 642 945 658 960 q 622 903 625 931 l 575 903 z "},"ỗ":{"ha":747,"x_min":71,"x_max":676,"o":"m 340 -11 q 197 24 258 -11 q 103 123 136 58 q 71 278 71 188 q 92 431 71 358 q 157 561 114 504 q 263 651 200 618 q 407 683 325 683 q 551 649 490 683 q 644 549 611 614 q 676 394 676 485 q 655 241 676 314 q 590 111 633 168 q 485 22 547 54 q 340 -11 422 -11 m 343 43 q 493 92 432 43 q 585 221 554 140 q 617 397 617 301 q 560 571 617 513 q 404 629 504 629 q 254 581 315 629 q 162 452 193 532 q 131 275 131 372 q 187 102 131 161 q 343 43 243 43 m 249 763 l 415 943 l 482 943 l 618 763 l 571 763 l 446 896 l 296 763 l 249 763 m 292 979 l 247 982 q 271 1056 254 1026 q 312 1101 288 1086 q 368 1115 336 1115 q 422 1101 399 1115 q 467 1069 446 1086 q 503 1044 486 1056 q 542 1032 521 1032 q 590 1052 574 1032 q 618 1118 607 1072 l 664 1115 q 622 1015 651 1049 q 544 982 592 982 q 490 997 514 982 q 444 1028 465 1011 q 408 1054 426 1043 q 369 1065 389 1065 q 321 1045 339 1065 q 292 979 303 1025 z "},"ȍ":{"ha":747,"x_min":71,"x_max":676,"o":"m 340 -11 q 197 24 258 -11 q 103 123 136 58 q 71 278 71 188 q 92 431 71 358 q 157 561 114 504 q 263 651 200 618 q 407 683 325 683 q 551 649 490 683 q 644 549 611 614 q 676 394 676 485 q 655 241 676 314 q 590 111 633 168 q 485 22 547 54 q 340 -11 422 -11 m 343 43 q 493 92 432 43 q 585 221 554 140 q 617 397 617 301 q 560 571 617 513 q 404 629 504 629 q 254 581 315 629 q 162 452 193 532 q 131 275 131 372 q 187 102 131 161 q 343 43 243 43 m 501 763 l 417 1040 l 482 1040 l 539 763 l 501 763 m 350 763 l 265 1040 l 331 1040 l 388 763 l 350 763 z "},"ö":{"ha":747,"x_min":71,"x_max":676,"o":"m 340 -11 q 197 24 258 -11 q 103 123 136 58 q 71 278 71 188 q 92 431 71 358 q 157 561 114 504 q 263 651 200 618 q 407 683 325 683 q 551 649 490 683 q 644 549 611 614 q 676 394 676 485 q 655 241 676 314 q 590 111 633 168 q 485 22 547 54 q 340 -11 422 -11 m 343 43 q 493 92 432 43 q 585 221 554 140 q 617 397 617 301 q 560 571 617 513 q 404 629 504 629 q 254 581 315 629 q 162 452 193 532 q 131 275 131 372 q 187 102 131 161 q 343 43 243 43 m 531 861 l 543 944 l 628 944 l 615 861 l 531 861 m 307 861 l 319 944 l 404 944 l 392 861 l 307 861 z "},"ȫ":{"ha":747,"x_min":71,"x_max":682,"o":"m 340 -11 q 197 24 258 -11 q 103 123 136 58 q 71 278 71 188 q 92 431 71 358 q 157 561 114 504 q 263 651 200 618 q 407 683 325 683 q 551 649 490 683 q 644 549 611 614 q 676 394 676 485 q 655 241 676 314 q 590 111 633 168 q 485 22 547 54 q 340 -11 422 -11 m 343 43 q 493 92 432 43 q 585 221 554 140 q 617 397 617 301 q 560 571 617 513 q 404 629 504 629 q 254 581 315 629 q 162 452 193 532 q 131 275 131 372 q 187 102 131 161 q 343 43 243 43 m 285 981 l 293 1033 l 682 1033 l 674 981 l 285 981 m 299 813 l 311 896 l 396 896 l 383 813 l 299 813 m 522 813 l 535 896 l 619 896 l 607 813 l 522 813 z "},"ȱ":{"ha":747,"x_min":71,"x_max":682,"o":"m 340 -11 q 197 24 258 -11 q 103 123 136 58 q 71 278 71 188 q 92 431 71 358 q 157 561 114 504 q 263 651 200 618 q 407 683 325 683 q 551 649 490 683 q 644 549 611 614 q 676 394 676 485 q 655 241 676 314 q 590 111 633 168 q 485 22 547 54 q 340 -11 422 -11 m 343 43 q 493 92 432 43 q 585 221 554 140 q 617 397 617 301 q 560 571 617 513 q 404 629 504 629 q 254 581 315 629 q 162 452 193 532 q 131 275 131 372 q 187 102 131 161 q 343 43 243 43 m 285 981 l 293 1033 l 682 1033 l 674 981 l 285 981 m 411 813 l 424 896 l 508 896 l 496 813 l 411 813 z "},"ọ":{"ha":747,"x_min":71,"x_max":676,"o":"m 340 -11 q 197 24 258 -11 q 103 123 136 58 q 71 278 71 188 q 92 431 71 358 q 157 561 114 504 q 263 651 200 618 q 407 683 325 683 q 551 649 490 683 q 644 549 611 614 q 676 394 676 485 q 655 241 676 314 q 590 111 633 168 q 485 22 547 54 q 340 -11 422 -11 m 343 43 q 493 92 432 43 q 585 221 554 140 q 617 397 617 301 q 560 571 617 513 q 404 629 504 629 q 254 581 315 629 q 162 452 193 532 q 131 275 131 372 q 187 102 131 161 q 343 43 243 43 m 256 -239 l 269 -151 l 358 -151 l 344 -239 l 256 -239 z "},"ò":{"ha":747,"x_min":71,"x_max":676,"o":"m 340 -11 q 197 24 258 -11 q 103 123 136 58 q 71 278 71 188 q 92 431 71 358 q 157 561 114 504 q 263 651 200 618 q 407 683 325 683 q 551 649 490 683 q 644 549 611 614 q 676 394 676 485 q 655 241 676 314 q 590 111 633 168 q 485 22 547 54 q 340 -11 422 -11 m 343 43 q 493 92 432 43 q 585 221 554 140 q 617 397 617 301 q 560 571 617 513 q 404 629 504 629 q 254 581 315 629 q 162 452 193 532 q 131 275 131 372 q 187 102 131 161 q 343 43 243 43 m 417 763 l 222 1040 l 296 1040 l 467 763 l 417 763 z "},"ỏ":{"ha":747,"x_min":71,"x_max":676,"o":"m 340 -11 q 197 24 258 -11 q 103 123 136 58 q 71 278 71 188 q 92 431 71 358 q 157 561 114 504 q 263 651 200 618 q 407 683 325 683 q 551 649 490 683 q 644 549 611 614 q 676 394 676 485 q 655 241 676 314 q 590 111 633 168 q 485 22 547 54 q 340 -11 422 -11 m 343 43 q 493 92 432 43 q 585 221 554 140 q 617 397 617 301 q 560 571 617 513 q 404 629 504 629 q 254 581 315 629 q 162 452 193 532 q 131 275 131 372 q 187 102 131 161 q 343 43 243 43 m 413 763 l 417 790 q 439 846 422 824 q 476 885 456 868 q 510 919 496 903 q 525 958 525 936 q 509 988 525 978 q 457 997 493 997 q 414 992 436 997 q 364 975 392 988 l 356 1019 q 408 1041 379 1035 q 467 1047 436 1047 q 552 1026 522 1047 q 582 965 582 1004 q 567 906 582 928 q 531 869 551 885 q 492 835 510 854 q 467 783 474 817 l 463 763 l 413 763 z "},"ơ":{"ha":747,"x_min":71,"x_max":746,"o":"m 340 -11 q 197 24 258 -11 q 103 123 136 58 q 71 278 71 188 q 92 431 71 358 q 157 561 114 504 q 263 651 200 618 q 407 683 325 683 q 551 649 490 683 q 644 549 611 614 q 676 394 676 485 q 655 241 676 314 q 590 111 633 168 q 485 22 547 54 q 340 -11 422 -11 m 343 43 q 493 92 432 43 q 585 221 554 140 q 617 397 617 301 q 560 571 617 513 q 404 629 504 629 q 254 581 315 629 q 162 452 193 532 q 131 275 131 372 q 187 102 131 161 q 343 43 243 43 m 508 619 l 489 638 l 494 672 q 601 693 563 674 q 660 749 640 713 q 688 839 679 786 l 690 856 l 746 856 l 740 818 q 701 711 731 754 q 624 645 672 668 q 508 619 575 622 z "}}}
